<?xml version="1.0" encoding="utf-8"?>
<COLLADA xmlns="http://www.collada.org/2005/11/COLLADASchema" version="1.4.1">
  <asset>
    <contributor>
      <author/>
      <authoring_tool>FBX COLLADA exporter</authoring_tool>
      <comments/>
    </contributor>
    <created>2024-06-23T23:01:23Z</created>
    <keywords/>
    <modified>2024-06-23T23:01:23Z</modified>
    <revision/>
    <subject/>
    <title/>
    <unit meter="0.010000" name="centimeter"/>
    <up_axis>Y_UP</up_axis>
  </asset>
  <library_images>
    <image id="base_color_texture1-image" name="base_color_texture1">
      <init_from>file://D:\Alex\3D WORK\[3D] RETURN\[5] 袪邪斜芯褌邪 褋 CGTrader.com\[3] 袚芯褌芯胁褘械 屑芯写械谢懈\Low-Poly Forest Nature Set (project)\files\texture_gradient.png</init_from>
    </image>
  </library_images>
  <library_materials>
    <material id="AllColors_Material" name="AllColors_Material">
      <instance_effect url="#AllColors_Material-fx"/>
    </material>
  </library_materials>
  <library_effects>
    <effect id="AllColors_Material-fx" name="AllColors_Material">
      <profile_COMMON>
        <technique sid="standard">
          <phong>
            <emission>
              <color sid="emission">0.000000  0.000000 0.000000 1.000000</color>
            </emission>
            <ambient>
              <color sid="ambient">0.000000  0.000000 0.000000 1.000000</color>
            </ambient>
            <diffuse>
              <texture texture="base_color_texture1-image" texcoord="CHANNEL0">
                <extra>
                  <technique profile="MAYA">
                    <wrapU sid="wrapU0">TRUE</wrapU>
                    <wrapV sid="wrapV0">TRUE</wrapV>
                    <blend_mode>NONE</blend_mode>
                  </technique>
                </extra>
              </texture>
            </diffuse>
            <specular>
              <color sid="specular">0.200000  0.200000 0.200000 1.000000</color>
            </specular>
            <shininess>
              <float sid="shininess">36.000000</float>
            </shininess>
            <reflective>
              <color sid="reflective">0.800000  0.800000 0.800000 1.000000</color>
            </reflective>
            <reflectivity>
              <float sid="reflectivity">0.000000</float>
            </reflectivity>
            <transparent opaque="RGB_ZERO">
              <color sid="transparent">0.000000  0.000000 0.000000 1.000000</color>
            </transparent>
            <transparency>
              <float sid="transparency">1.000000</float>
            </transparency>
          </phong>
        </technique>
      </profile_COMMON>
    </effect>
  </library_effects>
  <library_geometries>
    <geometry id="polySurface71-lib" name="polySurface71Mesh">
      <mesh>
        <source id="polySurface71-POSITION">
          <float_array id="polySurface71-POSITION-array" count="360">
10.170532 -0.000817 18.525076
10.322641 -0.000817 18.375206
10.017193 -0.000817 18.388912
10.190657 -0.000817 18.225317
9.892467 0.223028 18.363276
10.043927 0.231874 18.476549
10.178659 0.300165 18.315081
10.038434 0.292292 18.195595
9.826264 0.295130 18.389980
9.984528 0.317514 18.491474
10.068091 0.414484 18.360205
9.919948 0.395946 18.251987
9.417444 0.927106 18.530914
9.499918 0.939174 18.583431
9.546175 0.994927 18.510799
9.471109 0.989562 18.451286
10.216309 0.710674 18.078915
10.140721 0.702672 18.020365
10.151474 0.755035 18.113955
10.073198 0.740059 18.060532
11.494417 -0.000817 18.483185
11.711656 -0.000817 18.452133
11.442932 -0.000817 18.284920
11.644115 -0.000817 18.242191
11.588791 0.279091 18.405897
11.510591 0.228952 18.206671
11.777932 0.306011 18.338423
11.691857 0.240516 18.151278
11.556189 0.402076 18.262030
11.500364 0.349790 18.102434
11.737773 0.434082 18.178038
11.676261 0.367887 18.033207
11.591023 0.978645 17.795500
11.557467 0.945257 17.709225
11.691387 0.990291 17.765408
11.649751 0.953962 17.675011
12.126280 1.031113 18.499121
12.033359 1.013932 18.545858
12.090858 1.076029 18.406549
12.002800 1.058516 18.461805
10.336647 -0.000817 19.877644
10.516789 -0.000817 19.943836
10.370865 -0.000817 19.692331
10.590378 -0.000817 19.772552
10.258306 0.255703 19.926798
10.297799 0.257954 19.743233
10.460461 0.274902 20.000849
10.500058 0.280430 19.794231
10.197549 0.403578 19.950886
10.228528 0.361731 19.814247
10.353257 0.419604 20.018675
10.403990 0.390919 19.875248
9.917031 1.024037 19.894804
9.944321 1.007561 19.810074
9.998355 1.042848 19.933960
10.043446 1.030438 19.857582
10.369286 0.740251 19.447498
10.476006 0.768649 19.467754
10.330008 0.772165 19.502443
10.432630 0.805188 19.533817
10.755233 0.699284 19.804037
10.752742 0.713931 19.912525
10.696897 0.748633 19.845778
10.678611 0.771390 19.920855
10.452508 0.001990 19.123144
10.647533 0.001990 19.011209
10.328658 0.001990 18.974764
10.506953 0.001990 18.870052
10.473263 0.279555 19.109438
10.333072 0.246465 19.000193
10.664377 0.325530 18.955162
10.513427 0.276117 18.874430
10.377247 0.408312 19.038624
10.287416 0.376661 18.935707
10.541482 0.467082 18.929901
10.460976 0.413328 18.793327
10.110456 0.978646 18.884054
10.048183 0.945257 18.815561
10.193343 0.990291 18.819960
10.122048 0.953962 18.750517
10.748253 1.031113 19.221077
10.678285 1.013932 19.298040
10.681979 1.076029 19.147375
10.619607 1.058516 19.230545
11.564676 -0.001529 19.300604
11.405888 -0.001529 19.403782
11.692718 -0.001529 19.440708
11.496284 -0.001529 19.566259
11.609167 0.240030 19.214239
11.750237 0.231485 19.361317
11.464067 0.247541 19.333662
11.646784 0.232175 19.498520
11.653124 0.380059 19.153996
11.744886 0.331622 19.264454
11.554742 0.377190 19.243071
11.666124 0.332041 19.376839
11.948721 0.990545 18.967457
11.999383 0.974069 19.040651
11.868178 1.009356 19.008198
11.901385 0.996946 19.090443
12.052143 0.655719 19.619730
11.971158 0.684117 19.692123
12.032415 0.687632 19.555134
11.945099 0.720656 19.617516
11.595362 0.614480 19.707668
11.510758 0.629126 19.639709
11.597708 0.663829 19.635975
11.549232 0.686585 19.575800
10.772317 0.001990 18.365105
10.991786 0.001990 18.404181
10.771321 0.001990 18.171965
10.974232 0.001990 18.205597
10.897389 0.381365 18.271278
10.895789 0.369685 18.078348
11.114594 0.338967 18.311142
11.096934 0.335654 18.112595
10.899406 0.957346 17.952711
10.898966 0.954160 17.853285
11.012644 0.944302 17.972723
11.003606 0.944803 17.870522
</float_array>
          <technique_common>
            <accessor source="#polySurface71-POSITION-array" count="120" stride="3">
              <param name="X" type="float"/>
              <param name="Y" type="float"/>
              <param name="Z" type="float"/>
            </accessor>
          </technique_common>
        </source>
        <source id="polySurface71-Normal0">
          <float_array id="polySurface71-Normal0-array" count="1944">
-0.000000 -1.000000 0.000000
-0.000000 -1.000000 0.000000
-0.000000 -1.000000 0.000000
-0.000000 -1.000000 0.000000
-0.000000 -1.000000 0.000000
-0.000000 -1.000000 0.000000
-0.565499 -0.197624 -0.800722
-0.565499 -0.197624 -0.800722
-0.565499 -0.197624 -0.800722
-0.565499 -0.197624 -0.800722
-0.565499 -0.197624 -0.800722
-0.565499 -0.197624 -0.800722
0.608948 0.442748 0.658146
0.608948 0.442748 0.658146
0.608948 0.442748 0.658146
0.608948 0.442748 0.658146
0.608948 0.442748 0.658146
0.608948 0.442748 0.658146
0.680395 0.234217 -0.694410
0.680395 0.234217 -0.694410
0.680395 0.234217 -0.694410
0.680395 0.234217 -0.694410
0.680395 0.234217 -0.694410
0.680395 0.234217 -0.694410
-0.615547 -0.402337 -0.677662
-0.615547 -0.402337 -0.677662
-0.615547 -0.402337 -0.677662
-0.615547 -0.402337 -0.677662
-0.615547 -0.402337 -0.677662
-0.615547 -0.402337 -0.677662
-0.614741 -0.215153 0.758817
-0.614741 -0.215153 0.758817
-0.614741 -0.215153 0.758817
-0.614741 -0.215153 0.758817
-0.614741 -0.215153 0.758817
-0.614741 -0.215153 0.758817
0.450779 0.575959 -0.681960
0.450779 0.575959 -0.681960
0.450779 0.575959 -0.681960
0.450779 0.575959 -0.681960
0.450779 0.575959 -0.681960
0.450779 0.575959 -0.681960
-0.441836 -0.540726 0.715818
-0.441836 -0.540726 0.715818
-0.441836 -0.540726 0.715818
-0.441836 -0.540726 0.715818
-0.441836 -0.540726 0.715818
-0.441836 -0.540726 0.715818
-0.637028 -0.343036 -0.690305
-0.637028 -0.343036 -0.690305
-0.637028 -0.343036 -0.690305
-0.637028 -0.343036 -0.690305
-0.637028 -0.343036 -0.690305
-0.637028 -0.343036 -0.690305
0.647568 0.346651 0.678594
0.647568 0.346651 0.678594
0.647568 0.346651 0.678594
0.647568 0.346651 0.678594
0.647568 0.346651 0.678594
0.647568 0.346651 0.678594
-0.377289 0.834955 0.400628
-0.377289 0.834955 0.400628
-0.377289 0.834955 0.400628
-0.377289 0.834955 0.400628
-0.377289 0.834955 0.400628
-0.377289 0.834955 0.400628
-0.433342 -0.453512 0.778808
-0.433342 -0.453512 0.778808
-0.433342 -0.453512 0.778808
-0.433342 -0.453512 0.778808
-0.433342 -0.453512 0.778808
-0.433342 -0.453512 0.778808
-0.678960 -0.287607 -0.675496
-0.678960 -0.287607 -0.675496
-0.678960 -0.287607 -0.675496
-0.678960 -0.287607 -0.675496
-0.678960 -0.287607 -0.675496
-0.678960 -0.287607 -0.675496
0.622021 0.383026 0.682921
0.622021 0.383026 0.682921
0.622021 0.383026 0.682921
0.622021 0.383026 0.682921
0.622021 0.383026 0.682921
0.622021 0.383026 0.682921
0.235323 0.836412 -0.495013
0.235323 0.836412 -0.495013
0.235323 0.836412 -0.495013
0.235323 0.836412 -0.495013
0.235323 0.836412 -0.495013
0.235323 0.836412 -0.495013
-0.528652 0.579336 0.620401
-0.528652 0.579336 0.620401
-0.528652 0.579336 0.620401
-0.528652 0.579336 0.620401
-0.528652 0.579336 0.620401
-0.528652 0.579336 0.620401
0.590547 -0.439779 -0.676645
0.590547 -0.439779 -0.676645
0.590547 -0.439779 -0.676645
0.590547 -0.439779 -0.676645
0.590547 -0.439779 -0.676645
0.590547 -0.439779 -0.676645
0.630157 0.345193 0.695517
0.630157 0.345193 0.695517
0.630157 0.345193 0.695517
0.630157 0.345193 0.695517
0.630157 0.345193 0.695517
0.630157 0.345193 0.695517
0.000000 -1.000000 0.000000
0.000000 -1.000000 0.000000
0.000000 -1.000000 0.000000
0.000000 -1.000000 0.000000
0.000000 -1.000000 0.000000
0.000000 -1.000000 0.000000
0.923681 -0.171757 -0.342509
0.923681 -0.171757 -0.342509
0.923681 -0.171757 -0.342509
0.923681 -0.171757 -0.342509
0.923681 -0.171757 -0.342509
0.923681 -0.171757 -0.342509
-0.230794 -0.278258 -0.932366
-0.230794 -0.278258 -0.932366
-0.230794 -0.278258 -0.932366
-0.230794 -0.278258 -0.932366
-0.230794 -0.278258 -0.932366
-0.230794 -0.278258 -0.932366
-0.898921 0.361367 0.247701
-0.898921 0.361367 0.247701
-0.898921 0.361367 0.247701
-0.898921 0.361367 0.247701
-0.898921 0.361367 0.247701
-0.898921 0.361367 0.247701
0.212545 0.249360 0.944798
0.212545 0.249360 0.944798
0.212545 0.249360 0.944798
0.212545 0.249360 0.944798
0.212545 0.249360 0.944798
0.212545 0.249360 0.944798
0.905174 -0.300491 -0.300608
0.905174 -0.300491 -0.300608
0.905174 -0.300491 -0.300608
0.905174 -0.300491 -0.300608
0.905174 -0.300491 -0.300608
0.905174 -0.300491 -0.300608
-0.263890 -0.512732 -0.816987
-0.263890 -0.512732 -0.816987
-0.263890 -0.512732 -0.816987
-0.263890 -0.512732 -0.816987
-0.263890 -0.512732 -0.816987
-0.263890 -0.512732 -0.816987
-0.939527 0.148830 0.308446
-0.939527 0.148830 0.308446
-0.939527 0.148830 0.308446
-0.939527 0.148830 0.308446
-0.939527 0.148830 0.308446
-0.939527 0.148830 0.308446
-0.196036 -0.665465 -0.720226
-0.196036 -0.665465 -0.720226
-0.196036 -0.665465 -0.720226
-0.196036 -0.665465 -0.720226
-0.196036 -0.665465 -0.720226
-0.196036 -0.665465 -0.720226
0.837978 -0.300227 -0.455693
0.837978 -0.300227 -0.455693
0.837978 -0.300227 -0.455693
0.837978 -0.300227 -0.455693
0.837978 -0.300227 -0.455693
0.837978 -0.300227 -0.455693
-0.194918 0.937849 -0.287134
-0.194918 0.937849 -0.287134
-0.194918 0.937849 -0.287134
-0.194918 0.937849 -0.287134
-0.194918 0.937849 -0.287134
-0.194918 0.937849 -0.287134
0.218639 0.599676 0.769796
0.218639 0.599676 0.769796
0.218639 0.599676 0.769796
0.218639 0.599676 0.769796
0.218639 0.599676 0.769796
0.218639 0.599676 0.769796
0.927674 -0.166373 -0.334277
0.927674 -0.166373 -0.334277
0.927674 -0.166373 -0.334277
0.927674 -0.166373 -0.334277
0.927674 -0.166373 -0.334277
0.927674 -0.166373 -0.334277
-0.933626 0.256611 0.249986
-0.933626 0.256611 0.249986
-0.933626 0.256611 0.249986
-0.933626 0.256611 0.249986
-0.933626 0.256611 0.249986
-0.933626 0.256611 0.249986
0.069802 0.900110 0.430036
0.069802 0.900110 0.430036
0.069802 0.900110 0.430036
0.069802 0.900110 0.430036
0.069802 0.900110 0.430036
0.069802 0.900110 0.430036
-0.465062 0.522235 -0.714834
-0.465062 0.522235 -0.714834
-0.465062 0.522235 -0.714834
-0.465062 0.522235 -0.714834
-0.465062 0.522235 -0.714834
-0.465062 0.522235 -0.714834
-0.781325 0.379475 0.495510
-0.781325 0.379475 0.495510
-0.781325 0.379475 0.495510
-0.781325 0.379475 0.495510
-0.781325 0.379475 0.495510
-0.781325 0.379475 0.495510
0.397412 -0.387172 0.831962
0.397412 -0.387172 0.831962
0.397412 -0.387172 0.831962
0.397412 -0.387172 0.831962
0.397412 -0.387172 0.831962
0.397412 -0.387172 0.831962
-0.000000 -1.000000 0.000000
-0.000000 -1.000000 0.000000
-0.000000 -1.000000 0.000000
-0.000000 -1.000000 0.000000
-0.000000 -1.000000 0.000000
-0.000000 -1.000000 0.000000
0.841346 -0.525226 0.127576
0.841346 -0.525226 0.127576
0.841346 -0.525226 0.127576
0.841346 -0.525226 0.127576
0.841346 -0.525226 0.127576
0.841346 -0.525226 0.127576
0.280149 0.210637 -0.936562
0.280149 0.210637 -0.936562
0.280149 0.210637 -0.936562
0.280149 0.210637 -0.936562
0.280149 0.210637 -0.936562
0.280149 0.210637 -0.936562
-0.951113 -0.242276 -0.191536
-0.951113 -0.242276 -0.191536
-0.951113 -0.242276 -0.191536
-0.951113 -0.242276 -0.191536
-0.951113 -0.242276 -0.191536
-0.951113 -0.242276 -0.191536
-0.320655 -0.262663 0.910049
-0.320655 -0.262663 0.910049
-0.320655 -0.262663 0.910049
-0.320655 -0.262663 0.910049
-0.320655 -0.262663 0.910049
-0.320655 -0.262663 0.910049
0.936471 0.206516 0.283503
0.936471 0.206516 0.283503
0.936471 0.206516 0.283503
0.936471 0.206516 0.283503
0.936471 0.206516 0.283503
0.936471 0.206516 0.283503
0.828387 0.491174 0.269302
0.828387 0.491174 0.269302
0.828387 0.491174 0.269302
0.828387 0.491174 0.269302
0.828387 0.491174 0.269302
0.828387 0.491174 0.269302
-0.900329 -0.409447 -0.147518
-0.900329 -0.409447 -0.147518
-0.900329 -0.409447 -0.147518
-0.900329 -0.409447 -0.147518
-0.900329 -0.409447 -0.147518
-0.900329 -0.409447 -0.147518
0.827478 0.331301 0.453343
0.827478 0.331301 0.453343
0.827478 0.331301 0.453343
0.827478 0.331301 0.453343
0.827478 0.331301 0.453343
0.827478 0.331301 0.453343
-0.323080 -0.313396 0.892974
-0.323080 -0.313396 0.892974
-0.323080 -0.313396 0.892974
-0.323080 -0.313396 0.892974
-0.323080 -0.313396 0.892974
-0.323080 -0.313396 0.892974
-0.115316 0.967450 -0.225261
-0.115316 0.967450 -0.225261
-0.115316 0.967450 -0.225261
-0.115316 0.967450 -0.225261
-0.115316 0.967450 -0.225261
-0.115316 0.967450 -0.225261
-0.903229 -0.408997 -0.129992
-0.903229 -0.408997 -0.129992
-0.903229 -0.408997 -0.129992
-0.903229 -0.408997 -0.129992
-0.903229 -0.408997 -0.129992
-0.903229 -0.408997 -0.129992
0.337812 0.153674 -0.928584
0.337812 0.153674 -0.928584
0.337812 0.153674 -0.928584
0.337812 0.153674 -0.928584
0.337812 0.153674 -0.928584
0.337812 0.153674 -0.928584
-0.397022 -0.099552 0.912394
-0.397022 -0.099552 0.912394
-0.397022 -0.099552 0.912394
-0.397022 -0.099552 0.912394
-0.397022 -0.099552 0.912394
-0.397022 -0.099552 0.912394
-0.109473 0.831253 -0.545008
-0.109473 0.831253 -0.545008
-0.109473 0.831253 -0.545008
-0.109473 0.831253 -0.545008
-0.109473 0.831253 -0.545008
-0.109473 0.831253 -0.545008
0.272440 -0.528703 -0.803896
0.272440 -0.528703 -0.803896
0.272440 -0.528703 -0.803896
0.272440 -0.528703 -0.803896
0.272440 -0.528703 -0.803896
0.272440 -0.528703 -0.803896
-0.835407 -0.189302 -0.516004
-0.835407 -0.189302 -0.516004
-0.835407 -0.189302 -0.516004
-0.835407 -0.189302 -0.516004
-0.835407 -0.189302 -0.516004
-0.835407 -0.189302 -0.516004
-0.369221 0.612132 0.699264
-0.369221 0.612132 0.699264
-0.369221 0.612132 0.699264
-0.369221 0.612132 0.699264
-0.369221 0.612132 0.699264
-0.369221 0.612132 0.699264
0.603399 0.791989 -0.093077
0.603399 0.791989 -0.093077
0.603399 0.791989 -0.093077
0.603399 0.791989 -0.093077
0.603399 0.791989 -0.093077
0.603399 0.791989 -0.093077
-0.412874 0.269363 -0.870045
-0.412874 0.269363 -0.870045
-0.412874 0.269363 -0.870045
-0.412874 0.269363 -0.870045
-0.412874 0.269363 -0.870045
-0.412874 0.269363 -0.870045
-0.733042 0.573030 -0.366451
-0.733042 0.573030 -0.366451
-0.733042 0.573030 -0.366451
-0.733042 0.573030 -0.366451
-0.733042 0.573030 -0.366451
-0.733042 0.573030 -0.366451
0.211980 0.063980 0.975177
0.211980 0.063980 0.975177
0.211980 0.063980 0.975177
0.211980 0.063980 0.975177
0.211980 0.063980 0.975177
0.211980 0.063980 0.975177
0.000000 -1.000000 0.000000
0.000000 -1.000000 0.000000
0.000000 -1.000000 0.000000
0.000000 -1.000000 0.000000
0.000000 -1.000000 0.000000
0.000000 -1.000000 0.000000
0.649757 0.122464 -0.750212
0.649757 0.122464 -0.750212
0.649757 0.122464 -0.750212
0.649757 0.122464 -0.750212
0.649757 0.122464 -0.750212
0.649757 0.122464 -0.750212
-0.543137 0.059541 -0.837531
-0.543137 0.059541 -0.837531
-0.543137 0.059541 -0.837531
-0.543137 0.059541 -0.837531
-0.543137 0.059541 -0.837531
-0.543137 0.059541 -0.837531
-0.699381 0.017674 0.714531
-0.699381 0.017674 0.714531
-0.699381 0.017674 0.714531
-0.699381 0.017674 0.714531
-0.699381 0.017674 0.714531
-0.699381 0.017674 0.714531
0.561653 0.060623 0.825149
0.561653 0.060623 0.825149
0.561653 0.060623 0.825149
0.561653 0.060623 0.825149
0.561653 0.060623 0.825149
0.561653 0.060623 0.825149
0.612895 -0.091763 -0.784818
0.612895 -0.091763 -0.784818
0.612895 -0.091763 -0.784818
0.612895 -0.091763 -0.784818
0.612895 -0.091763 -0.784818
0.612895 -0.091763 -0.784818
-0.547094 -0.393685 -0.738716
-0.547094 -0.393685 -0.738716
-0.547094 -0.393685 -0.738716
-0.547094 -0.393685 -0.738716
-0.547094 -0.393685 -0.738716
-0.547094 -0.393685 -0.738716
-0.679671 0.011362 0.733429
-0.679671 0.011362 0.733429
-0.679671 0.011362 0.733429
-0.679671 0.011362 0.733429
-0.679671 0.011362 0.733429
-0.679671 0.011362 0.733429
-0.437240 -0.548462 -0.712749
-0.437240 -0.548462 -0.712749
-0.437240 -0.548462 -0.712749
-0.437240 -0.548462 -0.712749
-0.437240 -0.548462 -0.712749
-0.437240 -0.548462 -0.712749
0.593500 0.186594 -0.782905
0.593500 0.186594 -0.782905
0.593500 0.186594 -0.782905
0.593500 0.186594 -0.782905
0.593500 0.186594 -0.782905
0.593500 0.186594 -0.782905
-0.284951 0.937849 -0.198095
-0.284951 0.937849 -0.198095
-0.284951 0.937849 -0.198095
-0.284951 0.937849 -0.198095
-0.284951 0.937849 -0.198095
-0.284951 0.937849 -0.198095
0.430231 0.433464 0.791840
0.430231 0.433464 0.791840
0.430231 0.433464 0.791840
0.430231 0.433464 0.791840
0.430231 0.433464 0.791840
0.430231 0.433464 0.791840
0.677605 0.344312 -0.649847
0.677605 0.344312 -0.649847
0.677605 0.344312 -0.649847
0.677605 0.344312 -0.649847
0.677605 0.344312 -0.649847
0.677605 0.344312 -0.649847
-0.710598 -0.149902 0.687445
-0.710598 -0.149902 0.687445
-0.710598 -0.149902 0.687445
-0.710598 -0.149902 0.687445
-0.710598 -0.149902 0.687445
-0.710598 -0.149902 0.687445
0.219428 0.900109 0.376370
0.219428 0.900109 0.376370
0.219428 0.900109 0.376370
0.219428 0.900109 0.376370
0.219428 0.900109 0.376370
0.219428 0.900109 0.376370
-0.666311 0.405965 -0.625478
-0.666311 0.405965 -0.625478
-0.666311 0.405965 -0.625478
-0.666311 0.405965 -0.625478
-0.666311 0.405965 -0.625478
-0.666311 0.405965 -0.625478
-0.661670 0.007741 0.749755
-0.661670 0.007741 0.749755
-0.661670 0.007741 0.749755
-0.661670 0.007741 0.749755
-0.661670 0.007741 0.749755
-0.661670 0.007741 0.749755
0.667989 -0.342548 0.660645
0.667989 -0.342548 0.660645
0.667989 -0.342548 0.660645
0.667989 -0.342548 0.660645
0.667989 -0.342548 0.660645
0.667989 -0.342548 0.660645
0.000000 -1.000000 0.000000
0.000000 -1.000000 0.000000
0.000000 -1.000000 0.000000
0.000000 -1.000000 0.000000
0.000000 -1.000000 0.000000
0.000000 -1.000000 0.000000
-0.616616 -0.442822 0.650917
-0.616616 -0.442822 0.650917
-0.616616 -0.442822 0.650917
-0.616616 -0.442822 0.650917
-0.616616 -0.442822 0.650917
-0.616616 -0.442822 0.650917
0.657880 -0.056470 0.751003
0.657880 -0.056470 0.751003
0.657880 -0.056470 0.751003
0.657880 -0.056470 0.751003
0.657880 -0.056470 0.751003
0.657880 -0.056470 0.751003
0.672801 -0.368655 -0.641430
0.672801 -0.368655 -0.641430
0.672801 -0.368655 -0.641430
0.672801 -0.368655 -0.641430
0.672801 -0.368655 -0.641430
0.672801 -0.368655 -0.641430
-0.587909 -0.131540 -0.798161
-0.587909 -0.131540 -0.798161
-0.587909 -0.131540 -0.798161
-0.587909 -0.131540 -0.798161
-0.587909 -0.131540 -0.798161
-0.587909 -0.131540 -0.798161
-0.672327 0.456923 0.582407
-0.672327 0.456923 0.582407
-0.672327 0.456923 0.582407
-0.672327 0.456923 0.582407
-0.672327 0.456923 0.582407
-0.672327 0.456923 0.582407
-0.649871 0.503664 0.569202
-0.649871 0.503664 0.569202
-0.649871 0.503664 0.569202
-0.649871 0.503664 0.569202
-0.649871 0.503664 0.569202
-0.649871 0.503664 0.569202
0.579238 -0.509410 -0.636384
0.579238 -0.509410 -0.636384
0.579238 -0.509410 -0.636384
0.579238 -0.509410 -0.636384
0.579238 -0.509410 -0.636384
0.579238 -0.509410 -0.636384
-0.839413 0.432429 0.329229
-0.839413 0.432429 0.329229
-0.839413 0.432429 0.329229
-0.839413 0.432429 0.329229
-0.839413 0.432429 0.329229
-0.839413 0.432429 0.329229
-0.648346 -0.098578 -0.754937
-0.648346 -0.098578 -0.754937
-0.648346 -0.098578 -0.754937
-0.648346 -0.098578 -0.754937
-0.648346 -0.098578 -0.754937
-0.648346 -0.098578 -0.754937
0.248944 0.967450 0.045462
0.248944 0.967450 0.045462
0.248944 0.967450 0.045462
0.248944 0.967450 0.045462
0.248944 0.967450 0.045462
0.248944 0.967450 0.045462
0.606106 -0.475037 -0.637946
0.606106 -0.475037 -0.637946
0.606106 -0.475037 -0.637946
0.606106 -0.475037 -0.637946
0.606106 -0.475037 -0.637946
0.606106 -0.475037 -0.637946
0.678023 0.032570 0.734318
0.678023 0.032570 0.734318
0.678023 0.032570 0.734318
0.678023 0.032570 0.734318
0.678023 0.032570 0.734318
0.678023 0.032570 0.734318
-0.586459 0.012781 -0.809878
-0.586459 0.012781 -0.809878
-0.586459 0.012781 -0.809878
-0.586459 0.012781 -0.809878
-0.586459 0.012781 -0.809878
-0.586459 0.012781 -0.809878
0.499206 0.831253 0.244564
0.499206 0.831253 0.244564
0.499206 0.831253 0.244564
0.499206 0.831253 0.244564
0.499206 0.831253 0.244564
0.499206 0.831253 0.244564
0.520073 -0.654719 0.548513
0.520073 -0.654719 0.548513
0.520073 -0.654719 0.548513
0.520073 -0.654719 0.548513
0.520073 -0.654719 0.548513
0.520073 -0.654719 0.548513
0.842452 -0.345491 -0.413414
0.842452 -0.345491 -0.413414
0.842452 -0.345491 -0.413414
0.842452 -0.345491 -0.413414
0.842452 -0.345491 -0.413414
0.842452 -0.345491 -0.413414
-0.430812 0.717936 -0.546780
-0.430812 0.717936 -0.546780
-0.430812 0.717936 -0.546780
-0.430812 0.717936 -0.546780
-0.430812 0.717936 -0.546780
-0.430812 0.717936 -0.546780
-0.293092 0.791988 0.535585
-0.293092 0.791988 0.535585
-0.293092 0.791988 0.535585
-0.293092 0.791988 0.535585
-0.293092 0.791988 0.535585
-0.293092 0.791988 0.535585
0.985490 0.061691 0.158123
0.985490 0.061691 0.158123
0.985490 0.061691 0.158123
0.985490 0.061691 0.158123
0.985490 0.061691 0.158123
0.985490 0.061691 0.158123
0.747561 0.494996 -0.442867
0.747561 0.494996 -0.442867
0.747561 0.494996 -0.442867
0.747561 0.494996 -0.442867
0.747561 0.494996 -0.442867
0.747561 0.494996 -0.442867
-0.882489 0.346554 -0.317983
-0.882489 0.346554 -0.317983
-0.882489 0.346554 -0.317983
-0.882489 0.346554 -0.317983
-0.882489 0.346554 -0.317983
-0.882489 0.346554 -0.317983
0.000000 -1.000000 0.000000
0.000000 -1.000000 0.000000
0.000000 -1.000000 0.000000
0.000000 -1.000000 0.000000
0.000000 -1.000000 0.000000
0.000000 -1.000000 0.000000
0.105918 -0.355448 -0.928676
0.105918 -0.355448 -0.928676
0.105918 -0.355448 -0.928676
0.105918 -0.355448 -0.928676
0.105918 -0.355448 -0.928676
0.105918 -0.355448 -0.928676
0.928787 -0.362022 -0.079336
0.928787 -0.362022 -0.079336
0.928787 -0.362022 -0.079336
0.928787 -0.362022 -0.079336
0.928787 -0.362022 -0.079336
0.928787 -0.362022 -0.079336
-0.948721 0.316097 -0.003187
-0.948721 0.316097 -0.003187
-0.948721 0.316097 -0.003187
-0.948721 0.316097 -0.003187
-0.948721 0.316097 -0.003187
-0.948721 0.316097 -0.003187
0.133609 -0.298531 -0.945001
0.133609 -0.298531 -0.945001
0.133609 -0.298531 -0.945001
0.133609 -0.298531 -0.945001
0.133609 -0.298531 -0.945001
0.133609 -0.298531 -0.945001
-0.142078 0.295592 0.944690
-0.142078 0.295592 0.944690
-0.142078 0.295592 0.944690
-0.142078 0.295592 0.944690
-0.142078 0.295592 0.944690
-0.142078 0.295592 0.944690
0.105333 0.994271 -0.018192
0.105333 0.994271 -0.018192
0.105333 0.994271 -0.018192
0.105333 0.994271 -0.018192
0.105333 0.994271 -0.018192
0.105333 0.994271 -0.018192
-0.077926 0.479517 0.874066
-0.077926 0.479517 0.874066
-0.077926 0.479517 0.874066
-0.077926 0.479517 0.874066
-0.077926 0.479517 0.874066
-0.077926 0.479517 0.874066
0.989197 0.116560 -0.088905
0.989197 0.116560 -0.088905
0.989197 0.116560 -0.088905
0.989197 0.116560 -0.088905
0.989197 0.116560 -0.088905
0.989197 0.116560 -0.088905
-0.999950 0.007564 0.006594
-0.999950 0.007564 0.006594
-0.999950 0.007564 0.006594
-0.999950 0.007564 0.006594
-0.999950 0.007564 0.006594
-0.999950 0.007564 0.006594
</float_array>
          <technique_common>
            <accessor source="#polySurface71-Normal0-array" count="648" stride="3">
              <param name="X" type="float"/>
              <param name="Y" type="float"/>
              <param name="Z" type="float"/>
            </accessor>
          </technique_common>
        </source>
        <source id="polySurface71-UV0">
          <float_array id="polySurface71-UV0-array" count="240">
0.436728 0.512650
0.434896 0.512650
0.442649 0.512650
0.443642 0.512650
0.438944 0.627220
0.434639 0.667850
0.442327 0.802733
0.444925 0.788079
0.440710 0.630306
0.434073 0.603538
0.431883 0.600070
0.436826 0.675116
0.418583 0.900531
0.419608 0.902635
0.432153 0.637106
0.429563 0.628333
0.417022 0.880781
0.415666 0.876050
0.445981 0.791215
0.443550 0.808604
0.458761 0.512650
0.459219 0.512650
0.465980 0.512650
0.465904 0.512650
0.469173 0.632597
0.468429 0.606926
0.469175 0.656852
0.469590 0.682798
0.462161 0.602392
0.462531 0.622046
0.462930 0.649758
0.468835 0.883165
0.472089 0.886578
0.463013 0.670253
0.478281 0.934425
0.478424 0.916819
0.468986 0.896253
0.472450 0.900818
0.475019 0.910084
0.474939 0.927560
0.442621 0.512650
0.442315 0.512650
0.449992 0.512650
0.448923 0.512650
0.447543 0.620404
0.447249 0.622570
0.455539 0.786750
0.456283 0.792492
0.440349 0.613761
0.440472 0.612879
0.444226 0.677123
0.444771 0.665879
0.433028 0.916554
0.432156 0.921419
0.438698 0.670842
0.438658 0.654438
0.443995 0.813940
0.443100 0.828262
0.429240 0.914046
0.429476 0.907587
0.440405 0.802809
0.439558 0.815318
0.453978 0.806094
0.453959 0.815014
0.458761 0.512650
0.459219 0.512650
0.465980 0.512650
0.465904 0.512650
0.469173 0.632597
0.468429 0.606926
0.469175 0.656852
0.469590 0.682798
0.462161 0.602392
0.462531 0.622046
0.462930 0.649758
0.468835 0.883165
0.472089 0.886578
0.463013 0.670253
0.478281 0.934425
0.478424 0.916819
0.468986 0.896253
0.472450 0.900818
0.475019 0.910084
0.474939 0.927560
0.442621 0.512650
0.442315 0.512650
0.449992 0.512650
0.448923 0.512650
0.447543 0.620404
0.447249 0.622570
0.455539 0.786750
0.456283 0.792492
0.440349 0.613761
0.440472 0.612879
0.444226 0.677123
0.444771 0.665879
0.433028 0.916554
0.432156 0.921419
0.438698 0.670842
0.438658 0.654438
0.443995 0.813940
0.443100 0.828262
0.429240 0.914046
0.429476 0.907587
0.440405 0.802809
0.439558 0.815318
0.453978 0.806094
0.453959 0.815014
0.462491 0.547440
0.462453 0.544021
0.470226 0.534010
0.470899 0.534042
0.467221 0.706420
0.467343 0.971740
0.471352 0.967493
0.474927 0.690972
0.475604 0.692476
0.467283 0.711723
0.467360 0.973186
0.471698 0.967265
</float_array>
          <technique_common>
            <accessor source="#polySurface71-UV0-array" count="120" stride="2">
              <param name="S" type="float"/>
              <param name="T" type="float"/>
            </accessor>
          </technique_common>
        </source>
        <vertices id="polySurface71-VERTEX">
          <input semantic="POSITION" source="#polySurface71-POSITION"/>
        </vertices>
        <triangles count="216" material="AllColors_Material">
          <input semantic="VERTEX" offset="0" source="#polySurface71-VERTEX"/>
          <input semantic="NORMAL" offset="1" source="#polySurface71-Normal0"/>
          <input semantic="TEXCOORD" offset="2" set="0" source="#polySurface71-UV0"/>
          <p> 0 0 0 3 1 2 1 2 3 3 3 2 0 4 0 2 5 1 17 6 7 11 7 5 19 8 6 11 9 5 17 10 7 7 11 4 5 12 9 0 13 0 6 14 8 0 15 0 1 16 3 6 17 8 3 18 2 6 19 8 1 20 3 6 21 8 3 22 2 7 23 4 2 24 1 7 25 4 3 26 2 7 27 4 2 28 1 4 29 10 4 30 10 2 31 1 5 32 9 2 33 1 0 34 0 5 35 9 11 36 5 14 37 13 10 38 11 14 39 13 11 40 5 15 41 12 9 42 14 8 43 15 4 44 10 4 45 10 5 46 9 9 47 14 11 48 5 4 49 10 8 50 15 4 51 10 11 52 5 7 53 4 5 54 9 6 55 8 10 56 11 5 57 9 10 58 11 9 59 14 12 60 17 14 61 13 15 62 12 14 63 13 12 64 17 13 65 16 9 66 14 13 67 16 8 68 15 12 69 17 8 70 15 13 71 16 8 72 15 12 73 17 11 74 5 11 75 5 12 76 17 15 77 12 10 78 11 13 79 16 9 80 14 13 81 16 10 82 11 14 83 13 17 84 7 18 85 19 16 86 18 18 87 19 17 88 7 19 89 6 19 90 6 10 91 11 18 92 19 10 93 11 19 94 6 11 95 5 7 96 4 17 97 7 6 98 8 6 99 8 17 100 7 16 101 18 18 102 19 10 103 11 16 104 18 16 105 18 10 106 11 6 107 8 21 108 23 20 109 20 23 110 22 20 111 20 22 112 21 23 113 22 30 114 27 27 115 25 31 116 26 27 117 25 30 118 27 26 119 24 22 120 21 25 121 28 23 122 22 23 123 22 25 124 28 27 125 25 24 126 29 22 127 21 20 128 20 22 129 21 24 130 29 25 131 28 24 132 29 21 133 23 26 134 24 21 135 23 24 136 29 20 137 20 26 138 24 23 139 22 27 140 25 23 141 22 26 142 24 21 143 23 29 144 30 33 145 31 31 146 26 31 147 26 33 148 31 35 149 32 28 150 33 29 151 30 25 152 28 25 153 28 24 154 29 28 155 33 25 156 28 31 157 26 27 158 25 31 159 26 25 160 28 29 161 30 30 162 27 36 163 35 26 164 24 36 165 35 30 166 27 38 167 34 35 168 32 32 169 36 34 170 37 32 171 36 35 172 32 33 173 31 32 174 36 30 175 27 34 176 37 30 177 27 32 178 36 28 179 33 34 180 37 31 181 26 35 182 32 31 183 26 34 184 37 30 185 27 33 186 31 29 187 30 32 188 36 29 189 30 28 190 33 32 191 36 36 192 35 39 193 39 37 194 38 39 195 39 36 196 35 38 197 34 28 198 33 39 199 39 30 200 27 30 201 27 39 202 39 38 203 34 24 204 29 37 205 38 28 206 33 28 207 33 37 208 38 39 209 39 37 210 38 26 211 24 36 212 35 26 213 24 37 214 38 24 215 29 42 216 41 43 217 42 40 218 40 40 219 40 43 220 42 41 221 43 47 222 45 61 223 47 46 224 44 61 225 47 47 226 45 60 227 46 42 228 41 47 229 45 43 230 42 47 231 45 42 232 41 45 233 48 40 234 40 45 235 48 42 236 41 45 237 48 40 238 40 44 239 49 44 240 49 40 241 40 46 242 44 40 243 40 41 244 43 46 245 44 43 246 42 47 247 45 41 248 43 46 249 44 41 250 43 47 251 45 51 252 51 55 253 52 50 254 50 54 255 53 50 256 50 55 257 52 44 258 49 49 259 55 45 260 48 49 261 55 44 262 49 48 263 54 57 264 56 51 265 51 47 266 45 59 267 57 51 268 51 57 269 56 48 270 54 44 271 49 50 272 50 44 273 49 46 274 44 50 275 50 53 276 59 52 277 58 55 278 52 52 279 58 54 280 53 55 281 52 53 282 59 48 283 54 52 284 58 48 285 54 53 286 59 49 287 55 49 288 55 55 289 52 51 290 51 55 291 52 49 292 55 53 293 59 50 294 50 54 295 53 48 296 54 52 297 58 48 298 54 54 299 53 59 300 57 56 301 60 58 302 61 56 303 60 59 304 57 57 305 56 45 306 48 56 307 60 47 308 45 47 309 45 56 310 60 57 311 56 56 312 60 49 313 55 58 314 61 49 315 55 56 316 60 45 317 48 58 318 61 51 319 51 59 320 57 51 321 51 58 322 61 49 323 55 63 324 63 61 325 47 62 326 62 61 327 47 60 328 46 62 329 62 60 330 46 51 331 51 62 332 62 51 333 51 60 334 46 47 335 45 50 336 50 62 337 62 51 338 51 62 339 62 50 340 50 63 341 63 61 342 47 50 343 50 46 344 44 50 345 50 61 346 47 63 347 63 67 348 66 65 349 67 64 350 64 67 351 66 64 352 64 66 353 65 74 354 71 71 355 69 75 356 70 71 357 69 74 358 71 70 359 68 66 360 65 69 361 72 67 362 66 67 363 66 69 364 72 71 365 69 69 366 72 64 367 64 68 368 73 64 369 64 69 370 72 66 371 65 68 372 73 65 373 67 70 374 68 65 375 67 68 376 73 64 377 64 67 378 66 71 379 69 65 380 67 65 381 67 71 382 69 70 383 68 73 384 74 79 385 76 75 386 70 79 387 76 73 388 74 77 389 75 73 390 74 69 391 72 72 392 77 69 393 72 68 394 73 72 395 77 69 396 72 75 397 70 71 398 69 75 399 70 69 400 72 73 401 74 80 402 79 74 403 71 82 404 78 74 405 71 80 406 79 70 407 68 76 408 80 79 409 76 77 410 75 79 411 76 76 412 80 78 413 81 74 414 71 78 415 81 72 416 77 76 417 80 72 418 77 78 419 81 75 420 70 79 421 76 74 422 71 78 423 81 74 424 71 79 425 76 77 426 75 72 427 77 76 428 80 72 429 77 77 430 75 73 431 74 83 432 83 80 433 79 82 434 78 80 435 79 83 436 83 81 437 82 72 438 77 83 439 83 74 440 71 74 441 71 83 442 83 82 443 78 83 444 83 72 445 77 81 446 82 68 447 73 81 448 82 72 449 77 70 450 68 80 451 79 68 452 73 81 453 82 68 454 73 80 455 79 86 456 85 87 457 86 84 458 84 84 459 84 87 460 86 85 461 87 105 462 91 90 463 88 104 464 90 90 465 88 91 466 89 104 467 90 91 468 89 86 469 85 89 470 92 86 471 85 91 472 89 87 473 86 89 474 92 84 475 84 88 476 93 84 477 84 89 478 92 86 479 85 85 480 87 90 481 88 84 482 84 84 483 84 90 484 88 88 485 93 91 486 89 85 487 87 87 488 86 85 489 87 91 490 89 90 491 88 99 492 96 94 493 94 95 494 95 98 495 97 94 496 94 99 497 96 88 498 93 93 499 99 89 500 92 93 501 99 88 502 93 92 503 98 91 504 89 101 505 100 95 506 95 95 507 95 101 508 100 103 509 101 90 510 88 94 511 94 88 512 93 88 513 93 94 514 94 92 515 98 97 516 103 96 517 102 99 518 96 96 519 102 98 520 97 99 521 96 96 522 102 93 523 99 92 524 98 93 525 99 96 526 102 97 527 103 99 528 96 93 529 99 97 530 103 93 531 99 99 532 96 95 533 95 94 534 94 98 535 97 92 536 98 92 537 98 98 538 97 96 539 102 103 540 101 100 541 104 102 542 105 100 543 104 103 544 101 101 545 100 89 546 92 101 547 100 91 548 89 101 549 100 89 550 92 100 551 104 93 552 99 100 553 104 89 554 92 100 555 104 93 556 99 102 557 105 95 558 95 103 559 101 93 560 99 102 561 105 93 562 99 103 563 101 107 564 107 105 565 91 106 566 106 105 567 91 104 568 90 106 569 106 95 570 95 104 571 90 91 572 89 104 573 90 95 574 95 106 575 106 94 576 94 107 577 107 95 578 95 95 579 95 107 580 107 106 581 106 90 582 88 105 583 91 94 584 94 94 585 94 105 586 91 107 587 107 109 588 111 108 589 108 111 590 110 108 591 108 110 592 109 111 593 110 119 594 114 115 595 115 113 596 112 113 597 112 117 598 113 119 599 114 114 600 116 109 601 111 111 602 110 114 603 116 111 604 110 115 605 115 112 606 117 110 607 109 108 608 108 110 609 109 112 610 117 113 611 112 113 612 112 111 613 110 110 614 109 111 615 110 113 616 112 115 617 115 112 618 117 109 619 111 114 620 116 109 621 111 112 622 117 108 623 108 118 624 119 119 625 114 116 626 118 116 627 118 119 628 114 117 629 113 112 630 117 118 631 119 116 632 118 118 633 119 112 634 117 114 635 116 118 636 119 114 637 116 115 638 115 118 639 119 115 640 115 119 641 114 116 642 118 113 643 112 112 644 117 113 645 112 116 646 118 117 647 113</p>
        </triangles>
      </mesh>
    </geometry>
    <geometry id="polySurface77-lib" name="polySurface77Mesh">
      <mesh>
        <source id="polySurface77-POSITION">
          <float_array id="polySurface77-POSITION-array" count="291">
0.191570 -0.191365 5.471475
2.119594 1.696636 1.402079
2.633475 -1.107561 1.325516
-0.667967 -2.020167 1.269591
-3.473378 0.535710 2.390610
2.238406 2.329761 3.393568
0.906044 3.503579 2.915564
-0.386628 3.449940 4.454047
-1.224130 -0.484070 5.113215
1.612886 -0.049956 1.125771
-3.109404 0.821183 1.526599
-2.949109 2.238411 2.348750
0.577735 2.879707 1.785531
1.312815 2.764667 4.243943
-1.651812 -1.970807 1.622823
1.761919 0.509879 4.435066
0.240693 -2.763475 3.780740
-1.121019 2.148525 5.399732
0.263606 2.430506 5.330729
-0.297046 -2.846407 4.300740
0.130097 0.280575 1.746836
0.950870 1.300082 0.804948
-3.193813 -0.634319 0.817121
2.093390 -1.659425 1.270299
1.209532 -2.298356 1.300378
-1.756782 2.402469 2.377783
1.773099 2.379960 3.869845
2.395422 -0.782994 4.335533
0.019936 -2.928798 2.772034
0.833029 -2.759012 2.638794
-2.835660 -0.537557 4.592405
-3.216726 0.834672 4.105993
-1.214423 2.617356 3.961446
-0.969968 0.384747 5.332160
0.054394 0.971906 6.070592
-1.239612 -1.615023 4.840328
-2.481642 -1.258717 4.837484
0.701414 -1.701410 4.276377
0.795409 1.165807 5.671640
1.084018 2.391637 5.467849
-0.255699 1.668431 5.608791
-1.994801 -2.646839 3.077149
-1.194199 -2.280319 2.339085
-1.034375 -3.266898 3.240509
1.112267 -2.185293 3.659639
1.601521 -1.851429 2.216477
1.673286 -2.183305 3.161685
1.796975 -1.003394 4.423786
-1.627546 1.986443 4.016497
-3.096860 1.036709 3.214608
0.460442 -2.825557 2.557224
2.245083 -0.023794 4.133224
2.862283 -0.362525 3.602400
3.017826 1.033588 2.931719
2.103615 2.189975 1.881858
-0.191639 3.047913 2.112730
-3.438701 -0.694436 2.988130
-3.953265 -0.431920 2.158060
0.190376 -0.366958 1.333559
1.541694 -1.410623 0.727891
2.860708 -0.577662 2.065951
3.009130 1.282522 1.745982
1.311897 1.432354 1.177100
-0.881648 -0.795385 1.151608
-1.575693 0.737101 1.143885
0.866229 2.011376 1.160020
-0.765679 1.876490 1.300030
-2.201579 1.586062 1.447492
2.504879 -1.435420 2.544411
1.509886 2.731551 2.259191
2.584193 1.585340 3.385556
-2.671427 -1.780097 1.628073
-1.839377 1.412121 5.051527
1.119732 0.812881 4.805748
-0.506356 -1.050827 5.210087
0.283966 -1.039684 5.598604
0.823326 -1.084998 5.103974
1.119083 -0.487737 5.409943
-2.041594 0.319135 5.405567
-2.990947 -1.907671 3.619817
2.255221 1.176134 4.453530
2.231582 1.703763 4.270242
1.685013 1.999987 4.474205
0.408377 3.419680 4.435353
-2.787607 1.634137 3.583403
0.808688 -2.450689 2.044269
2.716804 2.073602 3.375723
-0.726316 3.023191 3.773869
-1.166255 2.713453 1.904983
-3.174495 -1.657010 2.299987
0.224696 -1.134045 2.008176
2.755351 0.132564 1.443133
2.524259 1.667771 2.389235
-2.263769 -0.059293 0.767882
-0.338903 0.571831 1.098984
0.342592 2.775587 1.289261
-0.448508 2.569793 1.595317
</float_array>
          <technique_common>
            <accessor source="#polySurface77-POSITION-array" count="97" stride="3">
              <param name="X" type="float"/>
              <param name="Y" type="float"/>
              <param name="Z" type="float"/>
            </accessor>
          </technique_common>
        </source>
        <source id="polySurface77-Normal0">
          <float_array id="polySurface77-Normal0-array" count="1710">
0.572351 0.419753 -0.704430
0.572351 0.419753 -0.704430
0.572351 0.419753 -0.704430
-0.218182 0.782853 -0.582699
-0.218182 0.782853 -0.582699
-0.218182 0.782853 -0.582699
-0.229491 0.173324 -0.957754
-0.229491 0.173324 -0.957754
-0.229491 0.173324 -0.957754
0.678690 0.162611 -0.716196
0.678690 0.162611 -0.716196
0.678690 0.162611 -0.716196
0.255176 0.078427 -0.963709
0.255176 0.078427 -0.963709
0.255176 0.078427 -0.963709
0.257240 0.066155 -0.964081
0.257240 0.066155 -0.964081
0.257240 0.066155 -0.964081
-0.234211 0.507448 -0.829242
-0.234211 0.507448 -0.829242
-0.234211 0.507448 -0.829242
0.415652 0.235168 -0.878595
0.415652 0.235168 -0.878595
0.415652 0.235168 -0.878595
-0.090499 0.769583 -0.632102
-0.090499 0.769583 -0.632102
-0.090499 0.769583 -0.632102
0.381116 0.772115 -0.508517
0.381116 0.772115 -0.508517
0.381116 0.772115 -0.508517
-0.108898 0.756440 -0.644934
-0.108898 0.756440 -0.644934
-0.108898 0.756440 -0.644934
0.251064 0.963283 0.095146
0.251064 0.963283 0.095146
0.251064 0.963283 0.095146
0.860730 0.389210 -0.328116
0.860730 0.389210 -0.328116
0.860730 0.389210 -0.328116
-0.340755 -0.148871 -0.928290
-0.340755 -0.148871 -0.928290
-0.340755 -0.148871 -0.928290
0.388809 0.754107 -0.529292
0.388809 0.754107 -0.529292
0.388809 0.754107 -0.529292
0.746496 -0.609236 0.267537
0.746496 -0.609236 0.267537
0.746496 -0.609236 0.267537
-0.439120 -0.892270 -0.105019
-0.439120 -0.892270 -0.105019
-0.439120 -0.892270 -0.105019
-0.524447 -0.815977 -0.243180
-0.524447 -0.815977 -0.243180
-0.524447 -0.815977 -0.243180
-0.804718 0.547050 0.230578
-0.804718 0.547050 0.230578
-0.804718 0.547050 0.230578
0.042878 0.667009 0.743815
0.042878 0.667009 0.743815
0.042878 0.667009 0.743815
0.585485 0.341303 0.735336
0.585485 0.341303 0.735336
0.585485 0.341303 0.735336
0.191172 0.413455 0.890229
0.191172 0.413455 0.890229
0.191172 0.413455 0.890229
0.248563 -0.963076 0.103446
0.248563 -0.963076 0.103446
0.248563 -0.963076 0.103446
0.628196 -0.535795 0.564175
0.628196 -0.535795 0.564175
0.628196 -0.535795 0.564175
-0.290191 -0.788834 0.541784
-0.290191 -0.788834 0.541784
-0.290191 -0.788834 0.541784
-0.839613 -0.247919 0.483307
-0.839613 -0.247919 0.483307
-0.839613 -0.247919 0.483307
-0.069093 -0.233103 0.969994
-0.069093 -0.233103 0.969994
-0.069093 -0.233103 0.969994
0.174080 -0.687981 0.704542
0.174080 -0.687981 0.704542
0.174080 -0.687981 0.704542
-0.221338 -0.114788 0.968418
-0.221338 -0.114788 0.968418
-0.221338 -0.114788 0.968418
-0.435492 -0.761509 0.480052
-0.435492 -0.761509 0.480052
-0.435492 -0.761509 0.480052
0.264124 -0.210293 0.941284
0.264124 -0.210293 0.941284
0.264124 -0.210293 0.941284
-0.504101 -0.623325 0.597786
-0.504101 -0.623325 0.597786
-0.504101 -0.623325 0.597786
-0.180926 -0.901177 0.393885
-0.180926 -0.901177 0.393885
-0.180926 -0.901177 0.393885
0.116020 0.159551 0.980348
0.116020 0.159551 0.980348
0.116020 0.159551 0.980348
0.415131 -0.757854 0.503313
0.415131 -0.757854 0.503313
0.415131 -0.757854 0.503313
0.827627 0.014990 0.561079
0.827627 0.014990 0.561079
0.827627 0.014990 0.561079
0.782539 -0.416433 0.462836
0.782539 -0.416433 0.462836
0.782539 -0.416433 0.462836
0.853758 -0.284814 0.435865
0.853758 -0.284814 0.435865
0.853758 -0.284814 0.435865
0.359140 0.380710 0.852103
0.359140 0.380710 0.852103
0.359140 0.380710 0.852103
-0.152539 0.196921 0.968480
-0.152539 0.196921 0.968480
-0.152539 0.196921 0.968480
0.831976 -0.105321 0.544724
0.831976 -0.105321 0.544724
0.831976 -0.105321 0.544724
0.818196 0.489201 0.302056
0.818196 0.489201 0.302056
0.818196 0.489201 0.302056
-0.328307 -0.462802 0.823425
-0.328307 -0.462802 0.823425
-0.328307 -0.462802 0.823425
-0.086721 0.617196 0.782016
-0.086721 0.617196 0.782016
-0.086721 0.617196 0.782016
-0.265548 -0.059607 0.962253
-0.265548 -0.059607 0.962253
-0.265548 -0.059607 0.962253
-0.756268 0.605991 0.246645
-0.756268 0.605991 0.246645
-0.756268 0.605991 0.246645
-0.378085 -0.067752 0.923288
-0.378085 -0.067752 0.923288
-0.378085 -0.067752 0.923288
0.082081 -0.266051 0.960458
0.082081 -0.266051 0.960458
0.082081 -0.266051 0.960458
0.046903 0.299953 0.952800
0.046903 0.299953 0.952800
0.046903 0.299953 0.952800
-0.625107 0.342797 0.701236
-0.625107 0.342797 0.701236
-0.625107 0.342797 0.701236
-0.733969 0.036577 0.678197
-0.733969 0.036577 0.678197
-0.733969 0.036577 0.678197
-0.316142 -0.667337 -0.674326
-0.316142 -0.667337 -0.674326
-0.316142 -0.667337 -0.674326
-0.104407 -0.680007 -0.725734
-0.104407 -0.680007 -0.725734
-0.104407 -0.680007 -0.725734
0.451671 -0.530643 0.717224
0.451671 -0.530643 0.717224
0.451671 -0.530643 0.717224
0.554195 -0.832250 0.015117
0.554195 -0.832250 0.015117
0.554195 -0.832250 0.015117
0.349851 -0.701189 0.621239
0.349851 -0.701189 0.621239
0.349851 -0.701189 0.621239
0.249320 0.148545 0.956961
0.249320 0.148545 0.956961
0.249320 0.148545 0.956961
0.565664 0.669017 0.482121
0.565664 0.669017 0.482121
0.565664 0.669017 0.482121
0.549388 0.668962 0.500663
0.549388 0.668962 0.500663
0.549388 0.668962 0.500663
0.708046 0.686594 0.165103
0.708046 0.686594 0.165103
0.708046 0.686594 0.165103
0.602225 0.761634 0.239249
0.602225 0.761634 0.239249
0.602225 0.761634 0.239249
-0.212291 0.954785 -0.208131
-0.212291 0.954785 -0.208131
-0.212291 0.954785 -0.208131
-0.915148 0.345107 0.208339
-0.915148 0.345107 0.208339
-0.915148 0.345107 0.208339
-0.884618 0.466127 -0.013306
-0.884618 0.466127 -0.013306
-0.884618 0.466127 -0.013306
-0.815751 0.578010 0.021313
-0.815751 0.578010 0.021313
-0.815751 0.578010 0.021313
-0.924010 -0.129007 0.359947
-0.924010 -0.129007 0.359947
-0.924010 -0.129007 0.359947
-0.136851 -0.953376 -0.268974
-0.136851 -0.953376 -0.268974
-0.136851 -0.953376 -0.268974
0.576189 -0.804208 0.145794
0.576189 -0.804208 0.145794
0.576189 -0.804208 0.145794
0.608277 -0.694157 -0.384896
0.608277 -0.694157 -0.384896
0.608277 -0.694157 -0.384896
0.711940 0.309019 0.630594
0.711940 0.309019 0.630594
0.711940 0.309019 0.630594
0.300927 -0.248325 0.920749
0.300927 -0.248325 0.920749
0.300927 -0.248325 0.920749
0.828195 -0.508418 0.235806
0.828195 -0.508418 0.235806
0.828195 -0.508418 0.235806
0.705542 0.241461 0.666263
0.705542 0.241461 0.666263
0.705542 0.241461 0.666263
0.785250 0.117026 0.608019
0.785250 0.117026 0.608019
0.785250 0.117026 0.608019
0.510567 0.750443 0.419711
0.510567 0.750443 0.419711
0.510567 0.750443 0.419711
-0.810917 0.548725 0.203259
-0.810917 0.548725 0.203259
-0.810917 0.548725 0.203259
-0.612147 0.783972 0.103266
-0.612147 0.783972 0.103266
-0.612147 0.783972 0.103266
-0.734223 0.639904 -0.226804
-0.734223 0.639904 -0.226804
-0.734223 0.639904 -0.226804
-0.947353 -0.311871 0.072518
-0.947353 -0.311871 0.072518
-0.947353 -0.311871 0.072518
-0.989188 0.040570 0.140929
-0.989188 0.040570 0.140929
-0.989188 0.040570 0.140929
-0.730721 0.479239 -0.486185
-0.730721 0.479239 -0.486185
-0.730721 0.479239 -0.486185
-0.808020 -0.472944 0.351323
-0.808020 -0.472944 0.351323
-0.808020 -0.472944 0.351323
-0.117937 -0.608945 -0.784396
-0.117937 -0.608945 -0.784396
-0.117937 -0.608945 -0.784396
-0.649594 -0.518269 -0.556260
-0.649594 -0.518269 -0.556260
-0.649594 -0.518269 -0.556260
0.362442 -0.606298 -0.707841
0.362442 -0.606298 -0.707841
0.362442 -0.606298 -0.707841
-0.343345 0.780868 -0.521880
-0.343345 0.780868 -0.521880
-0.343345 0.780868 -0.521880
0.522160 -0.437783 -0.731912
0.522160 -0.437783 -0.731912
0.522160 -0.437783 -0.731912
0.583152 -0.800069 0.140796
0.583152 -0.800069 0.140796
0.583152 -0.800069 0.140796
-0.063701 -0.523921 -0.849382
-0.063701 -0.523921 -0.849382
-0.063701 -0.523921 -0.849382
0.966776 -0.071742 -0.245352
0.966776 -0.071742 -0.245352
0.966776 -0.071742 -0.245352
0.414800 0.145028 -0.898280
0.414800 0.145028 -0.898280
0.414800 0.145028 -0.898280
0.943613 -0.127817 -0.305380
0.943613 -0.127817 -0.305380
0.943613 -0.127817 -0.305380
0.721381 0.678808 0.137218
0.721381 0.678808 0.137218
0.721381 0.678808 0.137218
0.865868 0.362915 -0.344333
0.865868 0.362915 -0.344333
0.865868 0.362915 -0.344333
-0.311272 0.430921 -0.847005
-0.311272 0.430921 -0.847005
-0.311272 0.430921 -0.847005
0.100372 -0.426186 -0.899050
0.100372 -0.426186 -0.899050
0.100372 -0.426186 -0.899050
-0.175719 0.540336 -0.822898
-0.175719 0.540336 -0.822898
-0.175719 0.540336 -0.822898
-0.400359 0.370697 -0.838031
-0.400359 0.370697 -0.838031
-0.400359 0.370697 -0.838031
0.443460 0.316592 -0.838518
0.443460 0.316592 -0.838518
0.443460 0.316592 -0.838518
-0.276453 0.958467 -0.070100
-0.276453 0.958467 -0.070100
-0.276453 0.958467 -0.070100
0.700209 0.555605 -0.448341
0.700209 0.555605 -0.448341
0.700209 0.555605 -0.448341
-0.093504 0.103397 -0.990235
-0.093504 0.103397 -0.990235
-0.093504 0.103397 -0.990235
-0.422527 0.511868 -0.747972
-0.422527 0.511868 -0.747972
-0.422527 0.511868 -0.747972
-0.954978 0.294850 0.032871
-0.954978 0.294850 0.032871
-0.954978 0.294850 0.032871
-0.954978 0.294850 0.032871
-0.954978 0.294850 0.032871
-0.954978 0.294850 0.032871
-0.428536 -0.402385 -0.808977
-0.428536 -0.402385 -0.808977
-0.428536 -0.402385 -0.808977
-0.146337 0.235697 -0.960746
-0.146337 0.235697 -0.960746
-0.146337 0.235697 -0.960746
0.242220 0.082658 -0.966694
0.242220 0.082658 -0.966694
0.242220 0.082658 -0.966694
-0.200362 0.284614 -0.937470
-0.200362 0.284614 -0.937470
-0.200362 0.284614 -0.937470
-0.470505 0.481992 -0.739127
-0.470505 0.481992 -0.739127
-0.470505 0.481992 -0.739127
0.865444 0.380798 -0.325576
0.865444 0.380798 -0.325576
0.865444 0.380798 -0.325576
0.499441 -0.570747 -0.651772
0.499441 -0.570747 -0.651772
0.499441 -0.570747 -0.651772
0.931992 -0.359108 0.049328
0.931992 -0.359108 0.049328
0.931992 -0.359108 0.049328
-0.201160 -0.876263 -0.437834
-0.201160 -0.876263 -0.437834
-0.201160 -0.876263 -0.437834
0.757398 0.345855 0.553835
0.757398 0.345855 0.553835
0.757398 0.345855 0.553835
0.757398 0.345855 0.553835
0.757398 0.345855 0.553835
0.757398 0.345855 0.553835
-0.137908 0.957343 0.253920
-0.137908 0.957343 0.253920
-0.137908 0.957343 0.253920
0.615972 -0.151730 0.773018
0.615972 -0.151730 0.773018
0.615972 -0.151730 0.773018
0.326290 0.767970 0.551141
0.326290 0.767970 0.551141
0.326290 0.767970 0.551141
0.326290 0.767970 0.551141
0.326290 0.767970 0.551141
0.326290 0.767970 0.551141
0.489910 -0.810251 -0.321687
0.489910 -0.810251 -0.321687
0.489910 -0.810251 -0.321687
-0.177252 -0.939607 -0.292780
-0.177252 -0.939607 -0.292780
-0.177252 -0.939607 -0.292780
-0.056818 -0.868277 -0.492815
-0.056818 -0.868277 -0.492815
-0.056818 -0.868277 -0.492815
-0.746894 0.634415 0.199167
-0.746894 0.634415 0.199167
-0.746894 0.634415 0.199167
0.564945 -0.825128 0.000638
0.564945 -0.825128 0.000638
0.564945 -0.825128 0.000638
0.564945 -0.825128 0.000638
0.564945 -0.825128 0.000638
0.564945 -0.825128 0.000638
-0.298999 -0.219958 0.928557
-0.298999 -0.219958 0.928557
-0.298999 -0.219958 0.928557
-0.141437 -0.486145 0.862357
-0.141437 -0.486145 0.862357
-0.141437 -0.486145 0.862357
-0.440510 0.085940 0.893625
-0.440510 0.085940 0.893625
-0.440510 0.085940 0.893625
0.401991 -0.761716 0.508126
0.401991 -0.761716 0.508126
0.401991 -0.761716 0.508126
0.523943 -0.579320 0.624397
0.523943 -0.579320 0.624397
0.523943 -0.579320 0.624397
0.499359 -0.577940 0.645466
0.499359 -0.577940 0.645466
0.499359 -0.577940 0.645466
0.513322 -0.344328 0.786091
0.513322 -0.344328 0.786091
0.513322 -0.344328 0.786091
-0.645972 0.200718 0.736500
-0.645972 0.200718 0.736500
-0.645972 0.200718 0.736500
-0.226309 0.466259 0.855211
-0.226309 0.466259 0.855211
-0.226309 0.466259 0.855211
-0.026515 0.358546 0.933135
-0.026515 0.358546 0.933135
-0.026515 0.358546 0.933135
-0.205666 -0.182142 0.961523
-0.205666 -0.182142 0.961523
-0.205666 -0.182142 0.961523
0.002864 -0.339454 0.940618
0.002864 -0.339454 0.940618
0.002864 -0.339454 0.940618
-0.670630 -0.078538 0.737623
-0.670630 -0.078538 0.737623
-0.670630 -0.078538 0.737623
-0.616697 -0.784655 -0.063257
-0.616697 -0.784655 -0.063257
-0.616697 -0.784655 -0.063257
-0.920227 -0.151787 0.360753
-0.920227 -0.151787 0.360753
-0.920227 -0.151787 0.360753
0.352200 -0.927802 0.123035
0.352200 -0.927802 0.123035
0.352200 -0.927802 0.123035
0.410190 -0.650749 0.638960
0.410190 -0.650749 0.638960
0.410190 -0.650749 0.638960
0.410190 -0.650749 0.638960
0.410190 -0.650749 0.638960
0.410190 -0.650749 0.638960
-0.510218 0.738265 0.441183
-0.510218 0.738265 0.441183
-0.510218 0.738265 0.441183
-0.510218 0.738265 0.441183
-0.510218 0.738265 0.441183
-0.510218 0.738265 0.441183
0.147317 -0.003960 0.989081
0.147317 -0.003960 0.989081
0.147317 -0.003960 0.989081
0.368312 -0.297116 0.880948
0.368312 -0.297116 0.880948
0.368312 -0.297116 0.880948
0.923953 0.161797 0.346603
0.923953 0.161797 0.346603
0.923953 0.161797 0.346603
0.474533 0.307741 0.824690
0.474533 0.307741 0.824690
0.474533 0.307741 0.824690
0.019411 0.842528 -0.538302
0.019411 0.842528 -0.538302
0.019411 0.842528 -0.538302
-0.688568 0.700701 -0.186795
-0.688568 0.700701 -0.186795
-0.688568 0.700701 -0.186795
-0.663125 0.736924 -0.131180
-0.663125 0.736924 -0.131180
-0.663125 0.736924 -0.131180
0.247815 -0.894203 0.372811
0.247815 -0.894203 0.372811
0.247815 -0.894203 0.372811
0.247815 -0.894203 0.372811
0.247815 -0.894203 0.372811
0.247815 -0.894203 0.372811
-0.408003 0.797829 0.443850
-0.408003 0.797829 0.443850
-0.408003 0.797829 0.443850
0.660761 0.732236 -0.165000
0.660761 0.732236 -0.165000
0.660761 0.732236 -0.165000
0.660761 0.732236 -0.165000
0.660761 0.732236 -0.165000
0.660761 0.732236 -0.165000
-0.042733 -0.863450 -0.502622
-0.042733 -0.863450 -0.502622
-0.042733 -0.863450 -0.502622
0.055786 -0.823786 -0.564150
0.055786 -0.823786 -0.564150
0.055786 -0.823786 -0.564150
0.251986 -0.854823 -0.453631
0.251986 -0.854823 -0.453631
0.251986 -0.854823 -0.453631
0.960816 -0.079037 0.265679
0.960816 -0.079037 0.265679
0.960816 -0.079037 0.265679
0.724923 0.307768 0.616251
0.724923 0.307768 0.616251
0.724923 0.307768 0.616251
0.994456 -0.104270 0.013581
0.994456 -0.104270 0.013581
0.994456 -0.104270 0.013581
0.996175 -0.083765 -0.024892
0.996175 -0.083765 -0.024892
0.996175 -0.083765 -0.024892
0.758319 0.496354 0.422593
0.758319 0.496354 0.422593
0.758319 0.496354 0.422593
0.464928 0.876828 -0.122534
0.464928 0.876828 -0.122534
0.464928 0.876828 -0.122534
0.066479 -0.064714 -0.995687
0.066479 -0.064714 -0.995687
0.066479 -0.064714 -0.995687
0.066479 -0.064714 -0.995687
0.066479 -0.064714 -0.995687
0.066479 -0.064714 -0.995687
0.113921 0.975447 -0.188482
0.113921 0.975447 -0.188482
0.113921 0.975447 -0.188482
-0.484881 0.874041 -0.030717
-0.484881 0.874041 -0.030717
-0.484881 0.874041 -0.030717
-0.784443 0.252945 0.566276
-0.784443 0.252945 0.566276
-0.784443 0.252945 0.566276
-0.923955 0.209559 -0.319987
-0.923955 0.209559 -0.319987
-0.923955 0.209559 -0.319987
-0.688702 -0.601024 -0.405537
-0.688702 -0.601024 -0.405537
-0.688702 -0.601024 -0.405537
-0.769504 -0.530376 -0.355761
-0.769504 -0.530376 -0.355761
-0.769504 -0.530376 -0.355761
0.618012 0.032153 -0.785511
0.618012 0.032153 -0.785511
0.618012 0.032153 -0.785511
0.408604 -0.597711 -0.689771
0.408604 -0.597711 -0.689771
0.408604 -0.597711 -0.689771
0.670822 -0.684952 0.284323
0.670822 -0.684952 0.284323
0.670822 -0.684952 0.284323
0.705469 -0.670125 0.230751
0.705469 -0.670125 0.230751
0.705469 -0.670125 0.230751
0.468360 0.867684 -0.166623
0.468360 0.867684 -0.166623
0.468360 0.867684 -0.166623
-0.028145 0.696441 -0.717062
-0.028145 0.696441 -0.717062
-0.028145 0.696441 -0.717062
0.118959 -0.274121 -0.954309
0.118959 -0.274121 -0.954309
0.118959 -0.274121 -0.954309
-0.016250 0.147086 -0.988990
-0.016250 0.147086 -0.988990
-0.016250 0.147086 -0.988990
-0.515613 0.325964 -0.792396
-0.515613 0.325964 -0.792396
-0.515613 0.325964 -0.792396
-0.515613 0.325964 -0.792396
-0.515613 0.325964 -0.792396
-0.515613 0.325964 -0.792396
0.336928 0.147905 -0.929841
0.336928 0.147905 -0.929841
0.336928 0.147905 -0.929841
0.304225 -0.766934 -0.565030
0.304225 -0.766934 -0.565030
0.304225 -0.766934 -0.565030
-0.094795 0.121253 -0.988085
-0.094795 0.121253 -0.988085
-0.094795 0.121253 -0.988085
0.825637 0.356144 -0.437591
0.825637 0.356144 -0.437591
0.825637 0.356144 -0.437591
0.325898 0.621481 -0.712427
0.325898 0.621481 -0.712427
0.325898 0.621481 -0.712427
</float_array>
          <technique_common>
            <accessor source="#polySurface77-Normal0-array" count="570" stride="3">
              <param name="X" type="float"/>
              <param name="Y" type="float"/>
              <param name="Z" type="float"/>
            </accessor>
          </technique_common>
        </source>
        <source id="polySurface77-UV0">
          <float_array id="polySurface77-UV0-array" count="194">
0.168923 0.566300
0.158831 0.554760
0.156234 0.572172
0.133369 0.731072
0.138645 0.578862
0.125498 0.652963
0.127982 0.593017
0.115494 0.741371
0.165006 0.537728
0.176535 0.534181
0.174700 0.576229
0.172252 0.515612
0.146282 0.524089
0.149645 0.539151
0.160722 0.517777
0.124738 0.759159
0.156712 0.652353
0.161782 0.697697
0.171786 0.640414
0.142963 0.614671
0.152000 0.665404
0.146757 0.759571
0.180164 0.610737
0.180194 0.678577
0.182422 0.636322
0.140556 0.606230
0.129508 0.676013
0.135272 0.566846
0.161344 0.771819
0.169040 0.703467
0.175691 0.597265
0.176192 0.743153
0.131304 0.759507
0.147981 0.719796
0.120916 0.708612
0.131019 0.829876
0.118340 0.790162
0.139339 0.878501
0.149964 0.926922
0.144667 0.858646
0.153659 0.859924
0.161391 0.913615
0.160996 0.826581
0.175544 0.824251
0.172029 0.888242
0.169058 0.894986
0.162690 0.963675
0.160373 0.828121
0.152800 0.844478
0.162740 0.855630
0.135451 0.968517
0.124421 0.870724
0.128240 0.945274
0.143964 0.954494
0.146497 0.983193
0.154598 0.965706
0.143486 0.784932
0.160585 0.954461
0.172088 0.800511
0.166544 0.883695
0.167087 0.934406
0.174331 0.824057
0.159975 0.970401
0.168677 0.884928
0.169943 0.800489
0.150935 0.963675
0.155591 0.949514
0.143239 0.933180
0.137199 0.953874
0.128666 0.916541
0.161904 0.748642
0.177686 0.805085
0.173513 0.753874
0.179042 0.772424
0.176585 0.717415
0.115022 0.840273
0.123312 0.876850
0.128419 0.870667
0.117643 0.854102
0.160979 0.543658
0.160892 0.590216
0.168175 0.594675
0.158803 0.656277
0.178871 0.737395
0.179871 0.644316
0.182183 0.704008
0.115978 0.695325
0.114943 0.794515
0.149233 0.530958
0.166894 0.523938
0.178851 0.545969
0.179348 0.555626
0.120498 0.624424
0.142306 0.530204
0.149391 0.582056
0.151025 0.649783
0.137973 0.665282
</float_array>
          <technique_common>
            <accessor source="#polySurface77-UV0-array" count="97" stride="2">
              <param name="S" type="float"/>
              <param name="T" type="float"/>
            </accessor>
          </technique_common>
        </source>
        <vertices id="polySurface77-VERTEX">
          <input semantic="POSITION" source="#polySurface77-POSITION"/>
        </vertices>
        <triangles count="190" material="AllColors_Material">
          <input semantic="VERTEX" offset="0" source="#polySurface77-VERTEX"/>
          <input semantic="NORMAL" offset="1" source="#polySurface77-Normal0"/>
          <input semantic="TEXCOORD" offset="2" set="0" source="#polySurface77-UV0"/>
          <p> 62 0 0 21 1 1 65 2 2 25 3 3 66 4 4 67 5 5 67 6 5 64 7 6 10 8 7 21 9 1 62 10 0 9 11 8 91 12 9 9 13 8 1 14 10 2 15 11 9 16 8 91 17 9 9 18 8 58 19 12 20 20 13 59 21 14 9 22 8 2 23 11 67 24 5 11 25 15 25 26 3 12 27 16 69 28 17 54 29 18 96 30 19 55 31 20 12 32 16 12 33 16 55 34 20 87 35 21 92 36 22 86 37 23 53 38 24 3 39 25 14 40 26 63 41 27 6 42 28 69 43 17 12 44 16 46 45 29 68 46 30 27 47 31 42 48 32 14 49 26 28 50 33 71 51 34 41 52 35 89 53 36 48 54 37 17 55 38 32 56 39 7 57 40 18 58 41 83 59 42 15 60 43 73 61 44 77 62 45 77 63 45 73 64 44 0 65 46 16 66 47 19 67 48 28 68 33 19 69 48 16 70 47 37 71 49 36 72 50 79 73 51 41 74 35 79 75 51 36 76 50 30 77 52 36 78 50 35 79 53 8 80 54 37 81 49 74 82 55 35 83 53 8 84 54 74 85 55 0 86 46 19 87 48 36 88 50 41 89 35 35 90 53 19 91 48 37 92 49 43 93 56 19 94 48 41 95 35 75 96 57 74 97 55 37 98 49 75 99 57 77 100 45 0 101 46 47 102 58 76 103 59 37 104 49 77 105 45 47 106 58 15 107 43 73 108 44 38 109 60 0 110 46 38 111 60 73 112 44 82 113 61 34 114 62 38 115 60 18 116 41 18 117 41 38 118 60 39 119 63 82 120 61 39 121 63 38 122 60 13 123 64 39 124 63 82 125 61 34 126 62 33 127 65 0 128 46 17 129 38 18 130 41 7 131 40 40 132 66 17 133 38 33 134 65 32 135 39 17 136 38 7 137 40 17 138 38 72 139 67 33 140 65 78 141 68 8 142 54 33 143 65 78 144 68 33 145 65 72 146 67 31 147 69 78 148 68 72 149 67 31 150 69 30 151 52 78 152 68 41 153 35 42 154 32 43 155 56 28 156 33 43 157 56 42 158 32 16 159 47 44 160 70 37 161 49 28 162 33 44 163 70 16 164 47 27 165 31 47 166 58 46 167 29 73 168 44 80 169 71 82 170 61 26 171 72 81 172 73 5 173 74 26 174 72 82 175 61 81 176 73 6 177 28 13 178 64 26 179 72 13 180 64 6 181 28 83 182 42 87 183 21 83 184 42 12 185 16 4 186 75 49 187 76 84 188 77 31 189 69 84 190 77 49 191 76 4 192 75 31 193 69 49 194 76 30 195 52 31 196 69 56 197 78 24 198 79 85 199 80 3 200 25 85 201 80 24 202 79 45 203 81 29 204 82 85 205 80 45 206 81 51 207 83 27 208 31 52 209 84 51 210 83 80 211 71 15 212 43 68 213 30 52 214 84 27 215 31 52 216 84 53 217 24 51 218 83 51 219 83 53 220 24 70 221 85 26 222 72 5 223 74 6 224 28 48 225 37 32 226 39 25 227 3 25 228 3 32 229 39 87 230 21 87 231 21 55 232 20 96 233 19 79 234 51 56 235 78 89 236 36 31 237 69 4 238 75 56 239 78 22 240 86 57 241 87 4 242 75 56 243 78 57 244 87 89 245 36 71 246 34 22 247 86 14 248 26 59 249 14 90 250 88 58 251 12 58 252 12 90 253 88 63 254 27 3 255 25 90 256 88 59 257 14 23 258 89 59 259 14 2 260 11 45 261 81 24 262 79 23 263 89 59 264 14 24 265 79 3 266 25 91 267 9 60 268 90 2 269 11 61 270 91 91 271 9 1 272 10 60 273 90 91 274 9 61 275 91 92 276 22 53 277 24 61 278 91 92 279 22 1 280 10 54 281 18 10 282 7 93 283 92 22 284 86 14 285 26 22 286 86 63 287 27 64 288 6 93 289 92 10 290 7 65 291 2 21 292 1 94 293 93 62 294 0 65 295 2 54 296 18 12 297 16 95 298 94 96 299 19 12 300 16 65 301 2 95 302 94 66 303 4 95 304 94 65 305 2 66 306 4 96 307 19 95 308 94 4 309 75 11 310 15 10 311 7 11 312 15 4 313 75 84 314 77 9 315 8 20 316 13 21 317 1 64 318 6 67 319 5 66 320 4 9 321 8 62 322 0 1 323 10 59 324 14 58 325 12 9 326 8 67 327 5 10 328 7 11 329 15 92 330 22 54 331 18 86 332 23 60 333 90 68 334 30 45 335 81 52 336 84 68 337 30 60 338 90 28 339 33 14 340 26 3 341 25 5 342 74 81 343 73 86 344 23 86 345 23 81 346 73 70 347 85 48 348 37 25 349 3 11 350 15 86 351 23 70 352 85 53 353 24 18 354 41 39 355 63 83 356 42 39 357 63 13 358 64 83 359 42 46 360 29 45 361 81 68 362 30 42 363 32 71 364 34 14 365 26 41 366 35 71 367 34 42 368 32 48 369 37 72 370 67 17 371 38 46 372 29 29 373 82 45 374 81 29 375 82 46 376 29 44 377 70 35 378 53 74 379 55 8 380 54 35 381 53 36 382 50 19 383 48 0 384 46 74 385 55 75 386 57 37 387 49 76 388 59 75 389 57 75 390 57 76 391 59 77 392 45 47 393 58 77 394 45 76 395 59 34 396 62 0 397 46 38 398 60 40 399 66 33 400 65 34 401 62 34 402 62 18 403 41 40 404 66 17 405 38 40 406 66 18 407 41 0 408 46 33 409 65 8 410 54 36 411 50 8 412 54 78 413 68 36 414 50 78 415 68 30 416 52 89 417 36 41 418 35 79 419 51 56 420 78 79 421 51 30 422 52 19 423 48 43 424 56 28 425 33 44 426 70 47 427 58 37 428 49 46 429 29 47 430 58 44 431 70 31 432 69 48 433 37 84 434 77 48 435 37 31 436 69 72 437 67 15 438 43 47 439 58 27 440 31 15 441 43 80 442 71 73 443 44 70 444 85 81 445 73 80 446 71 80 447 71 81 448 73 82 449 61 87 450 21 7 451 40 83 452 42 12 453 16 83 454 42 6 455 28 87 456 21 32 457 39 7 458 40 28 459 33 29 460 82 44 461 70 29 462 82 28 463 33 50 464 95 11 465 15 84 466 77 48 467 37 6 468 28 5 469 74 69 470 17 5 471 74 54 472 18 69 473 17 3 474 25 50 475 95 28 476 33 3 477 25 85 478 80 50 479 95 50 480 95 85 481 80 29 482 82 70 483 85 80 484 71 51 485 83 15 486 43 27 487 31 51 488 83 60 489 90 53 490 24 52 491 84 61 492 91 53 493 24 60 494 90 82 495 61 26 496 72 13 497 64 5 498 74 86 499 23 54 500 18 63 501 27 94 502 93 58 503 12 94 504 93 63 505 27 64 506 6 88 507 96 87 508 21 96 509 19 87 510 21 88 511 96 25 512 3 57 513 87 56 514 78 4 515 75 10 516 7 22 517 86 4 518 75 22 519 86 71 520 34 89 521 36 57 522 87 22 523 86 89 524 36 3 525 25 63 526 27 90 527 88 59 528 14 23 529 89 24 530 79 23 531 89 2 532 11 60 533 90 23 534 89 60 535 90 45 536 81 1 537 10 92 538 22 61 539 91 54 540 18 1 541 10 62 542 0 63 543 27 22 544 86 93 545 92 66 546 4 94 547 93 64 548 6 88 549 96 66 550 4 25 551 3 66 552 4 88 553 96 96 554 19 63 555 27 93 556 92 64 557 6 20 558 13 94 559 93 21 560 1 66 561 4 65 562 2 94 563 93 58 564 12 94 565 93 20 566 13 12 567 16 54 568 18 65 569 2</p>
        </triangles>
      </mesh>
    </geometry>
  </library_geometries>
  <library_visual_scenes>
    <visual_scene id="bush" name="bush">
      <node name="Bush_big" id="Bush_big" sid="Bush_big">
        <matrix sid="matrix">0.582021 0.000000 0.000000 10.842881 0.000000 -0.000000 0.582021 -0.000000 0.000000 -0.582021 -0.000000 19.974955 0.000000 0.000000 0.000000 1.000000</matrix>
        <extra>
          <technique profile="FCOLLADA">
            <visibility>1.000000</visibility>
          </technique>
        </extra>
        <node name="polySurface71" id="polySurface71" sid="polySurface71">
          <matrix sid="matrix">1.718150 0.000000 0.000000 -18.575048 0.000000 -0.000000 -1.718150 32.424812 0.000000 1.718150 -0.000000 0.000006 0.000000 0.000000 0.000000 1.000000</matrix>
          <instance_geometry url="#polySurface71-lib">
            <bind_material>
              <technique_common>
                <instance_material symbol="AllColors_Material" target="#AllColors_Material"/>
              </technique_common>
            </bind_material>
          </instance_geometry>
          <extra>
            <technique profile="FCOLLADA">
              <visibility>1.000000</visibility>
            </technique>
          </extra>
        </node>
        <node name="polySurface77" id="polySurface77" sid="polySurface77">
          <matrix sid="matrix">1.000000 0.000000 0.000000 0.000000 0.000000 1.000000 0.000000 0.000000 0.000000 -0.000000 1.000000 0.000000 0.000000 0.000000 0.000000 1.000000</matrix>
          <instance_geometry url="#polySurface77-lib">
            <bind_material>
              <technique_common>
                <instance_material symbol="AllColors_Material" target="#AllColors_Material"/>
              </technique_common>
            </bind_material>
          </instance_geometry>
          <extra>
            <technique profile="FCOLLADA">
              <visibility>1.000000</visibility>
            </technique>
          </extra>
        </node>
      </node>
      <extra>
        <technique profile="MAX3D">
          <frame_rate>24.000000</frame_rate>
        </technique>
        <technique profile="FCOLLADA">
          <start_time>0.041667</start_time>
          <end_time>8.333333</end_time>
        </technique>
      </extra>
    </visual_scene>
  </library_visual_scenes>
  <scene>
    <instance_visual_scene url="#bush"/>
  </scene>
</COLLADA>
