<?xml version="1.0" encoding="utf-8"?>
<COLLADA xmlns="http://www.collada.org/2005/11/COLLADASchema" version="1.4.1">
  <asset>
    <contributor>
      <author/>
      <authoring_tool>FBX COLLADA exporter</authoring_tool>
      <comments/>
    </contributor>
    <created>2024-06-23T23:23:16Z</created>
    <keywords/>
    <modified>2024-06-23T23:23:16Z</modified>
    <revision/>
    <subject/>
    <title/>
    <unit meter="0.010000" name="centimeter"/>
    <up_axis>Y_UP</up_axis>
  </asset>
  <library_images>
    <image id="base_color_texture-image" name="base_color_texture">
      <init_from>file://G:\DeskTop\fly-灌木场景\花\stylized-low-poly-flowers-pack-01\textures\CT_Pallete.png</init_from>
    </image>
  </library_images>
  <library_materials>
    <material id="Base_Material" name="Base_Material">
      <instance_effect url="#Base_Material-fx"/>
    </material>
  </library_materials>
  <library_effects>
    <effect id="Base_Material-fx" name="Base_Material">
      <profile_COMMON>
        <technique sid="standard">
          <phong>
            <emission>
              <color sid="emission">0.000000  0.000000 0.000000 1.000000</color>
            </emission>
            <ambient>
              <color sid="ambient">0.000000  0.000000 0.000000 1.000000</color>
            </ambient>
            <diffuse>
              <texture texture="base_color_texture-image" texcoord="CHANNEL0">
                <extra>
                  <technique profile="MAYA">
                    <wrapU sid="wrapU0">TRUE</wrapU>
                    <wrapV sid="wrapV0">TRUE</wrapV>
                    <blend_mode>NONE</blend_mode>
                  </technique>
                </extra>
              </texture>
            </diffuse>
            <specular>
              <color sid="specular">0.200000  0.200000 0.200000 1.000000</color>
            </specular>
            <shininess>
              <float sid="shininess">2.000000</float>
            </shininess>
            <reflective>
              <color sid="reflective">0.800000  0.800000 0.800000 1.000000</color>
            </reflective>
            <reflectivity>
              <float sid="reflectivity">0.000000</float>
            </reflectivity>
            <transparent opaque="RGB_ZERO">
              <color sid="transparent">0.000000  0.000000 0.000000 1.000000</color>
            </transparent>
            <transparency>
              <float sid="transparency">1.000000</float>
            </transparency>
          </phong>
        </technique>
      </profile_COMMON>
    </effect>
  </library_effects>
  <library_geometries>
    <geometry id="sides-lib" name="sidesMesh">
      <mesh>
        <source id="sides-POSITION">
          <float_array id="sides-POSITION-array" count="330">
5.974247 3.577282 20.069866
6.024081 3.483567 20.160244
5.973516 3.369025 20.218491
5.854597 3.229493 20.244175
5.973516 3.369025 20.218491
5.856059 3.648090 19.946924
5.974247 3.577282 20.069866
5.050631 3.025401 19.821268
5.854597 3.229493 20.244175
5.049383 3.314879 19.616154
5.856059 3.648090 19.946924
5.688435 4.068769 19.661911
5.836325 3.914660 19.802240
5.802073 4.027118 19.727873
5.815365 3.743888 19.870029
5.836325 3.914660 19.802240
5.518315 4.054192 19.590433
5.688435 4.068769 19.661911
5.129468 3.123282 19.768393
5.815365 3.743888 19.870029
4.923215 3.337787 19.573908
5.518315 4.054192 19.590433
5.415022 4.106256 19.531654
5.326957 4.252036 19.460112
4.934884 4.189559 19.376469
5.086237 4.293688 19.381742
5.128500 3.233659 19.689913
5.415022 4.106256 19.531654
4.795091 3.291971 19.580879
4.934884 4.189559 19.376469
5.086237 4.293688 19.381742
5.221126 4.320761 19.403461
5.326957 4.252036 19.460112
4.399749 4.164569 19.336107
4.640609 4.252036 19.321850
4.503247 4.252037 19.307491
4.805168 4.179146 19.358343
4.640609 4.252036 19.321850
4.324718 4.004211 19.385790
4.399749 4.164569 19.336107
5.049383 3.314879 19.616154
4.805168 4.179146 19.358343
4.716253 3.194090 19.633755
4.324718 4.004211 19.385790
3.890747 3.729311 19.543430
3.921988 3.850101 19.477594
4.039509 3.912577 19.442511
4.221253 3.931320 19.417021
4.039509 3.912577 19.442511
3.923730 3.564788 19.618860
3.890747 3.729311 19.543430
4.923215 3.337787 19.573908
4.221253 3.931320 19.417021
4.715952 3.083714 19.713299
3.923730 3.564788 19.618860
3.753117 3.158687 19.923115
3.752547 3.366944 19.772938
3.699636 3.264898 19.849009
3.883510 3.460659 19.684296
3.752547 3.366944 19.772938
3.884618 3.044145 19.982033
3.753117 3.158687 19.923115
4.795091 3.291971 19.580879
3.883510 3.460659 19.684296
4.795070 3.002493 19.787056
3.884618 3.044145 19.982033
4.040198 2.665117 20.330008
3.921645 2.721346 20.281378
3.889737 2.821310 20.189188
3.922741 2.946264 20.058441
3.889737 2.821310 20.189188
4.219791 2.635961 20.338037
4.040198 2.665117 20.330008
4.716253 3.194090 19.633755
3.922741 2.946264 20.058441
4.922506 2.979585 19.828239
4.219791 2.635961 20.338037
4.641094 2.442281 20.608624
4.399106 2.483933 20.531317
4.502592 2.427703 20.605791
4.715952 3.083714 19.713299
4.324353 2.583897 20.395752
5.050631 3.025401 19.821268
4.805793 2.500593 20.552490
4.324353 2.583897 20.395752
4.399106 2.483933 20.531317
4.805793 2.500593 20.552490
4.641094 2.442281 20.608624
4.934208 2.513089 20.569063
5.086722 2.483933 20.668514
5.414658 2.688024 20.541616
5.327582 2.571401 20.654259
4.795070 3.002493 19.787056
4.934208 2.513089 20.569063
5.129468 3.123282 19.768393
5.414658 2.688024 20.541616
5.327582 2.571401 20.654259
5.220471 2.496428 20.701761
5.086722 2.483933 20.668514
5.836616 3.006658 20.449551
5.686553 2.821309 20.548918
5.801730 2.898364 20.531656
5.519424 2.760915 20.511938
5.686553 2.821309 20.548918
5.815678 3.125365 20.311161
5.836616 3.006658 20.449551
4.922506 2.979585 19.828239
5.519424 2.760915 20.511938
5.128500 3.233659 19.689913
5.815678 3.125365 20.311161
</float_array>
          <technique_common>
            <accessor source="#sides-POSITION-array" count="110" stride="3">
              <param name="X" type="float"/>
              <param name="Y" type="float"/>
              <param name="Z" type="float"/>
            </accessor>
          </technique_common>
        </source>
        <source id="sides-Normal0">
          <float_array id="sides-Normal0-array" count="450">
-0.436774 0.521297 0.733128
-0.436774 0.521290 0.733134
-0.360746 0.539814 0.760568
-0.494428 0.506298 0.706543
-0.436782 0.521290 0.733129
-0.494463 0.506289 0.706525
-0.436782 0.521290 0.733129
-0.436801 0.521287 0.733120
-0.494463 0.506289 0.706525
-0.273450 0.677948 0.682357
-0.494437 0.506300 0.706535
-0.274297 0.421194 0.864498
-0.494437 0.506300 0.706535
-0.494462 0.506276 0.706535
-0.274297 0.421194 0.864498
-0.383454 0.393252 0.835653
-0.383445 0.393243 0.835661
-0.320178 0.448731 0.834342
-0.426329 0.344525 0.836389
-0.383430 0.393275 0.835653
-0.426310 0.344546 0.836389
-0.383430 0.393275 0.835653
-0.383449 0.393247 0.835658
-0.426310 0.344546 0.836389
-0.357568 0.593784 0.720809
-0.426340 0.344514 0.836388
-0.157673 0.381163 0.910963
-0.426340 0.344514 0.836388
-0.426341 0.344512 0.836388
-0.157673 0.381163 0.910963
-0.258757 0.261258 0.929941
-0.242456 0.323923 0.914488
-0.258758 0.261268 0.929937
-0.242456 0.323923 0.914488
-0.242454 0.323934 0.914485
-0.258758 0.261268 0.929937
-0.360877 0.483514 0.797485
-0.258751 0.261264 0.929940
-0.033957 0.429091 0.902623
-0.258751 0.261264 0.929940
-0.258753 0.261292 0.929932
-0.033957 0.429091 0.902623
-0.242458 0.323931 0.914485
-0.242462 0.323931 0.914484
-0.218018 0.397281 0.891424
-0.067475 0.336320 0.939327
-0.067470 0.336321 0.939327
-0.095068 0.409384 0.907396
-0.046535 0.278123 0.959418
-0.067464 0.336296 0.939337
-0.046527 0.278103 0.959424
-0.067464 0.336296 0.939337
-0.067467 0.336308 0.939332
-0.046527 0.278103 0.959424
-0.274293 0.421199 0.864497
-0.046533 0.278113 0.959421
0.028308 0.528735 0.848315
-0.046533 0.278113 0.959421
-0.046533 0.278114 0.959420
0.028308 0.528735 0.848315
0.072616 0.433041 0.898444
0.072614 0.433039 0.898445
0.003158 0.479683 0.877436
0.126614 0.397282 0.908920
0.072589 0.433049 0.898443
0.126614 0.397280 0.908921
0.072589 0.433049 0.898443
0.072590 0.433049 0.898442
0.126614 0.397280 0.908921
-0.157657 0.381163 0.910966
0.126628 0.397272 0.908923
0.046940 0.631769 0.773734
0.126628 0.397272 0.908923
0.126634 0.397268 0.908924
0.046940 0.631769 0.773734
0.122949 0.576059 0.808108
0.122950 0.576066 0.808104
0.042525 0.579643 0.813761
0.192889 0.568894 0.799471
0.122977 0.576061 0.808103
0.192909 0.568887 0.799471
0.122977 0.576061 0.808103
0.122985 0.576064 0.808100
0.192909 0.568887 0.799471
-0.033937 0.429112 0.902613
0.192893 0.568896 0.799469
-0.032347 0.712500 0.700926
0.192893 0.568896 0.799469
0.192873 0.568887 0.799480
-0.032347 0.712500 0.700926
0.067837 0.706338 0.704616
0.067842 0.706334 0.704620
0.004065 0.674743 0.738042
0.123757 0.727654 0.674688
0.067819 0.706330 0.704627
0.123748 0.727655 0.674689
0.067819 0.706330 0.704627
0.067816 0.706329 0.704627
0.123748 0.727655 0.674689
0.028307 0.528738 0.848313
0.123723 0.727644 0.674706
-0.158286 0.721626 0.673944
0.123723 0.727644 0.674706
0.123755 0.727655 0.674688
-0.158286 0.721626 0.673944
-0.067397 0.776564 0.626424
-0.067399 0.776564 0.626423
-0.095967 0.724656 0.682396
0.046953 0.631737 0.773760
-0.048136 0.813604 0.579423
-0.273420 0.677970 0.682348
-0.048136 0.813604 0.579423
-0.048135 0.813604 0.579424
-0.273420 0.677970 0.682348
-0.048125 0.813621 0.579400
-0.067400 0.776550 0.626440
-0.048128 0.813606 0.579421
-0.067400 0.776550 0.626440
-0.067387 0.776566 0.626422
-0.048128 0.813606 0.579421
-0.256846 0.795465 0.548876
-0.237937 0.759769 0.605093
-0.256844 0.795455 0.548893
-0.237937 0.759769 0.605093
-0.237920 0.759759 0.605112
-0.256844 0.795455 0.548893
-0.032336 0.712494 0.700933
-0.256845 0.795458 0.548887
-0.357575 0.593790 0.720801
-0.256845 0.795458 0.548887
-0.256846 0.795458 0.548886
-0.357575 0.593790 0.720801
-0.237943 0.759777 0.605081
-0.237936 0.759779 0.605081
-0.217134 0.712477 0.667255
-0.379876 0.661737 0.646373
-0.379870 0.661744 0.646370
-0.320121 0.641837 0.696827
-0.427456 0.674736 0.601676
-0.379861 0.661732 0.646388
-0.427457 0.674738 0.601672
-0.379861 0.661732 0.646388
-0.379876 0.661738 0.646373
-0.427457 0.674738 0.601672
-0.158263 0.721625 0.673951
-0.427474 0.674748 0.601649
-0.360875 0.483499 0.797495
-0.427474 0.674748 0.601649
-0.427469 0.674745 0.601655
-0.360875 0.483499 0.797495
</float_array>
          <technique_common>
            <accessor source="#sides-Normal0-array" count="150" stride="3">
              <param name="X" type="float"/>
              <param name="Y" type="float"/>
              <param name="Z" type="float"/>
            </accessor>
          </technique_common>
        </source>
        <source id="sides-UV0">
          <float_array id="sides-UV0-array" count="220">
0.277989 0.121811
0.278746 0.133323
0.272481 0.127663
0.293125 0.135529
0.278746 0.133323
0.292074 0.119317
0.277989 0.121811
0.391556 0.134570
0.293125 0.135529
0.390505 0.118262
0.292074 0.119317
0.277989 0.121811
0.278746 0.133323
0.272481 0.127663
0.293125 0.135529
0.278746 0.133323
0.292074 0.119317
0.277989 0.121811
0.391556 0.134570
0.293125 0.135529
0.390505 0.118262
0.292074 0.119317
0.293125 0.135529
0.278746 0.133323
0.292074 0.119317
0.277989 0.121811
0.391556 0.134570
0.293125 0.135529
0.390505 0.118262
0.292074 0.119317
0.277989 0.121811
0.278746 0.133323
0.272481 0.127663
0.277989 0.121811
0.278746 0.133323
0.272481 0.127663
0.293125 0.135529
0.278746 0.133323
0.292074 0.119317
0.277989 0.121811
0.391556 0.134570
0.293125 0.135529
0.390505 0.118262
0.292074 0.119317
0.277989 0.121811
0.278746 0.133323
0.272481 0.127663
0.293125 0.135529
0.278746 0.133323
0.292074 0.119317
0.277989 0.121811
0.391556 0.134570
0.293125 0.135529
0.390505 0.118262
0.292074 0.119317
0.277989 0.121811
0.278746 0.133323
0.272481 0.127663
0.293125 0.135529
0.278746 0.133323
0.292074 0.119317
0.277989 0.121811
0.391556 0.134570
0.293125 0.135529
0.390505 0.118262
0.292074 0.119317
0.277989 0.121811
0.278746 0.133323
0.272481 0.127663
0.293125 0.135529
0.278746 0.133323
0.292074 0.119317
0.277989 0.121811
0.391556 0.134570
0.293125 0.135529
0.390505 0.118262
0.292074 0.119317
0.277989 0.121811
0.278746 0.133323
0.272481 0.127663
0.391556 0.134570
0.293125 0.135529
0.390505 0.118262
0.292074 0.119317
0.293125 0.135529
0.278746 0.133323
0.292074 0.119317
0.277989 0.121811
0.293125 0.135529
0.278746 0.133323
0.292074 0.119317
0.277989 0.121811
0.391556 0.134570
0.293125 0.135529
0.390505 0.118262
0.292074 0.119317
0.277989 0.121811
0.278746 0.133323
0.272481 0.127663
0.277989 0.121811
0.278746 0.133323
0.272481 0.127663
0.293125 0.135529
0.278746 0.133323
0.292074 0.119317
0.277989 0.121811
0.391556 0.134570
0.293125 0.135529
0.390505 0.118262
0.292074 0.119317
</float_array>
          <technique_common>
            <accessor source="#sides-UV0-array" count="110" stride="2">
              <param name="S" type="float"/>
              <param name="T" type="float"/>
            </accessor>
          </technique_common>
        </source>
        <vertices id="sides-VERTEX">
          <input semantic="POSITION" source="#sides-POSITION"/>
        </vertices>
        <triangles count="50" material="Base_Material">
          <input semantic="VERTEX" offset="0" source="#sides-VERTEX"/>
          <input semantic="NORMAL" offset="1" source="#sides-Normal0"/>
          <input semantic="TEXCOORD" offset="2" set="0" source="#sides-UV0"/>
          <p> 0 0 0 2 1 1 1 2 2 3 3 3 4 4 4 5 5 5 4 6 4 6 7 6 5 8 5 7 9 7 8 10 8 9 11 9 8 12 8 10 13 10 9 14 9 11 15 11 12 16 12 13 17 13 14 18 14 15 19 15 16 20 16 15 21 15 17 22 17 16 23 16 18 24 18 19 25 19 20 26 20 19 27 19 21 28 21 20 29 20 22 30 22 23 31 23 24 32 24 23 33 23 25 34 25 24 35 24 26 36 26 27 37 27 28 38 28 27 39 27 29 40 29 28 41 28 30 42 30 32 43 31 31 44 32 33 45 33 34 46 34 35 47 35 36 48 36 37 49 37 38 50 38 37 51 37 39 52 39 38 53 38 40 54 40 41 55 41 42 56 42 41 57 41 43 58 43 42 59 42 44 60 44 46 61 45 45 62 46 47 63 47 48 64 48 49 65 49 48 66 48 50 67 50 49 68 49 51 69 51 52 70 52 53 71 53 52 72 52 54 73 54 53 74 53 55 75 55 56 76 56 57 77 57 58 78 58 59 79 59 60 80 60 59 81 59 61 82 61 60 83 60 62 84 62 63 85 63 64 86 64 63 87 63 65 88 65 64 89 64 66 90 66 68 91 67 67 92 68 69 93 69 70 94 70 71 95 71 70 96 70 72 97 72 71 98 71 73 99 73 74 100 74 75 101 75 74 102 74 76 103 76 75 104 75 77 105 77 78 106 78 79 107 79 80 108 80 81 109 81 82 110 82 81 111 81 83 112 83 82 113 82 84 114 84 85 115 85 86 116 86 85 117 85 87 118 87 86 119 86 88 120 88 89 121 89 90 122 90 89 123 89 91 124 91 90 125 90 92 126 92 93 127 93 94 128 94 93 129 93 95 130 95 94 131 94 96 132 96 98 133 97 97 134 98 99 135 99 100 136 100 101 137 101 102 138 102 103 139 103 104 140 104 103 141 103 105 142 105 104 143 104 106 144 106 107 145 107 108 146 108 107 147 107 109 148 109 108 149 108</p>
        </triangles>
      </mesh>
    </geometry>
    <geometry id="inner-lib" name="innerMesh">
      <mesh>
        <source id="inner-POSITION">
          <float_array id="inner-POSITION-array" count="180">
4.930905 3.283640 19.781551
5.012012 3.260732 19.808710
4.975588 3.321126 19.662159
5.091765 3.264897 19.725994
5.011970 3.119117 19.909184
4.931378 3.085796 19.923882
5.092464 3.039979 19.886637
4.976180 2.960842 19.918041
4.931378 3.085796 19.923882
4.889545 3.187842 19.858513
4.847991 3.058723 19.919779
4.789790 3.110787 19.878704
4.931378 3.085796 19.923882
4.847991 3.058723 19.919779
4.976180 2.960842 19.918041
4.833645 2.946264 19.900089
4.789994 3.233659 19.791311
4.720641 3.227411 19.677652
4.745515 3.164934 19.823313
4.674108 3.112870 19.751020
4.789994 3.233659 19.791311
4.889545 3.187842 19.858513
4.847228 3.289888 19.753906
4.930905 3.283640 19.781551
4.789790 3.110787 19.878704
4.889545 3.187842 19.858513
4.745515 3.164934 19.823313
4.789994 3.233659 19.791311
4.789994 3.233659 19.791311
4.847228 3.289888 19.753906
4.720641 3.227411 19.677652
4.834322 3.308631 19.643143
4.930905 3.283640 19.781551
4.889545 3.187842 19.858513
5.012012 3.260732 19.808710
5.017830 3.194090 19.864624
5.017830 3.194090 19.864624
4.889545 3.187842 19.858513
5.011970 3.119117 19.909184
4.931378 3.085796 19.923882
4.930905 3.283640 19.781551
4.975588 3.321126 19.662159
4.847228 3.289888 19.753906
4.834322 3.308631 19.643143
5.017830 3.194090 19.864624
5.133856 3.156603 19.812290
5.012012 3.260732 19.808710
5.091765 3.264897 19.725994
5.017830 3.194090 19.864624
5.011970 3.119117 19.909184
5.133856 3.156603 19.812290
5.092464 3.039979 19.886637
4.789790 3.110787 19.878704
4.720039 3.004576 19.836740
4.847991 3.058723 19.919779
4.833645 2.946264 19.900089
4.789790 3.110787 19.878704
4.745515 3.164934 19.823313
4.720039 3.004576 19.836740
4.674108 3.112870 19.751020
</float_array>
          <technique_common>
            <accessor source="#inner-POSITION-array" count="60" stride="3">
              <param name="X" type="float"/>
              <param name="Y" type="float"/>
              <param name="Z" type="float"/>
            </accessor>
          </technique_common>
        </source>
        <source id="inner-Normal0">
          <float_array id="inner-Normal0-array" count="270">
-0.020763 0.856771 0.515279
0.260571 0.773785 0.577372
0.073689 0.958707 0.274683
0.260571 0.773785 0.577372
0.382062 0.795448 0.470416
0.073689 0.958707 0.274683
0.256160 0.294864 0.920564
-0.016985 0.206063 0.978391
0.384500 0.184644 0.904470
-0.016985 0.206063 0.978391
0.079364 -0.054590 0.995350
0.384500 0.184644 0.904470
-0.017007 0.206067 0.978390
-0.164159 0.572489 0.803311
-0.291462 0.093784 0.951974
-0.164159 0.572489 0.803311
-0.481594 0.286526 0.828233
-0.291462 0.093784 0.951974
-0.017002 0.206053 0.978393
-0.291459 0.093797 0.951974
0.079347 -0.054590 0.995351
-0.291459 0.093797 0.951974
-0.321494 -0.067688 0.944489
0.079347 -0.054590 0.995351
-0.483011 0.687535 0.542215
-0.643802 0.696996 0.315777
-0.633976 0.448732 0.629853
-0.643802 0.696996 0.315777
-0.750160 0.381148 0.540358
-0.633976 0.448732 0.629853
-0.483029 0.687527 0.542208
-0.164153 0.572467 0.803328
-0.293065 0.867836 0.401215
-0.164153 0.572467 0.803328
-0.020742 0.856772 0.515278
-0.293065 0.867836 0.401215
-0.481587 0.286507 0.828243
-0.164174 0.572477 0.803317
-0.633989 0.448734 0.629838
-0.164174 0.572477 0.803317
-0.483035 0.687528 0.542202
-0.633989 0.448734 0.629838
-0.483024 0.687534 0.542203
-0.293057 0.867835 0.401224
-0.643809 0.696991 0.315774
-0.293057 0.867835 0.401224
-0.318511 0.915070 0.247381
-0.643809 0.696991 0.315774
-0.020761 0.856792 0.515243
-0.164167 0.572477 0.803318
0.260586 0.773785 0.577367
-0.164167 0.572477 0.803318
0.266622 0.558066 0.785796
0.260586 0.773785 0.577367
0.266611 0.558079 0.785791
-0.164142 0.572482 0.803319
0.256167 0.294860 0.920563
-0.164142 0.572482 0.803319
-0.017020 0.206045 0.978395
0.256167 0.294860 0.920563
-0.020746 0.856782 0.515261
0.073701 0.958704 0.274692
-0.293059 0.867848 0.401193
0.073701 0.958704 0.274692
-0.318472 0.915082 0.247386
-0.293059 0.867848 0.401193
0.266618 0.558064 0.785798
0.522819 0.494933 0.694047
0.260590 0.773787 0.577362
0.522819 0.494933 0.694047
0.382046 0.795449 0.470427
0.260590 0.773787 0.577362
0.266653 0.558068 0.785784
0.256183 0.294858 0.920559
0.522819 0.494955 0.694032
0.256183 0.294858 0.920559
0.384487 0.184633 0.904478
0.522819 0.494955 0.694032
-0.481609 0.286499 0.828233
-0.641797 0.072048 0.763482
-0.291478 0.093791 0.951968
-0.641797 0.072048 0.763482
-0.321506 -0.067666 0.944487
-0.291478 0.093791 0.951968
-0.481615 0.286503 0.828229
-0.633983 0.448717 0.629856
-0.641788 0.072035 0.763492
-0.633983 0.448717 0.629856
-0.750155 0.381188 0.540336
-0.641788 0.072035 0.763492
</float_array>
          <technique_common>
            <accessor source="#inner-Normal0-array" count="90" stride="3">
              <param name="X" type="float"/>
              <param name="Y" type="float"/>
              <param name="Z" type="float"/>
            </accessor>
          </technique_common>
        </source>
        <source id="inner-UV0">
          <float_array id="inner-UV0-array" count="120">
0.110854 0.870253
0.104000 0.870829
0.110854 0.861044
0.096894 0.861044
0.099754 0.883875
0.104967 0.888288
0.088233 0.887617
0.099543 0.895771
0.104967 0.888288
0.110854 0.880230
0.110854 0.891933
0.116740 0.888288
0.104967 0.888288
0.110854 0.891933
0.099543 0.895771
0.110854 0.904021
0.120356 0.877160
0.129144 0.874282
0.121954 0.883875
0.133475 0.887617
0.120356 0.877160
0.110854 0.880230
0.117707 0.870829
0.110854 0.870253
0.116740 0.888288
0.110854 0.880230
0.121954 0.883875
0.120356 0.877160
0.120356 0.877160
0.117707 0.870829
0.129144 0.874282
0.124855 0.861044
0.110854 0.870253
0.110854 0.880230
0.104000 0.870829
0.101351 0.877160
0.101351 0.877160
0.110854 0.880230
0.099754 0.883875
0.104967 0.888288
0.110854 0.870253
0.110854 0.861044
0.117707 0.870829
0.124855 0.861044
0.101351 0.877160
0.092564 0.874282
0.104000 0.870829
0.096894 0.861044
0.101351 0.877160
0.099754 0.883875
0.092564 0.874282
0.088233 0.887617
0.116740 0.888288
0.122164 0.895771
0.110854 0.891933
0.110854 0.904021
0.116740 0.888288
0.121954 0.883875
0.122164 0.895771
0.133475 0.887617
</float_array>
          <technique_common>
            <accessor source="#inner-UV0-array" count="60" stride="2">
              <param name="S" type="float"/>
              <param name="T" type="float"/>
            </accessor>
          </technique_common>
        </source>
        <vertices id="inner-VERTEX">
          <input semantic="POSITION" source="#inner-POSITION"/>
        </vertices>
        <triangles count="30" material="Base_Material">
          <input semantic="VERTEX" offset="0" source="#inner-VERTEX"/>
          <input semantic="NORMAL" offset="1" source="#inner-Normal0"/>
          <input semantic="TEXCOORD" offset="2" set="0" source="#inner-UV0"/>
          <p> 0 0 0 1 1 1 2 2 2 1 3 1 3 4 3 2 5 2 4 6 4 5 7 5 6 8 6 5 9 5 7 10 7 6 11 6 8 12 8 9 13 9 10 14 10 9 15 9 11 16 11 10 17 10 12 18 12 13 19 13 14 20 14 13 21 13 15 22 15 14 23 14 16 24 16 17 25 17 18 26 18 17 27 17 19 28 19 18 29 18 20 30 20 21 31 21 22 32 22 21 33 21 23 34 23 22 35 22 24 36 24 25 37 25 26 38 26 25 39 25 27 40 27 26 41 26 28 42 28 29 43 29 30 44 30 29 45 29 31 46 31 30 47 30 32 48 32 33 49 33 34 50 34 33 51 33 35 52 35 34 53 34 36 54 36 37 55 37 38 56 38 37 57 37 39 58 39 38 59 38 40 60 40 41 61 41 42 62 42 41 63 41 43 64 43 42 65 42 44 66 44 45 67 45 46 68 46 45 69 45 47 70 47 46 71 46 48 72 48 49 73 49 50 74 50 49 75 49 51 76 51 50 77 50 52 78 52 53 79 53 54 80 54 53 81 53 55 82 55 54 83 54 56 84 56 57 85 57 58 86 58 57 87 57 59 88 59 58 89 58</p>
        </triangles>
      </mesh>
    </geometry>
  </library_geometries>
  <library_visual_scenes>
    <visual_scene id="flower" name="flower">
      <node name="flower" id="flower" sid="flower">
        <matrix sid="matrix">1.000000 0.000000 0.000000 -0.804965 0.000000 0.846201 -0.532863 8.436024 0.000000 0.532863 0.846201 6.617452 0.000000 0.000000 0.000000 1.000000</matrix>
        <extra>
          <technique profile="FCOLLADA">
            <visibility>1.000000</visibility>
          </technique>
        </extra>
        <node name="sides" id="sides" sid="sides">
          <matrix sid="matrix">1.000000 0.000000 0.000000 2.505292 0.000000 1.000000 -0.000000 -2.233708 0.000000 0.000000 1.000000 -3.547186 0.000000 0.000000 0.000000 1.000000</matrix>
          <instance_geometry url="#sides-lib">
            <bind_material>
              <technique_common>
                <instance_material symbol="Base_Material" target="#Base_Material"/>
              </technique_common>
            </bind_material>
          </instance_geometry>
          <extra>
            <technique profile="FCOLLADA">
              <visibility>1.000000</visibility>
            </technique>
          </extra>
        </node>
        <node name="inner" id="inner" sid="inner">
          <matrix sid="matrix">1.000000 0.000000 0.000000 2.505292 0.000000 1.000000 -0.000000 -2.233708 0.000000 0.000000 1.000000 -3.547186 0.000000 0.000000 0.000000 1.000000</matrix>
          <instance_geometry url="#inner-lib">
            <bind_material>
              <technique_common>
                <instance_material symbol="Base_Material" target="#Base_Material"/>
              </technique_common>
            </bind_material>
          </instance_geometry>
          <extra>
            <technique profile="FCOLLADA">
              <visibility>1.000000</visibility>
            </technique>
          </extra>
        </node>
      </node>
      <extra>
        <technique profile="MAX3D">
          <frame_rate>24.000000</frame_rate>
        </technique>
        <technique profile="FCOLLADA">
          <start_time>0.041667</start_time>
          <end_time>8.333333</end_time>
        </technique>
      </extra>
    </visual_scene>
  </library_visual_scenes>
  <scene>
    <instance_visual_scene url="#flower"/>
  </scene>
</COLLADA>
