<?xml version="1.0" encoding="utf-8"?>
<COLLADA xmlns="http://www.collada.org/2005/11/COLLADASchema" version="1.4.1">
  <asset>
    <contributor>
      <author/>
      <authoring_tool>FBX COLLADA exporter</authoring_tool>
      <comments/>
    </contributor>
    <created>2024-06-24T00:19:11Z</created>
    <keywords/>
    <modified>2024-06-24T00:19:11Z</modified>
    <revision/>
    <subject/>
    <title/>
    <unit meter="0.010000" name="centimeter"/>
    <up_axis>Y_UP</up_axis>
  </asset>
  <library_images>
    <image id="base_color_texture1-image" name="base_color_texture1">
      <init_from>file://D:\Alex\3D WORK\[3D] RETURN\[5] 袪邪斜芯褌邪 褋 CGTrader.com\[3] 袚芯褌芯胁褘械 屑芯写械谢懈\Low-Poly Forest Nature Set (project)\files\texture_gradient.png</init_from>
    </image>
  </library_images>
  <library_materials>
    <material id="AllColors_Material" name="AllColors_Material">
      <instance_effect url="#AllColors_Material-fx"/>
    </material>
  </library_materials>
  <library_effects>
    <effect id="AllColors_Material-fx" name="AllColors_Material">
      <profile_COMMON>
        <technique sid="standard">
          <phong>
            <emission>
              <color sid="emission">0.000000  0.000000 0.000000 1.000000</color>
            </emission>
            <ambient>
              <color sid="ambient">0.000000  0.000000 0.000000 1.000000</color>
            </ambient>
            <diffuse>
              <texture texture="base_color_texture1-image" texcoord="CHANNEL0">
                <extra>
                  <technique profile="MAYA">
                    <wrapU sid="wrapU0">TRUE</wrapU>
                    <wrapV sid="wrapV0">TRUE</wrapV>
                    <blend_mode>NONE</blend_mode>
                  </technique>
                </extra>
              </texture>
            </diffuse>
            <specular>
              <color sid="specular">0.200000  0.200000 0.200000 1.000000</color>
            </specular>
            <shininess>
              <float sid="shininess">36.000000</float>
            </shininess>
            <reflective>
              <color sid="reflective">0.800000  0.800000 0.800000 1.000000</color>
            </reflective>
            <reflectivity>
              <float sid="reflectivity">0.000000</float>
            </reflectivity>
            <transparent opaque="RGB_ZERO">
              <color sid="transparent">0.000000  0.000000 0.000000 1.000000</color>
            </transparent>
            <transparency>
              <float sid="transparency">1.000000</float>
            </transparency>
          </phong>
        </technique>
      </profile_COMMON>
    </effect>
  </library_effects>
  <library_geometries>
    <geometry id="Log_big_knotty1-lib" name="Log_big_knotty1Mesh">
      <mesh>
        <source id="Log_big_knotty1-POSITION">
          <float_array id="Log_big_knotty1-POSITION-array" count="309">
-3.888186 0.926703 0.845807
-1.609605 1.254995 0.847406
-3.693828 0.494816 0.180229
-1.351464 0.851832 -0.023602
-4.082909 -0.350570 0.141086
-1.609485 -0.152845 -0.028002
-3.817096 -0.992074 0.621807
-1.626042 -1.036649 0.630729
-4.147334 -0.943438 1.548537
-1.453449 -0.944364 1.651483
-4.115407 -0.105411 1.953210
-1.628752 0.071164 2.025115
-3.931848 0.695018 1.629187
-1.610471 0.954329 1.717195
1.662447 0.730450 0.132971
1.418843 1.067223 0.937448
1.419131 -0.275755 0.102539
1.419004 -0.893400 0.725876
1.601685 -0.966225 1.708396
1.386268 -0.078835 2.010697
1.443516 0.755715 1.757716
4.113708 0.530056 0.155962
4.098343 0.908824 0.853629
3.952853 -0.302248 0.101336
3.954326 -0.870126 0.674447
3.952766 -0.911503 1.497622
4.060133 -0.104088 1.875131
4.007782 0.649911 1.607321
-3.842012 1.110958 0.821810
-3.684064 0.592587 0.024547
-4.085496 -0.393135 -0.021758
-3.807288 -1.145315 0.545556
-4.154231 -1.090726 1.651350
-4.100927 -0.101834 2.127913
-3.887417 0.835990 1.748127
-3.738822 0.910924 0.840260
-3.570250 0.480412 0.173986
-3.942354 -0.364310 0.135106
-3.688810 -1.008921 0.616031
-3.991401 -0.958834 1.543709
-3.993696 -0.121569 1.948966
-3.787356 0.679372 1.624614
-3.744120 -0.001035 1.074464
4.122974 0.616047 0.020598
4.096273 1.060118 0.839755
3.954648 -0.357073 -0.042455
3.954733 -1.009841 0.616197
3.956190 -1.058562 1.584671
4.047668 -0.114510 2.026615
3.984260 0.759203 1.716302
4.000134 0.530410 0.153317
3.963945 0.909584 0.850984
3.831285 -0.301794 0.098691
3.832742 -0.869622 0.671802
3.848414 -0.911097 1.494977
3.957195 -0.103551 1.872486
3.881569 0.650445 1.604676
3.823981 0.095802 1.060752
0.948734 0.775694 0.091729
0.702226 -0.233204 0.067561
0.887063 -0.934742 1.696801
0.674654 0.050957 2.059067
0.701902 1.132332 0.914688
0.701725 -0.858971 0.700059
0.731484 0.893316 1.802876
1.738439 1.090151 2.319921
1.717278 0.639588 2.449924
1.404390 0.719848 2.650163
1.422144 1.173023 2.517676
-1.107454 -0.953176 0.652204
-1.095462 0.104957 2.030097
2.278550 0.875844 2.805418
-1.091324 -0.141001 -0.003495
-1.085665 0.962830 1.734449
-0.837942 0.857848 0.005240
-0.935852 -0.923454 1.658768
-1.091598 1.252788 0.862837
-4.099316 -1.114301 1.098159
-1.658923 -1.031182 1.107388
-4.004935 0.973505 1.284857
-1.609886 1.104893 1.282301
1.510198 -0.929556 1.217098
1.431227 0.910941 1.347731
3.996738 -1.034316 1.100434
4.095823 0.910411 1.278029
-4.085031 -0.966059 1.085012
-4.025624 0.810481 1.237471
-3.922276 -0.982556 1.079759
-3.867255 0.794931 1.232414
-3.908168 -0.066843 1.512450
3.993530 -0.890773 1.086034
4.099265 0.779950 1.230475
3.889057 -0.890345 1.083390
3.964993 0.780397 1.227830
3.945632 -0.003461 1.466619
0.716565 1.009491 1.359453
0.794032 -0.892416 1.198243
-1.130680 -0.959906 1.122068
-1.088814 1.108377 1.298631
-1.029561 -1.362044 1.147556
-0.980075 -1.516082 0.929958
-0.712706 -1.444699 0.926273
-0.758838 -1.284662 1.142398
</float_array>
          <technique_common>
            <accessor source="#Log_big_knotty1-POSITION-array" count="103" stride="3">
              <param name="X" type="float"/>
              <param name="Y" type="float"/>
              <param name="Z" type="float"/>
            </accessor>
          </technique_common>
        </source>
        <source id="Log_big_knotty1-Normal0">
          <float_array id="Log_big_knotty1-Normal0-array" count="1818">
-0.078797 0.864162 -0.497006
-0.078797 0.864162 -0.497006
-0.078797 0.864162 -0.497006
-0.078797 0.864162 -0.497006
-0.078797 0.864162 -0.497006
-0.078797 0.864162 -0.497006
-0.014448 0.030247 -0.999438
-0.014448 0.030247 -0.999438
-0.014448 0.030247 -0.999438
-0.014448 0.030247 -0.999438
-0.014448 0.030247 -0.999438
-0.014448 0.030247 -0.999438
0.058026 -0.592735 -0.803305
0.058026 -0.592735 -0.803305
0.058026 -0.592735 -0.803305
0.058026 -0.592735 -0.803305
0.058026 -0.592735 -0.803305
0.058026 -0.592735 -0.803305
0.044223 -0.994590 0.093993
0.044223 -0.994590 0.093993
0.044223 -0.994590 0.093993
0.044223 -0.994590 0.093993
0.044223 -0.994590 0.093993
0.044223 -0.994590 0.093993
0.042224 -0.387958 0.920709
0.042224 -0.387958 0.920709
0.042224 -0.387958 0.920709
0.042224 -0.387958 0.920709
0.042224 -0.387958 0.920709
0.042224 -0.387958 0.920709
0.054049 0.013915 -0.998441
0.054049 0.013915 -0.998441
0.054049 0.013915 -0.998441
0.054049 0.013915 -0.998441
0.054049 0.013915 -0.998441
0.054049 0.013915 -0.998441
0.004707 0.352772 0.935698
0.004707 0.352772 0.935698
0.004707 0.352772 0.935698
0.004707 0.352772 0.935698
0.004707 0.352772 0.935698
0.004707 0.352772 0.935698
-0.058236 0.953768 0.294848
-0.058236 0.953768 0.294848
-0.058236 0.953768 0.294848
-0.058236 0.953768 0.294848
-0.058236 0.953768 0.294848
-0.058236 0.953768 0.294848
0.039351 -0.063757 0.997189
0.039351 -0.063757 0.997189
0.039351 -0.063757 0.997189
0.039351 -0.063757 0.997189
0.039351 -0.063757 0.997189
0.039351 -0.063757 0.997189
0.006733 0.940239 0.340449
0.006733 0.940239 0.340449
0.006733 0.940239 0.340449
0.006733 0.940239 0.340449
0.006733 0.940239 0.340449
0.006733 0.940239 0.340449
-0.013851 -0.337152 0.941348
-0.013851 -0.337152 0.941348
-0.013851 -0.337152 0.941348
-0.013851 -0.337152 0.941348
-0.013851 -0.337152 0.941348
-0.013851 -0.337152 0.941348
0.087863 0.925691 -0.367936
0.087863 0.925691 -0.367936
0.087863 0.925691 -0.367936
0.087863 0.925691 -0.367936
0.087863 0.925691 -0.367936
0.087863 0.925691 -0.367936
-0.008317 -0.710586 -0.703562
-0.008317 -0.710586 -0.703562
-0.008317 -0.710586 -0.703562
-0.008317 -0.710586 -0.703562
-0.008317 -0.710586 -0.703562
-0.008317 -0.710586 -0.703562
0.060836 -0.624688 0.778501
0.060836 -0.624688 0.778501
0.060836 -0.624688 0.778501
0.060836 -0.624688 0.778501
0.060836 -0.624688 0.778501
0.060836 -0.624688 0.778501
-0.047868 -0.996974 -0.061255
-0.047868 -0.996974 -0.061255
-0.047868 -0.996974 -0.061255
-0.047868 -0.996974 -0.061255
-0.047868 -0.996974 -0.061255
-0.047868 -0.996974 -0.061255
0.167482 0.941039 0.293930
0.167482 0.941039 0.293930
0.167482 0.941039 0.293930
0.167482 0.941039 0.293930
0.167482 0.941039 0.293930
0.167482 0.941039 0.293930
-0.012513 0.710285 0.703803
-0.012513 0.710285 0.703803
-0.012513 0.710285 0.703803
-0.012513 0.710285 0.703803
-0.012513 0.710285 0.703803
-0.012513 0.710285 0.703803
0.010324 -0.375853 0.926622
0.010324 -0.375853 0.926622
0.010324 -0.375853 0.926622
0.010324 -0.375853 0.926622
0.010324 -0.375853 0.926622
0.010324 -0.375853 0.926622
-0.062923 -0.708898 -0.702499
-0.062923 -0.708898 -0.702499
-0.062923 -0.708898 -0.702499
-0.062923 -0.708898 -0.702499
-0.062923 -0.708898 -0.702499
-0.062923 -0.708898 -0.702499
0.003618 0.901427 -0.432915
0.003618 0.901427 -0.432915
0.003618 0.901427 -0.432915
0.003618 0.901427 -0.432915
0.003618 0.901427 -0.432915
0.003618 0.901427 -0.432915
0.006592 0.313174 0.949673
0.006592 0.313174 0.949673
0.006592 0.313174 0.949673
0.006592 0.313174 0.949673
0.006592 0.313174 0.949673
0.006592 0.313174 0.949673
-0.046436 -0.997370 -0.055651
-0.046436 -0.997370 -0.055651
-0.046436 -0.997370 -0.055651
-0.046436 -0.997370 -0.055651
-0.046436 -0.997370 -0.055651
-0.046436 -0.997370 -0.055651
-0.049122 0.057312 -0.997147
-0.049122 0.057312 -0.997147
-0.049122 0.057312 -0.997147
-0.049122 0.057312 -0.997147
-0.049122 0.057312 -0.997147
-0.049122 0.057312 -0.997147
-0.967019 0.030712 -0.252844
-0.967019 0.030712 -0.252844
-0.967019 0.030712 -0.252844
-0.967019 0.030712 -0.252844
-0.967019 0.030712 -0.252844
-0.967019 0.030712 -0.252844
-0.917863 0.394032 0.047614
-0.917863 0.394032 0.047614
-0.917863 0.394032 0.047614
-0.917863 0.394032 0.047614
-0.917863 0.394032 0.047614
-0.917863 0.394032 0.047614
-0.954573 -0.244020 0.171009
-0.954573 -0.244020 0.171009
-0.954573 -0.244020 0.171009
-0.954573 -0.244020 0.171009
-0.954573 -0.244020 0.171009
-0.954573 -0.244020 0.171009
-0.867289 0.114290 -0.484509
-0.867289 0.114290 -0.484509
-0.867289 0.114290 -0.484509
-0.867289 0.114290 -0.484509
-0.867289 0.114290 -0.484509
-0.867289 0.114290 -0.484509
-0.998795 0.026750 0.041142
-0.998795 0.026750 0.041142
-0.998795 0.026750 0.041142
-0.998795 0.026750 0.041142
-0.998795 0.026750 0.041142
-0.998795 0.026750 0.041142
-0.965802 0.249368 0.071004
-0.965802 0.249368 0.071004
-0.965802 0.249368 0.071004
-0.965802 0.249368 0.071004
-0.965802 0.249368 0.071004
-0.965802 0.249368 0.071004
-0.964017 0.065544 0.257632
-0.964017 0.065544 0.257632
-0.964017 0.065544 0.257632
-0.964017 0.065544 0.257632
-0.964017 0.065544 0.257632
-0.964017 0.065544 0.257632
-0.987423 0.156052 0.025358
-0.987423 0.156052 0.025358
-0.987423 0.156052 0.025358
-0.987423 0.156052 0.025358
-0.987423 0.156052 0.025358
-0.987423 0.156052 0.025358
0.098399 0.994505 -0.035748
0.098399 0.994505 -0.035748
0.098399 0.994505 -0.035748
0.098399 0.994505 -0.035748
0.098399 0.994505 -0.035748
0.098399 0.994505 -0.035748
-0.073687 -0.358805 -0.930499
-0.073687 -0.358805 -0.930499
-0.073687 -0.358805 -0.930499
-0.073687 -0.358805 -0.930499
-0.073687 -0.358805 -0.930499
-0.073687 -0.358805 -0.930499
-0.070722 -0.845974 0.528513
-0.070722 -0.845974 0.528513
-0.070722 -0.845974 0.528513
-0.070722 -0.845974 0.528513
-0.070722 -0.845974 0.528513
-0.070722 -0.845974 0.528513
-0.905508 0.162243 -0.392089
-0.905508 0.162243 -0.392089
-0.905508 0.162243 -0.392089
-0.905508 0.162243 -0.392089
-0.905508 0.162243 -0.392089
-0.905508 0.162243 -0.392089
-0.947904 -0.173528 0.267145
-0.947904 -0.173528 0.267145
-0.947904 -0.173528 0.267145
-0.976279 0.200714 -0.081193
-0.976279 0.200714 -0.081193
-0.976279 0.200714 -0.081193
-0.976279 0.200714 -0.081193
-0.976279 0.200714 -0.081193
-0.976279 0.200714 -0.081193
-0.106863 -0.942862 -0.315581
-0.106863 -0.942862 -0.315581
-0.106863 -0.942862 -0.315581
-0.106863 -0.942862 -0.315581
-0.106863 -0.942862 -0.315581
-0.106863 -0.942862 -0.315581
0.020011 0.434885 -0.900264
0.020011 0.434885 -0.900264
0.020011 0.434885 -0.900264
0.020011 0.434885 -0.900264
0.020011 0.434885 -0.900264
0.020011 0.434885 -0.900264
0.104722 0.622314 0.775731
0.104722 0.622314 0.775731
0.104722 0.622314 0.775731
0.104722 0.622314 0.775731
0.104722 0.622314 0.775731
0.104722 0.622314 0.775731
0.999412 -0.009600 0.032926
0.999412 -0.009600 0.032926
0.999412 -0.009600 0.032926
0.999412 -0.009600 0.032926
0.999412 -0.009600 0.032926
0.999412 -0.009600 0.032926
0.983390 -0.180527 0.018811
0.983390 -0.180527 0.018811
0.983390 -0.180527 0.018811
0.983390 -0.180527 0.018811
0.983390 -0.180527 0.018811
0.983390 -0.180527 0.018811
0.999969 0.006229 0.004905
0.999969 0.006229 0.004905
0.999969 0.006229 0.004905
0.999969 0.006229 0.004905
0.999969 0.006229 0.004905
0.999969 0.006229 0.004905
0.994137 0.055156 0.093004
0.994137 0.055156 0.093004
0.994137 0.055156 0.093004
0.994137 0.055156 0.093004
0.994137 0.055156 0.093004
0.994137 0.055156 0.093004
0.994614 -0.099748 -0.028153
0.994614 -0.099748 -0.028153
0.994614 -0.099748 -0.028153
0.994614 -0.099748 -0.028153
0.994614 -0.099748 -0.028153
0.994614 -0.099748 -0.028153
0.989752 0.104827 0.096962
0.989752 0.104827 0.096962
0.989752 0.104827 0.096962
0.989752 0.104827 0.096962
0.989752 0.104827 0.096962
0.989752 0.104827 0.096962
0.999805 0.018857 0.005866
0.999805 0.018857 0.005866
0.999805 0.018857 0.005866
0.999805 0.018857 0.005866
0.999805 0.018857 0.005866
0.999805 0.018857 0.005866
0.978997 -0.173599 0.106901
0.978997 -0.173599 0.106901
0.978997 -0.173599 0.106901
0.978997 -0.173599 0.106901
0.978997 -0.173599 0.106901
0.978997 -0.173599 0.106901
0.025056 0.420628 -0.906887
0.025056 0.420628 -0.906887
0.025056 0.420628 -0.906887
0.025056 0.420628 -0.906887
0.025056 0.420628 -0.906887
0.025056 0.420628 -0.906887
0.003048 -0.945549 -0.325467
0.003048 -0.945549 -0.325467
0.003048 -0.945549 -0.325467
0.003048 -0.945549 -0.325467
0.003048 -0.945549 -0.325467
0.003048 -0.945549 -0.325467
-0.022657 -0.061009 0.997880
-0.022657 -0.061009 0.997880
-0.022657 -0.061009 0.997880
-0.022657 -0.061009 0.997880
-0.022657 -0.061009 0.997880
-0.022657 -0.061009 0.997880
0.999963 0.007218 0.004609
0.999963 0.007218 0.004609
0.999963 0.007218 0.004609
0.990940 0.073323 0.112528
0.990940 0.073323 0.112528
0.990940 0.073323 0.112528
0.990940 0.073323 0.112528
0.990940 0.073323 0.112528
0.990940 0.073323 0.112528
0.994184 -0.105872 0.019716
0.994184 -0.105872 0.019716
0.994184 -0.105872 0.019716
0.994184 -0.105872 0.019716
0.994184 -0.105872 0.019716
0.994184 -0.105872 0.019716
-0.014121 -0.878860 0.476871
-0.014121 -0.878860 0.476871
-0.014121 -0.878860 0.476871
-0.014121 -0.878860 0.476871
-0.014121 -0.878860 0.476871
-0.014121 -0.878860 0.476871
0.020203 -0.333109 -0.942672
0.020203 -0.333109 -0.942672
0.020203 -0.333109 -0.942672
0.020203 -0.333109 -0.942672
0.020203 -0.333109 -0.942672
0.020203 -0.333109 -0.942672
0.002950 0.998752 0.049851
0.002950 0.998752 0.049851
0.002950 0.998752 0.049851
0.002950 0.998752 0.049851
0.002950 0.998752 0.049851
0.002950 0.998752 0.049851
0.034388 0.958065 0.284479
0.034388 0.958065 0.284479
0.034388 0.958065 0.284479
0.034388 0.958065 0.284479
0.034388 0.958065 0.284479
0.034388 0.958065 0.284479
0.044700 -0.998004 -0.044608
0.044700 -0.998004 -0.044608
0.044700 -0.998004 -0.044608
0.044700 -0.998004 -0.044608
0.044700 -0.998004 -0.044608
0.044700 -0.998004 -0.044608
-0.015170 0.309216 0.950871
-0.015170 0.309216 0.950871
-0.015170 0.309216 0.950871
-0.015170 0.309216 0.950871
-0.015170 0.309216 0.950871
-0.015170 0.309216 0.950871
0.024942 -0.667212 -0.744450
0.024942 -0.667212 -0.744450
0.024942 -0.667212 -0.744450
0.024942 -0.667212 -0.744450
0.024942 -0.667212 -0.744450
0.024942 -0.667212 -0.744450
0.067052 0.918104 -0.390626
0.067052 0.918104 -0.390626
0.067052 0.918104 -0.390626
0.067052 0.918104 -0.390626
0.067052 0.918104 -0.390626
0.067052 0.918104 -0.390626
-0.023778 -0.346012 0.937929
-0.023778 -0.346012 0.937929
-0.023778 -0.346012 0.937929
-0.023778 -0.346012 0.937929
-0.023778 -0.346012 0.937929
-0.023778 -0.346012 0.937929
0.044221 0.005361 -0.999007
0.044221 0.005361 -0.999007
0.044221 0.005361 -0.999007
0.044221 0.005361 -0.999007
0.044221 0.005361 -0.999007
0.044221 0.005361 -0.999007
0.301369 0.949801 0.083990
0.301369 0.949801 0.083990
0.301369 0.949801 0.083990
0.906156 -0.170620 -0.387000
0.906156 -0.170620 -0.387000
0.906156 -0.170620 -0.387000
0.906156 -0.170620 -0.387000
0.906156 -0.170620 -0.387000
0.906156 -0.170620 -0.387000
0.074594 0.874984 -0.478372
0.074594 0.874984 -0.478372
0.074594 0.874984 -0.478372
0.074594 0.874984 -0.478372
0.074594 0.874984 -0.478372
0.074594 0.874984 -0.478372
-0.737862 0.232573 0.633617
-0.737862 0.232573 0.633617
-0.737862 0.232573 0.633617
-0.737862 0.232573 0.633617
-0.737862 0.232573 0.633617
-0.737862 0.232573 0.633617
0.006802 -0.341445 0.939877
0.006802 -0.341445 0.939877
0.006802 -0.341445 0.939877
0.006802 -0.341445 0.939877
0.006802 -0.341445 0.939877
0.006802 -0.341445 0.939877
0.590876 -0.249152 -0.767326
0.590876 -0.249152 -0.767326
0.590876 -0.249152 -0.767326
-0.216304 0.281761 0.934785
-0.216304 0.281761 0.934785
-0.216304 0.281761 0.934785
0.073924 -0.880418 0.468401
0.073924 -0.880418 0.468401
0.073924 -0.880418 0.468401
0.051757 -0.006664 -0.998638
0.051757 -0.006664 -0.998638
0.051757 -0.006664 -0.998638
0.051757 -0.006664 -0.998638
0.051757 -0.006664 -0.998638
0.051757 -0.006664 -0.998638
0.014479 0.909432 -0.415600
0.014479 0.909432 -0.415600
0.014479 0.909432 -0.415600
0.014479 0.909432 -0.415600
0.014479 0.909432 -0.415600
0.014479 0.909432 -0.415600
0.091060 -0.611136 -0.786270
0.091060 -0.611136 -0.786270
0.091060 -0.611136 -0.786270
0.091060 -0.611136 -0.786270
0.091060 -0.611136 -0.786270
0.091060 -0.611136 -0.786270
-0.032946 0.327843 0.944158
-0.032946 0.327843 0.944158
-0.032946 0.327843 0.944158
-0.032946 0.327843 0.944158
-0.032946 0.327843 0.944158
-0.032946 0.327843 0.944158
0.740189 0.668259 -0.074507
0.740189 0.668259 -0.074507
0.740189 0.668259 -0.074507
0.740189 0.668259 -0.074507
0.740189 0.668259 -0.074507
0.740189 0.668259 -0.074507
-0.021185 0.946519 0.321953
-0.021185 0.946519 0.321953
-0.021185 0.946519 0.321953
-0.021185 0.946519 0.321953
-0.021185 0.946519 0.321953
-0.021185 0.946519 0.321953
-0.010959 0.947210 0.320428
-0.010959 0.947210 0.320428
-0.010959 0.947210 0.320428
-0.010959 0.947210 0.320428
-0.010959 0.947210 0.320428
-0.010959 0.947210 0.320428
0.085815 -0.992975 0.081469
0.085815 -0.992975 0.081469
0.085815 -0.992975 0.081469
0.085815 -0.992975 0.081469
0.085815 -0.992975 0.081469
0.085815 -0.992975 0.081469
0.015297 -0.999834 -0.009927
0.015297 -0.999834 -0.009927
0.015297 -0.999834 -0.009927
0.015297 -0.999834 -0.009927
0.015297 -0.999834 -0.009927
0.015297 -0.999834 -0.009927
0.049213 0.956010 0.289177
0.049213 0.956010 0.289177
0.049213 0.956010 0.289177
0.049213 0.956010 0.289177
0.049213 0.956010 0.289177
0.049213 0.956010 0.289177
0.002708 0.998716 0.050596
0.002708 0.998716 0.050596
0.002708 0.998716 0.050596
0.002708 0.998716 0.050596
0.002708 0.998716 0.050596
0.002708 0.998716 0.050596
0.977152 0.059800 -0.203956
0.977152 0.059800 -0.203956
0.977152 0.059800 -0.203956
0.977152 0.059800 -0.203956
0.977152 0.059800 -0.203956
0.977152 0.059800 -0.203956
0.968775 -0.151678 -0.196137
0.968775 -0.151678 -0.196137
0.968775 -0.151678 -0.196137
0.968775 -0.151678 -0.196137
0.968775 -0.151678 -0.196137
0.968775 -0.151678 -0.196137
0.002127 -0.946076 -0.323937
0.002127 -0.946076 -0.323937
0.002127 -0.946076 -0.323937
0.002127 -0.946076 -0.323937
0.002127 -0.946076 -0.323937
0.002127 -0.946076 -0.323937
0.972715 -0.039827 0.228561
0.972715 -0.039827 0.228561
0.972715 -0.039827 0.228561
0.972715 -0.039827 0.228561
0.972715 -0.039827 0.228561
0.972715 -0.039827 0.228561
0.995686 0.026475 -0.088927
0.995686 0.026475 -0.088927
0.995686 0.026475 -0.088927
0.995686 0.026475 -0.088927
0.995686 0.026475 -0.088927
0.995686 0.026475 -0.088927
-0.107110 -0.959880 -0.259148
-0.107110 -0.959880 -0.259148
-0.107110 -0.959880 -0.259148
-0.107110 -0.959880 -0.259148
-0.107110 -0.959880 -0.259148
-0.107110 -0.959880 -0.259148
-0.982419 0.085861 -0.165772
-0.982419 0.085861 -0.165772
-0.982419 0.085861 -0.165772
-0.982419 0.085861 -0.165772
-0.982419 0.085861 -0.165772
-0.982419 0.085861 -0.165772
0.114032 0.993462 0.005544
0.114032 0.993462 0.005544
0.114032 0.993462 0.005544
0.114032 0.993462 0.005544
0.114032 0.993462 0.005544
0.114032 0.993462 0.005544
-0.935114 -0.075979 -0.346106
-0.935114 -0.075979 -0.346106
-0.935114 -0.075979 -0.346106
-0.935114 -0.075979 -0.346106
-0.935114 -0.075979 -0.346106
-0.935114 -0.075979 -0.346106
-0.941486 0.199560 -0.271627
-0.941486 0.199560 -0.271627
-0.941486 0.199560 -0.271627
-0.941486 0.199560 -0.271627
-0.941486 0.199560 -0.271627
-0.941486 0.199560 -0.271627
-0.992955 0.025790 -0.115651
-0.992955 0.025790 -0.115651
-0.992955 0.025790 -0.115651
-0.992955 0.025790 -0.115651
-0.992955 0.025790 -0.115651
-0.992955 0.025790 -0.115651
-0.043581 -0.997247 -0.059995
-0.043581 -0.997247 -0.059995
-0.043581 -0.997247 -0.059995
-0.043581 -0.997247 -0.059995
-0.043581 -0.997247 -0.059995
-0.043581 -0.997247 -0.059995
0.105821 0.946275 0.305556
0.105821 0.946275 0.305556
0.105821 0.946275 0.305556
0.105821 0.946275 0.305556
0.105821 0.946275 0.305556
0.105821 0.946275 0.305556
-0.046281 -0.996410 -0.070891
-0.046281 -0.996410 -0.070891
-0.046281 -0.996410 -0.070891
-0.046281 -0.996410 -0.070891
-0.046281 -0.996410 -0.070891
-0.046281 -0.996410 -0.070891
0.011969 0.940694 0.339046
0.011969 0.940694 0.339046
0.011969 0.940694 0.339046
0.011969 0.940694 0.339046
0.011969 0.940694 0.339046
0.011969 0.940694 0.339046
-0.048511 0.949244 0.310777
-0.048511 0.949244 0.310777
-0.048511 0.949244 0.310777
-0.048511 0.949244 0.310777
-0.048511 0.949244 0.310777
-0.048511 0.949244 0.310777
0.040432 -0.998022 0.048136
0.040432 -0.998022 0.048136
0.040432 -0.998022 0.048136
0.040432 -0.998022 0.048136
0.040432 -0.998022 0.048136
0.040432 -0.998022 0.048136
0.221672 -0.765927 0.603504
0.221672 -0.765927 0.603504
0.221672 -0.765927 0.603504
0.221672 -0.765927 0.603504
0.221672 -0.765927 0.603504
0.221672 -0.765927 0.603504
-0.555324 -0.822476 0.123079
-0.555324 -0.822476 0.123079
-0.555324 -0.822476 0.123079
-0.555324 -0.822476 0.123079
-0.555324 -0.822476 0.123079
-0.555324 -0.822476 0.123079
0.103385 -0.421210 -0.901051
0.103385 -0.421210 -0.901051
0.103385 -0.421210 -0.901051
0.103385 -0.421210 -0.901051
0.103385 -0.421210 -0.901051
0.103385 -0.421210 -0.901051
-0.022608 0.057575 0.998085
-0.022608 0.057575 0.998085
-0.022608 0.057575 0.998085
-0.022608 0.057575 0.998085
-0.022608 0.057575 0.998085
-0.022608 0.057575 0.998085
</float_array>
          <technique_common>
            <accessor source="#Log_big_knotty1-Normal0-array" count="606" stride="3">
              <param name="X" type="float"/>
              <param name="Y" type="float"/>
              <param name="Z" type="float"/>
            </accessor>
          </technique_common>
        </source>
        <source id="Log_big_knotty1-UV0">
          <float_array id="Log_big_knotty1-UV0-array" count="248">
0.578405 0.647103
0.557082 0.769994
0.550357 0.809801
0.578277 0.661414
0.577375 0.688909
0.552787 0.947911
0.518772 0.809801
0.571708 0.529452
0.177013 0.197912
0.573864 0.954305
0.518815 0.769994
0.150734 0.248733
0.557751 0.954382
0.557825 0.947769
0.551016 0.769994
0.531003 0.534475
0.533295 0.527465
0.145444 0.358178
0.118968 0.254217
0.528915 0.780129
0.571858 0.537303
0.553101 0.536796
0.176513 0.195203
0.572328 0.967896
0.143274 0.464301
0.519734 0.954380
0.147534 0.347063
0.540158 0.674777
0.553053 0.647103
0.523993 0.954678
0.572935 0.523648
0.540458 0.647103
0.529480 0.685375
0.542117 0.954592
0.118298 0.353934
0.116423 0.365874
0.168640 0.380511
0.516754 0.524956
0.559477 0.647103
0.546178 0.959548
0.559388 0.954380
0.527721 0.674777
0.559262 0.523400
0.574273 0.783507
0.573938 0.947692
0.518815 0.769994
0.527234 0.769994
0.546204 0.521506
0.542999 0.775062
0.137938 0.015653
0.529644 0.657836
0.545831 0.520782
0.576134 0.968383
0.572786 0.515797
0.115562 0.253352
0.527031 0.809801
0.527234 0.769994
0.541903 0.527785
0.542052 0.535636
0.546353 0.529358
0.533146 0.519613
0.521873 0.532673
0.559412 0.531252
0.518946 0.647103
0.114701 0.140829
0.572402 0.961284
0.544209 0.680076
0.538694 0.809801
0.534681 0.958103
0.531523 0.954661
0.518917 0.674777
0.144335 0.445394
0.518772 0.809801
0.573834 0.809801
0.521724 0.524822
0.527031 0.809801
0.527234 0.769994
0.169082 0.385631
0.545773 0.959631
0.540781 0.954380
0.524067 0.948065
0.172797 0.290417
0.553103 0.954380
0.559477 0.647103
0.530853 0.526624
0.546253 0.952936
0.172826 0.289212
0.572976 0.823055
0.532159 0.964882
0.574952 0.769994
0.553641 0.529727
0.552713 0.954524
0.539125 0.769994
0.544209 0.680076
0.577401 0.515415
0.527863 0.647103
0.164768 0.028886
0.542192 0.947979
0.577627 0.674776
0.147613 0.252055
0.558938 0.674777
0.527467 0.527342
0.528679 0.819741
0.540554 0.528534
0.530232 0.518993
0.162841 0.033581
0.552953 0.528945
0.135674 0.024296
0.576134 0.529727
0.518772 0.809801
0.518815 0.769994
0.531597 0.948048
0.552594 0.674777
0.558938 0.674777
0.544560 0.652469
0.577906 0.954380
0.556306 0.809801
0.528458 0.954380
0.527031 0.809801
0.534606 0.964716
0.544560 0.652469
0.542493 0.814771
0.561431 0.522571
0.119637 0.154501
</float_array>
          <technique_common>
            <accessor source="#Log_big_knotty1-UV0-array" count="124" stride="2">
              <param name="S" type="float"/>
              <param name="T" type="float"/>
            </accessor>
          </technique_common>
        </source>
        <vertices id="Log_big_knotty1-VERTEX">
          <input semantic="POSITION" source="#Log_big_knotty1-POSITION"/>
        </vertices>
        <triangles count="202" material="AllColors_Material">
          <input semantic="VERTEX" offset="0" source="#Log_big_knotty1-VERTEX"/>
          <input semantic="NORMAL" offset="1" source="#Log_big_knotty1-Normal0"/>
          <input semantic="TEXCOORD" offset="2" set="0" source="#Log_big_knotty1-UV0"/>
          <p> 1 0 28 29 1 108 28 2 90 29 3 108 1 4 28 3 5 3 5 6 0 30 7 94 29 8 108 29 9 108 3 10 3 5 11 0 31 12 122 5 13 0 7 14 38 5 15 0 31 16 122 30 17 94 32 18 104 78 19 114 9 20 50 78 21 114 32 22 104 77 23 51 33 24 37 9 25 50 11 26 63 9 27 50 33 28 37 32 29 104 58 30 43 16 31 73 59 32 89 16 33 73 58 34 43 14 35 87 34 36 101 11 37 63 13 38 95 11 39 63 34 40 101 33 41 37 80 42 31 28 43 90 79 44 103 28 45 90 80 46 31 1 47 28 37 48 30 36 49 20 2 50 7 2 51 7 4 52 53 37 53 30 49 54 117 82 55 67 20 56 75 82 57 67 49 58 117 84 59 79 60 60 19 19 61 72 61 62 45 19 63 72 60 64 19 18 65 102 15 66 2 58 67 43 62 68 14 58 69 43 15 70 2 14 71 87 17 72 116 63 73 1 16 74 73 63 75 1 59 76 89 16 77 73 67 78 110 19 79 72 66 80 6 19 81 72 67 82 110 61 83 45 81 84 121 96 85 48 17 86 116 96 87 48 63 88 1 17 89 116 20 90 75 95 91 92 64 92 56 95 93 92 20 94 75 82 95 67 53 96 13 23 97 9 52 98 44 23 99 9 53 100 13 24 101 12 18 102 102 48 103 25 19 104 72 48 105 25 18 106 102 47 107 88 16 108 73 46 109 40 17 110 116 46 111 40 16 112 73 45 113 115 44 114 82 14 115 87 15 116 2 14 117 87 44 118 82 43 119 52 19 120 72 49 121 117 20 122 75 49 123 117 19 124 72 48 125 25 17 126 116 46 127 40 81 128 121 83 129 78 81 130 121 46 131 40 14 132 87 45 133 115 16 134 73 45 135 115 14 136 87 43 137 52 29 138 108 0 139 106 28 140 90 0 141 106 29 142 108 2 143 7 2 144 7 30 145 94 4 146 53 30 147 94 2 148 7 29 149 108 30 150 94 31 151 122 6 152 42 30 153 94 6 154 42 4 155 53 77 156 51 6 157 42 31 158 122 6 159 42 77 160 51 85 161 47 33 162 37 8 163 60 32 164 104 8 165 60 33 166 37 10 167 74 33 168 37 34 169 101 12 170 84 33 171 37 12 172 84 10 173 74 12 174 84 79 175 103 86 176 57 79 177 103 12 178 84 34 179 101 41 180 77 89 181 17 40 182 24 89 183 17 41 184 77 88 185 81 39 186 16 85 187 47 8 188 60 85 189 47 39 190 16 87 191 59 40 192 61 12 193 84 41 194 15 12 195 84 40 196 61 10 197 74 35 198 21 2 199 7 36 200 20 2 201 7 35 202 21 0 203 106 87 204 54 42 205 99 38 206 64 42 207 99 87 208 54 89 209 17 38 210 64 42 211 99 37 212 107 36 213 105 42 214 99 35 215 22 42 216 99 36 217 105 37 218 107 0 219 106 88 220 58 86 221 57 88 222 58 0 223 106 35 224 21 40 225 61 39 226 16 8 227 60 8 228 60 10 229 74 40 230 61 6 231 42 37 232 30 4 233 53 37 234 30 6 235 42 38 236 62 44 237 82 21 238 23 43 239 52 21 240 23 44 241 82 22 242 91 45 243 115 21 244 23 23 245 9 21 246 23 45 247 115 43 248 52 46 249 40 45 250 115 23 251 9 46 252 40 23 253 9 24 254 12 25 255 119 83 256 78 90 257 39 83 258 78 25 259 119 47 260 88 48 261 25 47 262 88 25 263 119 48 264 25 25 265 119 26 266 29 48 267 25 27 268 69 49 269 117 27 270 69 48 271 25 26 272 29 22 273 91 84 274 79 91 275 33 84 276 79 22 277 91 44 278 82 51 279 8 57 280 11 50 281 96 50 282 96 57 283 11 52 284 49 55 285 80 25 286 119 54 287 68 25 288 119 55 289 80 26 290 29 93 291 97 27 292 69 56 293 111 27 294 69 93 295 97 91 296 33 50 297 65 23 298 9 21 299 23 23 300 9 50 301 65 52 302 44 52 303 49 57 304 11 53 305 123 56 306 36 55 307 71 94 308 26 94 309 26 93 310 86 56 311 36 54 312 34 94 313 26 55 314 71 94 315 26 54 316 34 92 317 18 22 318 91 50 319 65 21 320 23 50 321 65 22 322 91 51 323 5 55 324 80 27 325 69 26 326 29 27 327 69 55 328 80 56 329 111 92 330 85 24 331 12 53 332 13 24 333 12 92 334 85 90 335 39 73 336 41 95 337 92 98 338 27 95 339 92 73 340 41 64 341 56 69 342 100 63 343 1 97 344 93 96 345 48 97 346 93 63 347 1 70 348 70 61 349 45 73 350 41 64 351 56 73 352 41 61 353 45 72 354 98 63 355 1 69 356 100 63 357 1 72 358 98 59 359 89 62 360 14 74 361 4 76 362 112 74 363 4 62 364 14 58 365 43 75 366 32 61 367 45 70 368 70 61 369 45 75 370 32 60 371 19 74 372 4 59 373 89 72 374 98 59 375 89 74 376 4 58 377 43 65 378 118 68 379 76 71 380 55 66 381 6 20 382 75 65 383 118 20 384 75 66 385 6 19 386 72 64 387 56 68 388 76 20 389 75 65 390 118 20 391 75 68 392 76 68 393 76 64 394 56 67 395 110 64 396 56 61 397 45 67 398 110 9 399 50 70 400 70 11 401 63 70 402 70 9 403 50 75 404 32 66 405 6 65 406 118 71 407 109 68 408 76 67 409 110 71 410 46 67 411 110 66 412 6 71 413 10 3 414 3 72 415 98 5 416 0 72 417 98 3 418 3 74 419 4 76 420 112 3 421 3 1 422 28 3 423 3 76 424 112 74 425 4 69 426 100 5 427 0 72 428 98 5 429 0 69 430 100 7 431 38 73 432 41 13 433 95 70 434 70 13 435 95 11 436 63 70 437 70 102 438 66 69 439 100 97 440 93 69 441 100 102 442 66 101 443 113 13 444 95 98 445 27 80 446 31 98 447 27 13 448 95 73 449 41 80 450 31 76 451 112 1 452 28 76 453 112 80 454 31 98 455 27 75 456 32 9 457 50 97 458 93 9 459 50 78 460 114 97 461 93 97 462 93 96 463 48 75 464 32 60 465 19 75 466 32 96 467 48 98 468 27 62 469 14 76 470 112 62 471 14 98 472 27 95 473 92 92 474 85 54 475 68 25 476 119 25 477 119 90 478 39 92 479 85 92 480 18 57 481 11 94 482 26 57 483 11 92 484 18 53 485 123 93 486 86 94 487 26 57 488 11 57 489 11 51 490 8 93 491 86 93 492 97 22 493 91 91 494 33 22 495 91 93 496 97 51 497 5 27 498 69 91 499 33 84 500 79 27 501 69 84 502 79 49 503 117 83 504 78 24 505 12 90 506 39 83 507 78 46 508 40 24 509 12 88 510 58 41 511 15 12 512 84 12 513 84 86 514 57 88 515 58 39 516 35 89 517 17 87 518 54 89 519 17 39 520 35 40 521 24 6 522 42 85 523 47 87 524 59 6 525 42 87 526 59 38 527 62 88 528 81 42 529 99 89 530 17 42 531 99 88 532 81 35 533 22 79 534 103 0 535 106 86 536 57 0 537 106 79 538 103 28 539 90 77 540 51 32 541 104 8 542 60 8 543 60 85 544 47 77 545 51 81 546 121 83 547 78 18 548 102 47 549 88 18 550 102 83 551 78 95 552 92 15 553 2 62 554 14 15 555 2 95 556 92 82 557 67 18 558 102 60 559 19 81 560 121 60 561 19 96 562 48 81 563 121 84 564 79 15 565 2 82 566 67 15 567 2 84 568 79 44 569 82 80 570 31 34 571 101 13 572 95 34 573 101 80 574 31 79 575 103 78 576 114 77 577 51 31 578 122 78 579 114 31 580 122 7 581 38 100 582 83 102 583 66 99 584 120 102 585 66 100 586 83 101 587 113 7 588 38 100 589 83 78 590 114 78 591 114 100 592 83 99 593 120 100 594 83 69 595 100 101 596 113 69 597 100 100 598 83 7 599 38 99 600 120 97 601 93 78 602 114 97 603 93 99 604 120 102 605 66</p>
        </triangles>
      </mesh>
    </geometry>
  </library_geometries>
  <library_visual_scenes>
    <visual_scene id="truck-slide" name="truck-slide">
      <node name="Log_big_knotty1" id="Log_big_knotty1" sid="Log_big_knotty1">
        <matrix sid="matrix">0.582021 0.000000 0.000000 -8.647718 0.000000 -0.000000 0.582021 -0.000000 0.000000 -0.582021 -0.000000 22.829239 0.000000 0.000000 0.000000 1.000000</matrix>
        <instance_geometry url="#Log_big_knotty1-lib">
          <bind_material>
            <technique_common>
              <instance_material symbol="AllColors_Material" target="#AllColors_Material"/>
            </technique_common>
          </bind_material>
        </instance_geometry>
        <extra>
          <technique profile="FCOLLADA">
            <visibility>1.000000</visibility>
          </technique>
        </extra>
      </node>
      <extra>
        <technique profile="MAX3D">
          <frame_rate>24.000000</frame_rate>
        </technique>
        <technique profile="FCOLLADA">
          <start_time>0.041667</start_time>
          <end_time>8.333333</end_time>
        </technique>
      </extra>
    </visual_scene>
  </library_visual_scenes>
  <scene>
    <instance_visual_scene url="#truck-slide"/>
  </scene>
</COLLADA>
