<?xml version="1.0" encoding="utf-8"?>
<COLLADA xmlns="http://www.collada.org/2005/11/COLLADASchema" version="1.4.1">
  <asset>
    <contributor>
      <author/>
      <authoring_tool>FBX COLLADA exporter</authoring_tool>
      <comments/>
    </contributor>
    <created>2024-06-24T00:42:16Z</created>
    <keywords/>
    <modified>2024-06-24T00:42:16Z</modified>
    <revision/>
    <subject/>
    <title/>
    <unit meter="0.010000" name="centimeter"/>
    <up_axis>Y_UP</up_axis>
  </asset>
  <library_images>
    <image id="base_color_texture1-image" name="base_color_texture1">
      <init_from>file://D:\Alex\3D WORK\[3D] RETURN\[5] 袪邪斜芯褌邪 褋 CGTrader.com\[3] 袚芯褌芯胁褘械 屑芯写械谢懈\Low-Poly Forest Nature Set (project)\files\texture_gradient.png</init_from>
    </image>
  </library_images>
  <library_materials>
    <material id="AllColors_Material" name="AllColors_Material">
      <instance_effect url="#AllColors_Material-fx"/>
    </material>
  </library_materials>
  <library_effects>
    <effect id="AllColors_Material-fx" name="AllColors_Material">
      <profile_COMMON>
        <technique sid="standard">
          <phong>
            <emission>
              <color sid="emission">0.000000  0.000000 0.000000 1.000000</color>
            </emission>
            <ambient>
              <color sid="ambient">0.000000  0.000000 0.000000 1.000000</color>
            </ambient>
            <diffuse>
              <texture texture="base_color_texture1-image" texcoord="CHANNEL0">
                <extra>
                  <technique profile="MAYA">
                    <wrapU sid="wrapU0">TRUE</wrapU>
                    <wrapV sid="wrapV0">TRUE</wrapV>
                    <blend_mode>NONE</blend_mode>
                  </technique>
                </extra>
              </texture>
            </diffuse>
            <specular>
              <color sid="specular">0.200000  0.200000 0.200000 1.000000</color>
            </specular>
            <shininess>
              <float sid="shininess">36.000000</float>
            </shininess>
            <reflective>
              <color sid="reflective">0.800000  0.800000 0.800000 1.000000</color>
            </reflective>
            <reflectivity>
              <float sid="reflectivity">0.000000</float>
            </reflectivity>
            <transparent opaque="RGB_ZERO">
              <color sid="transparent">0.000000  0.000000 0.000000 1.000000</color>
            </transparent>
            <transparency>
              <float sid="transparency">1.000000</float>
            </transparency>
          </phong>
        </technique>
      </profile_COMMON>
    </effect>
  </library_effects>
  <library_geometries>
    <geometry id="Log_big_regular-lib" name="Log_big_regularMesh">
      <mesh>
        <source id="Log_big_regular-POSITION">
          <float_array id="Log_big_regular-POSITION-array" count="174">
-3.848874 0.903379 0.845109
-1.681835 1.081138 0.841540
-3.839581 0.479280 0.178001
-1.419350 0.664291 -0.055644
-4.090014 -0.363486 0.139676
-1.681835 -0.368972 -0.060176
-3.950581 -1.014104 0.620675
-1.681835 -1.035910 0.613039
-4.020027 -0.960684 1.549571
-1.484971 -1.114281 1.674149
-3.924508 -0.127724 1.955833
-1.681835 -0.120651 2.054641
-3.891449 0.672883 1.631115
-1.681835 0.772341 1.737467
1.545195 0.681995 0.132897
1.302120 1.018205 0.937416
1.302120 -0.324672 0.102381
1.302121 -0.942291 0.725813
1.484427 -1.014866 1.708455
1.302120 -0.094714 2.060810
1.302120 0.732243 1.767091
4.201641 0.531549 0.155962
3.956376 0.911399 0.853629
3.952355 -0.300754 0.101336
3.953778 -0.868479 0.674447
4.143301 -0.910022 1.497622
3.959201 -0.102327 1.875131
3.958884 0.651660 1.607321
-3.834541 1.078683 0.820632
-3.834541 0.570748 0.020605
-4.097026 -0.413952 -0.024488
-3.965783 -1.179383 0.543529
-4.031405 -1.116737 1.653241
-3.922036 -0.133776 2.132598
-3.878289 0.805208 1.751551
-3.704883 0.895487 0.839802
-3.695591 0.471388 0.172694
-3.946023 -0.371379 0.134369
-3.806590 -1.021996 0.615368
-3.876037 -0.968577 1.544264
-3.780518 -0.135617 1.950526
-3.747459 0.664991 1.625808
-3.707270 -0.001035 1.074464
4.210551 0.618610 0.020598
3.953744 1.064381 0.839755
3.953744 -0.354362 -0.042455
3.953744 -1.006873 0.616197
4.146350 -1.055954 1.584671
3.953744 -0.111413 2.026615
3.953744 0.762263 1.716302
4.080358 0.531151 0.153317
3.835092 0.911001 0.850984
3.831071 -0.301152 0.098691
3.832494 -0.868877 0.671802
4.022017 -0.910420 1.494977
3.837917 -0.102724 1.872486
3.837601 0.651262 1.604676
3.786563 0.095802 1.060752
</float_array>
          <technique_common>
            <accessor source="#Log_big_regular-POSITION-array" count="58" stride="3">
              <param name="X" type="float"/>
              <param name="Y" type="float"/>
              <param name="Z" type="float"/>
            </accessor>
          </technique_common>
        </source>
        <source id="Log_big_regular-Normal0">
          <float_array id="Log_big_regular-Normal0-array" count="1008">
-0.024245 0.876268 -0.481214
-0.024245 0.876268 -0.481214
-0.024245 0.876268 -0.481214
-0.024245 0.876268 -0.481214
-0.024245 0.876268 -0.481214
-0.024245 0.876268 -0.481214
-0.024040 0.030827 -0.999236
-0.024040 0.030827 -0.999236
-0.024040 0.030827 -0.999236
-0.024040 0.030827 -0.999236
-0.024040 0.030827 -0.999236
-0.024040 0.030827 -0.999236
0.031631 -0.652900 -0.756784
0.031631 -0.652900 -0.756784
0.031631 -0.652900 -0.756784
0.031631 -0.652900 -0.756784
0.031631 -0.652900 -0.756784
0.031631 -0.652900 -0.756784
0.030365 -0.999498 -0.009076
0.030365 -0.999498 -0.009076
0.030365 -0.999498 -0.009076
0.030365 -0.999498 -0.009076
0.030365 -0.999498 -0.009076
0.030365 -0.999498 -0.009076
0.012227 -0.398421 0.917121
0.012227 -0.398421 0.917121
0.012227 -0.398421 0.917121
0.012227 -0.398421 0.917121
0.012227 -0.398421 0.917121
0.012227 -0.398421 0.917121
0.058894 0.002556 -0.998261
0.058894 0.002556 -0.998261
0.058894 0.002556 -0.998261
0.058894 0.002556 -0.998261
0.058894 0.002556 -0.998261
0.058894 0.002556 -0.998261
0.020967 0.355624 0.934394
0.020967 0.355624 0.934394
0.020967 0.355624 0.934394
0.020967 0.355624 0.934394
0.020967 0.355624 0.934394
0.020967 0.355624 0.934394
0.006185 0.952714 0.303807
0.006185 0.952714 0.303807
0.006185 0.952714 0.303807
0.006185 0.952714 0.303807
0.006185 0.952714 0.303807
0.006185 0.952714 0.303807
0.033740 -0.055406 0.997894
0.033740 -0.055406 0.997894
0.033740 -0.055406 0.997894
0.033740 -0.055406 0.997894
0.033740 -0.055406 0.997894
0.033740 -0.055406 0.997894
-0.004462 0.945410 0.325852
-0.004462 0.945410 0.325852
-0.004462 0.945410 0.325852
-0.004462 0.945410 0.325852
-0.004462 0.945410 0.325852
-0.004462 0.945410 0.325852
0.001176 -0.357405 0.933949
0.001176 -0.357405 0.933949
0.001176 -0.357405 0.933949
0.001176 -0.357405 0.933949
0.001176 -0.357405 0.933949
0.001176 -0.357405 0.933949
0.026005 0.916987 -0.398070
0.026005 0.916987 -0.398070
0.026005 0.916987 -0.398070
0.026005 0.916987 -0.398070
0.026005 0.916987 -0.398070
0.026005 0.916987 -0.398070
0.048829 -0.709564 -0.702947
0.048829 -0.709564 -0.702947
0.048829 -0.709564 -0.702947
0.048829 -0.709564 -0.702947
0.048829 -0.709564 -0.702947
0.048829 -0.709564 -0.702947
-0.004858 0.334692 0.942315
-0.004858 0.334692 0.942315
-0.004858 0.334692 0.942315
-0.004858 0.334692 0.942315
-0.004858 0.334692 0.942315
-0.004858 0.334692 0.942315
0.034276 -0.996210 -0.079937
0.034276 -0.996210 -0.079937
0.034276 -0.996210 -0.079937
0.034276 -0.996210 -0.079937
0.034276 -0.996210 -0.079937
0.034276 -0.996210 -0.079937
0.009469 0.945377 0.325841
0.009469 0.945377 0.325841
0.009469 0.945377 0.325841
0.009469 0.945377 0.325841
0.009469 0.945377 0.325841
0.009469 0.945377 0.325841
-0.017675 0.710303 0.703674
-0.017675 0.710303 0.703674
-0.017675 0.710303 0.703674
-0.017675 0.710303 0.703674
-0.017675 0.710303 0.703674
-0.017675 0.710303 0.703674
0.023178 -0.387841 0.921435
0.023178 -0.387841 0.921435
0.023178 -0.387841 0.921435
0.023178 -0.387841 0.921435
0.023178 -0.387841 0.921435
0.023178 -0.387841 0.921435
-0.046347 -0.709648 -0.703030
-0.046347 -0.709648 -0.703030
-0.046347 -0.709648 -0.703030
-0.046347 -0.709648 -0.703030
-0.046347 -0.709648 -0.703030
-0.046347 -0.709648 -0.703030
-0.014364 0.899127 -0.437452
-0.014364 0.899127 -0.437452
-0.014364 0.899127 -0.437452
-0.014364 0.899127 -0.437452
-0.014364 0.899127 -0.437452
-0.014364 0.899127 -0.437452
0.014259 0.334661 0.942231
0.014259 0.334661 0.942231
0.014259 0.334661 0.942231
0.014259 0.334661 0.942231
0.014259 0.334661 0.942231
0.014259 0.334661 0.942231
-0.022393 -0.998070 -0.057929
-0.022393 -0.998070 -0.057929
-0.022393 -0.998070 -0.057929
-0.022393 -0.998070 -0.057929
-0.022393 -0.998070 -0.057929
-0.022393 -0.998070 -0.057929
-0.047189 0.059047 -0.997139
-0.047189 0.059047 -0.997139
-0.047189 0.059047 -0.997139
-0.047189 0.059047 -0.997139
-0.047189 0.059047 -0.997139
-0.047189 0.059047 -0.997139
-0.998199 0.047572 -0.036544
-0.998199 0.047572 -0.036544
-0.998199 0.047572 -0.036544
-0.998199 0.047572 -0.036544
-0.998199 0.047572 -0.036544
-0.998199 0.047572 -0.036544
-0.962496 0.268314 0.040117
-0.962496 0.268314 0.040117
-0.962496 0.268314 0.040117
-0.962496 0.268314 0.040117
-0.962496 0.268314 0.040117
-0.962496 0.268314 0.040117
-0.985093 -0.072861 0.155830
-0.985093 -0.072861 0.155830
-0.985093 -0.072861 0.155830
-0.985093 -0.072861 0.155830
-0.985093 -0.072861 0.155830
-0.985093 -0.072861 0.155830
-0.994594 0.076475 -0.070251
-0.994594 0.076475 -0.070251
-0.994594 0.076475 -0.070251
-0.994594 0.076475 -0.070251
-0.994594 0.076475 -0.070251
-0.994594 0.076475 -0.070251
-0.994692 0.099567 0.025963
-0.994692 0.099567 0.025963
-0.994692 0.099567 0.025963
-0.994692 0.099567 0.025963
-0.994692 0.099567 0.025963
-0.994692 0.099567 0.025963
-0.998029 0.055751 0.028805
-0.998029 0.055751 0.028805
-0.998029 0.055751 0.028805
-0.998029 0.055751 0.028805
-0.998029 0.055751 0.028805
-0.998029 0.055751 0.028805
-0.995162 0.095776 -0.021921
-0.995162 0.095776 -0.021921
-0.995162 0.095776 -0.021921
-0.995162 0.095776 -0.021921
-0.995162 0.095776 -0.021921
-0.995162 0.095776 -0.021921
-0.997544 -0.002240 -0.070007
-0.997544 -0.002240 -0.070007
-0.997544 -0.002240 -0.070007
-0.997544 -0.002240 -0.070007
-0.997544 -0.002240 -0.070007
-0.997544 -0.002240 -0.070007
0.052692 0.997182 -0.053407
0.052692 0.997182 -0.053407
0.052692 0.997182 -0.053407
0.052692 0.997182 -0.053407
0.052692 0.997182 -0.053407
0.052692 0.997182 -0.053407
-0.054596 -0.373354 -0.926081
-0.054596 -0.373354 -0.926081
-0.054596 -0.373354 -0.926081
-0.054596 -0.373354 -0.926081
-0.054596 -0.373354 -0.926081
-0.054596 -0.373354 -0.926081
-0.026496 -0.843775 0.536043
-0.026496 -0.843775 0.536043
-0.026496 -0.843775 0.536043
-0.026496 -0.843775 0.536043
-0.026496 -0.843775 0.536043
-0.026496 -0.843775 0.536043
-0.987902 0.137396 -0.071922
-0.987902 0.137396 -0.071922
-0.987902 0.137396 -0.071922
-0.987902 0.137396 -0.071922
-0.987902 0.137396 -0.071922
-0.987902 0.137396 -0.071922
-0.967142 -0.019888 0.253457
-0.967142 -0.019888 0.253457
-0.967142 -0.019888 0.253457
-0.986334 0.150851 0.066254
-0.986334 0.150851 0.066254
-0.986334 0.150851 0.066254
-0.986334 0.150851 0.066254
-0.986334 0.150851 0.066254
-0.986334 0.150851 0.066254
-0.062910 -0.956765 -0.283978
-0.062910 -0.956765 -0.283978
-0.062910 -0.956765 -0.283978
-0.062910 -0.956765 -0.283978
-0.062910 -0.956765 -0.283978
-0.062910 -0.956765 -0.283978
-0.009033 0.439190 -0.898349
-0.009033 0.439190 -0.898349
-0.009033 0.439190 -0.898349
-0.009033 0.439190 -0.898349
-0.009033 0.439190 -0.898349
-0.009033 0.439190 -0.898349
0.062335 0.601925 0.796116
0.062335 0.601925 0.796116
0.062335 0.601925 0.796116
0.062335 0.601925 0.796116
0.062335 0.601925 0.796116
0.062335 0.601925 0.796116
0.960230 0.128879 0.247688
0.960230 0.128879 0.247688
0.960230 0.128879 0.247688
0.960230 0.128879 0.247688
0.960230 0.128879 0.247688
0.960230 0.128879 0.247688
0.962821 -0.270124 0.003150
0.962821 -0.270124 0.003150
0.962821 -0.270124 0.003150
0.962821 -0.270124 0.003150
0.962821 -0.270124 0.003150
0.962821 -0.270124 0.003150
0.999988 0.004049 0.002858
0.999988 0.004049 0.002858
0.999988 0.004049 0.002858
0.999988 0.004049 0.002858
0.999988 0.004049 0.002858
0.999988 0.004049 0.002858
0.977834 -0.010810 -0.209103
0.977834 -0.010810 -0.209103
0.977834 -0.010810 -0.209103
0.977834 -0.010810 -0.209103
0.977834 -0.010810 -0.209103
0.977834 -0.010810 -0.209103
0.980956 0.158185 0.112705
0.980956 0.158185 0.112705
0.980956 0.158185 0.112705
0.980956 0.158185 0.112705
0.980956 0.158185 0.112705
0.980956 0.158185 0.112705
0.999282 0.012855 0.035646
0.999282 0.012855 0.035646
0.999282 0.012855 0.035646
0.999282 0.012855 0.035646
0.999282 0.012855 0.035646
0.999282 0.012855 0.035646
0.999614 0.026708 0.007667
0.999614 0.026708 0.007667
0.999614 0.026708 0.007667
0.999614 0.026708 0.007667
0.999614 0.026708 0.007667
0.999614 0.026708 0.007667
0.959411 -0.151002 0.238178
0.959411 -0.151002 0.238178
0.959411 -0.151002 0.238178
0.959411 -0.151002 0.238178
0.959411 -0.151002 0.238178
0.959411 -0.151002 0.238178
0.018317 0.426776 -0.904172
0.018317 0.426776 -0.904172
0.018317 0.426776 -0.904172
0.018317 0.426776 -0.904172
0.018317 0.426776 -0.904172
0.018317 0.426776 -0.904172
0.010207 -0.945373 -0.325831
0.010207 -0.945373 -0.325831
0.010207 -0.945373 -0.325831
0.010207 -0.945373 -0.325831
0.010207 -0.945373 -0.325831
0.010207 -0.945373 -0.325831
-0.021570 -0.059042 0.998022
-0.021570 -0.059042 0.998022
-0.021570 -0.059042 0.998022
-0.021570 -0.059042 0.998022
-0.021570 -0.059042 0.998022
-0.021570 -0.059042 0.998022
0.998889 0.034700 0.031894
0.998889 0.034700 0.031894
0.998889 0.034700 0.031894
0.997849 -0.045128 -0.047545
0.997849 -0.045128 -0.047545
0.997849 -0.045128 -0.047545
0.997849 -0.045128 -0.047545
0.997849 -0.045128 -0.047545
0.997849 -0.045128 -0.047545
0.976993 0.177761 -0.117842
0.976993 0.177761 -0.117842
0.976993 0.177761 -0.117842
0.976993 0.177761 -0.117842
0.976993 0.177761 -0.117842
0.976993 0.177761 -0.117842
-0.007499 -0.879345 0.476127
-0.007499 -0.879345 0.476127
-0.007499 -0.879345 0.476127
-0.007499 -0.879345 0.476127
-0.007499 -0.879345 0.476127
-0.007499 -0.879345 0.476127
0.021642 -0.334618 -0.942105
0.021642 -0.334618 -0.942105
0.021642 -0.334618 -0.942105
0.021642 -0.334618 -0.942105
0.021642 -0.334618 -0.942105
0.021642 -0.334618 -0.942105
-0.004397 0.998668 0.051412
-0.004397 0.998668 0.051412
-0.004397 0.998668 0.051412
-0.004397 0.998668 0.051412
-0.004397 0.998668 0.051412
-0.004397 0.998668 0.051412
</float_array>
          <technique_common>
            <accessor source="#Log_big_regular-Normal0-array" count="336" stride="3">
              <param name="X" type="float"/>
              <param name="Y" type="float"/>
              <param name="Z" type="float"/>
            </accessor>
          </technique_common>
        </source>
        <source id="Log_big_regular-UV0">
          <float_array id="Log_big_regular-UV0-array" count="144">
0.578845 0.973049
0.186309 0.199953
0.574962 0.965949
0.559792 0.952434
0.115379 0.363826
0.186918 0.202750
0.528611 0.651748
0.171999 0.028248
0.575517 0.528285
0.561511 0.651748
0.136551 0.023509
0.575560 0.827711
0.522378 0.537310
0.534109 0.524249
0.145811 0.477769
0.581076 0.666059
0.554825 0.651748
0.552020 0.814457
0.529231 0.959045
0.561288 0.528036
0.561443 0.535888
0.581209 0.651748
0.554472 0.959189
0.154900 0.255218
0.574395 0.541940
0.534264 0.532101
0.578845 0.534363
0.555437 0.534363
0.524661 0.952730
0.574885 0.972563
0.533082 0.969549
0.561419 0.959045
0.574240 0.534089
0.576483 0.958969
0.580690 0.959045
0.139309 0.014586
0.177256 0.396550
0.531723 0.531261
0.530464 0.662481
0.524584 0.959343
0.532420 0.959326
0.554721 0.533582
0.576561 0.952356
0.563545 0.527207
0.576452 0.814457
0.519331 0.651748
0.531076 0.523628
0.575361 0.520432
0.529460 0.824398
0.559715 0.959046
0.535707 0.962769
0.527745 0.814457
0.522222 0.529458
0.519151 0.814457
0.176716 0.391265
0.517050 0.529592
0.558211 0.814457
0.147102 0.458250
0.580165 0.520050
0.117011 0.157932
0.535629 0.969382
0.554549 0.952576
0.110997 0.143817
0.528199 0.531978
0.554876 0.541433
0.169651 0.033095
0.520151 0.959045
0.151096 0.258648
0.113095 0.376154
0.531879 0.539112
0.532497 0.952713
0.554878 0.959045
</float_array>
          <technique_common>
            <accessor source="#Log_big_regular-UV0-array" count="72" stride="2">
              <param name="S" type="float"/>
              <param name="T" type="float"/>
            </accessor>
          </technique_common>
        </source>
        <vertices id="Log_big_regular-VERTEX">
          <input semantic="POSITION" source="#Log_big_regular-POSITION"/>
        </vertices>
        <triangles count="112" material="AllColors_Material">
          <input semantic="VERTEX" offset="0" source="#Log_big_regular-VERTEX"/>
          <input semantic="NORMAL" offset="1" source="#Log_big_regular-Normal0"/>
          <input semantic="TEXCOORD" offset="2" set="0" source="#Log_big_regular-UV0"/>
          <p> 1 0 16 29 1 26 28 2 27 29 3 26 1 4 16 3 5 15 5 6 21 30 7 58 29 8 26 29 9 26 3 10 15 5 11 21 31 12 43 5 13 21 7 14 9 5 15 21 31 16 43 30 17 58 32 18 46 7 19 9 9 20 38 7 21 9 32 22 46 31 23 43 11 24 45 33 25 55 32 26 46 11 27 45 32 28 46 9 29 38 3 30 15 16 31 44 5 32 21 16 33 44 3 34 15 14 35 11 34 36 63 11 37 45 13 38 6 11 39 45 34 40 63 33 41 55 13 42 6 28 43 27 34 44 63 28 45 27 13 46 6 1 47 16 37 48 8 36 49 24 2 50 32 2 51 32 4 52 47 37 53 8 49 54 18 15 55 17 20 56 51 15 57 17 49 58 18 44 59 71 9 60 38 19 61 53 11 62 45 19 63 53 9 64 38 18 65 48 15 66 17 3 67 15 1 68 16 3 69 15 15 70 17 14 71 11 5 72 21 16 73 44 7 74 9 17 75 56 7 76 9 16 77 44 11 78 45 20 79 51 13 80 6 20 81 51 11 82 45 19 83 53 7 84 9 17 85 56 9 86 38 18 87 48 9 88 38 17 89 56 13 90 6 15 91 17 1 92 16 15 93 17 13 94 6 20 95 51 53 96 3 23 97 33 52 98 42 23 99 33 53 100 3 24 101 49 18 102 48 48 103 66 19 104 53 48 105 66 18 106 48 47 107 30 16 108 44 46 109 31 17 110 56 46 111 31 16 112 44 45 113 34 44 114 71 14 115 11 15 116 17 14 117 11 44 118 71 43 119 0 19 120 53 48 121 66 20 122 51 49 123 18 20 124 51 48 125 66 17 126 56 46 127 31 18 128 48 47 129 30 18 130 48 46 131 31 14 132 11 45 133 34 16 134 44 45 135 34 14 136 11 43 137 0 28 138 27 29 139 26 2 140 32 28 141 27 2 142 32 0 143 41 2 144 32 30 145 58 4 146 47 30 147 58 2 148 32 29 149 26 30 150 58 31 151 43 6 152 19 30 153 58 6 154 19 4 155 47 31 156 43 32 157 46 8 158 13 31 159 43 8 160 13 6 161 19 33 162 55 8 163 13 32 164 46 8 165 13 33 166 55 10 167 52 33 168 55 34 169 63 12 170 37 33 171 55 12 172 37 10 173 52 12 174 37 28 175 27 0 176 41 28 177 27 12 178 37 34 179 63 41 180 36 42 181 67 40 182 14 42 183 67 41 184 36 35 185 1 39 186 25 6 187 19 8 188 13 6 189 19 39 190 25 38 191 20 41 192 69 40 193 12 10 194 52 10 195 52 12 196 37 41 197 69 35 198 64 2 199 32 36 200 24 2 201 32 35 202 64 0 203 41 39 204 68 42 205 67 38 206 62 42 207 67 39 208 68 40 209 14 38 210 62 42 211 67 37 212 10 36 213 65 42 214 67 35 215 1 42 216 67 36 217 65 37 218 10 41 219 69 0 220 41 35 221 64 0 222 41 41 223 69 12 224 37 39 225 25 10 226 52 40 227 12 10 228 52 39 229 25 8 230 13 37 231 8 6 232 19 38 233 20 6 234 19 37 235 8 4 236 47 44 237 71 21 238 29 43 239 0 21 240 29 44 241 71 22 242 22 45 243 34 21 244 29 23 245 33 21 246 29 45 247 34 43 248 0 46 249 31 45 250 34 23 251 33 46 252 31 23 253 33 24 254 49 46 255 31 25 256 60 47 257 30 25 258 60 46 259 31 24 260 49 48 261 66 47 262 30 25 263 60 48 264 66 25 265 60 26 266 39 48 267 66 27 268 40 49 269 18 27 270 40 48 271 66 26 272 39 44 273 71 49 274 18 27 275 40 27 276 40 22 277 22 44 278 71 51 279 5 57 280 23 50 281 7 50 282 7 57 283 23 52 284 35 54 285 50 26 286 39 25 287 60 26 288 39 54 289 50 55 290 28 56 291 70 22 292 22 27 293 40 22 294 22 56 295 70 51 296 61 50 297 2 23 298 33 21 299 29 23 300 33 50 301 2 52 302 42 52 303 35 57 304 23 53 305 59 56 306 54 55 307 57 57 308 23 57 309 23 51 310 5 56 311 54 54 312 4 57 313 23 55 314 57 57 315 23 54 316 4 53 317 59 50 318 2 22 319 22 51 320 61 22 321 22 50 322 2 21 323 29 26 324 39 56 325 70 27 326 40 56 327 70 26 328 39 55 329 28 54 330 50 24 331 49 53 332 3 24 333 49 54 334 50 25 335 60</p>
        </triangles>
      </mesh>
    </geometry>
  </library_geometries>
  <library_visual_scenes>
    <visual_scene id="truck1" name="truck1">
      <node name="group2" id="group2" sid="group2">
        <matrix sid="matrix">0.005820 0.000000 0.000000 -60.373173 0.000000 0.005820 0.000000 -0.000000 0.000000 0.000000 0.005820 -11.070501 0.000000 0.000000 0.000000 1.000000</matrix>
        <extra>
          <technique profile="FCOLLADA">
            <visibility>1.000000</visibility>
          </technique>
        </extra>
        <node name="Log_big_regular" id="Log_big_regular" sid="Log_big_regular">
          <matrix sid="matrix">100.000000 0.000000 0.000000 -312.042603 0.000000 -0.000016 100.000000 0.000000 0.000000 -100.000000 -0.000016 4446.994141 0.000000 0.000000 0.000000 1.000000</matrix>
          <instance_geometry url="#Log_big_regular-lib">
            <bind_material>
              <technique_common>
                <instance_material symbol="AllColors_Material" target="#AllColors_Material"/>
              </technique_common>
            </bind_material>
          </instance_geometry>
          <extra>
            <technique profile="FCOLLADA">
              <visibility>1.000000</visibility>
            </technique>
          </extra>
        </node>
      </node>
      <extra>
        <technique profile="MAX3D">
          <frame_rate>24.000000</frame_rate>
        </technique>
        <technique profile="FCOLLADA">
          <start_time>0.041667</start_time>
          <end_time>8.333333</end_time>
        </technique>
      </extra>
    </visual_scene>
  </library_visual_scenes>
  <scene>
    <instance_visual_scene url="#truck1"/>
  </scene>
</COLLADA>
