<?xml version="1.0" encoding="utf-8"?>
<COLLADA xmlns="http://www.collada.org/2005/11/COLLADASchema" version="1.4.1">
  <asset>
    <contributor>
      <author/>
      <authoring_tool>FBX COLLADA exporter</authoring_tool>
      <comments/>
    </contributor>
    <created>2024-06-24T00:18:29Z</created>
    <keywords/>
    <modified>2024-06-24T00:18:29Z</modified>
    <revision/>
    <subject/>
    <title/>
    <unit meter="0.010000" name="centimeter"/>
    <up_axis>Y_UP</up_axis>
  </asset>
  <library_images>
    <image id="base_color_texture1-image" name="base_color_texture1">
      <init_from>file://D:\Alex\3D WORK\[3D] RETURN\[5] 袪邪斜芯褌邪 褋 CGTrader.com\[3] 袚芯褌芯胁褘械 屑芯写械谢懈\Low-Poly Forest Nature Set (project)\files\texture_gradient.png</init_from>
    </image>
  </library_images>
  <library_materials>
    <material id="AllColors_Material" name="AllColors_Material">
      <instance_effect url="#AllColors_Material-fx"/>
    </material>
  </library_materials>
  <library_effects>
    <effect id="AllColors_Material-fx" name="AllColors_Material">
      <profile_COMMON>
        <technique sid="standard">
          <phong>
            <emission>
              <color sid="emission">0.000000  0.000000 0.000000 1.000000</color>
            </emission>
            <ambient>
              <color sid="ambient">0.000000  0.000000 0.000000 1.000000</color>
            </ambient>
            <diffuse>
              <texture texture="base_color_texture1-image" texcoord="CHANNEL0">
                <extra>
                  <technique profile="MAYA">
                    <wrapU sid="wrapU0">TRUE</wrapU>
                    <wrapV sid="wrapV0">TRUE</wrapV>
                    <blend_mode>NONE</blend_mode>
                  </technique>
                </extra>
              </texture>
            </diffuse>
            <specular>
              <color sid="specular">0.200000  0.200000 0.200000 1.000000</color>
            </specular>
            <shininess>
              <float sid="shininess">36.000000</float>
            </shininess>
            <reflective>
              <color sid="reflective">0.800000  0.800000 0.800000 1.000000</color>
            </reflective>
            <reflectivity>
              <float sid="reflectivity">0.000000</float>
            </reflectivity>
            <transparent opaque="RGB_ZERO">
              <color sid="transparent">0.000000  0.000000 0.000000 1.000000</color>
            </transparent>
            <transparency>
              <float sid="transparency">1.000000</float>
            </transparency>
          </phong>
        </technique>
      </profile_COMMON>
    </effect>
  </library_effects>
  <library_geometries>
    <geometry id="Stump_big_high1-lib" name="Stump_big_high1Mesh">
      <mesh>
        <source id="Stump_big_high1-POSITION">
          <float_array id="Stump_big_high1-POSITION-array" count="273">
0.001937 1.452919 0.000000
0.537483 1.181455 0.000000
1.319285 0.292061 0.000000
0.978296 -0.717524 0.000000
-0.196666 -1.471557 0.000000
-0.851987 -1.030056 0.000000
-1.174644 -0.464720 0.000000
-1.512489 0.601368 0.000000
-0.968403 1.224135 0.000000
-0.362595 1.193829 1.958555
-0.235668 0.834737 3.233215
0.336404 0.678967 3.233215
0.237896 1.108579 1.480738
0.742522 0.299445 3.233215
1.041664 0.329804 0.862286
0.644243 -0.227871 3.233215
0.752384 -0.489014 1.394227
0.117659 -0.791828 3.233215
-0.090880 -1.411161 0.632316
-0.429669 -0.855072 3.233215
-0.676276 -1.049297 0.987325
-0.778286 -0.430238 3.233215
-1.081021 -0.539025 1.581940
-0.890966 0.219035 3.233215
-1.214396 0.419183 1.625082
-0.707370 0.616651 3.233215
-1.092170 0.940420 1.574236
2.357513 -1.018726 0.000000
-0.169832 2.680421 0.000000
-1.765728 -0.180683 0.356695
-1.784976 0.001073 0.000000
-2.872130 -1.177391 0.000000
-1.501397 -0.931647 0.351947
-1.405804 -0.973690 0.000000
-1.602047 -0.612534 0.525114
-1.565089 -0.530595 0.000000
-0.050706 1.775405 0.000000
0.127924 1.788512 0.000000
-0.415237 1.775082 0.488229
-0.101682 1.821043 0.295922
-0.611599 1.791058 0.000000
-0.757914 1.781521 0.406230
1.250413 -0.676973 0.460919
0.937195 -1.183725 0.000000
0.961620 -1.014101 0.503373
1.307554 -0.659636 0.000000
1.569518 -0.263063 0.000000
1.436946 -0.338012 0.302323
-0.281382 -1.718542 0.427216
-0.245171 -1.835761 0.000000
-0.600839 -1.925612 0.000000
-0.651094 -1.642466 0.310846
-0.065694 -2.606774 0.000000
1.302366 1.210559 0.373507
1.390822 1.334428 0.000000
1.778579 0.759534 0.000000
1.602974 0.925655 0.317056
-1.841196 1.545283 0.000000
-2.071466 1.251304 0.000000
-1.933489 1.228030 0.301306
2.040513 1.803014 0.000000
-1.634758 1.446551 0.412575
-2.864721 1.485172 0.000000
0.324847 0.533802 4.580355
-0.148407 0.655558 4.580317
0.562896 0.205871 5.082784
0.522472 -0.292353 5.082468
0.168271 -0.596778 4.579887
-0.299963 -0.612379 4.722136
-0.684214 -0.290246 4.579179
-0.761889 0.139784 4.885409
-0.557428 0.538288 4.885646
0.367274 0.611692 4.582602
-0.169149 0.748240 4.582602
0.650636 0.238024 5.085118
0.603713 -0.318773 5.085118
0.199884 -0.677623 4.582602
-0.332565 -0.695187 4.725132
-0.762017 -0.338553 4.582602
-0.850240 0.153044 4.888320
-0.617742 0.611815 4.888320
-0.234442 -0.075795 4.720296
-0.299951 -0.612439 4.523718
-0.148395 0.655498 4.524429
0.505764 -0.259275 4.524064
-0.761877 0.139724 4.523803
0.546188 0.238950 4.524380
0.324859 0.533743 4.524467
0.168282 -0.596838 4.524000
-0.684202 -0.290306 4.523292
-0.557416 0.538229 4.524039
</float_array>
          <technique_common>
            <accessor source="#Stump_big_high1-POSITION-array" count="91" stride="3">
              <param name="X" type="float"/>
              <param name="Y" type="float"/>
              <param name="Z" type="float"/>
            </accessor>
          </technique_common>
        </source>
        <source id="Stump_big_high1-Normal0">
          <float_array id="Stump_big_high1-Normal0-array" count="1602">
0.254722 0.965927 0.045845
0.254722 0.965927 0.045845
0.254722 0.965927 0.045845
0.254722 0.965927 0.045845
0.254722 0.965927 0.045845
0.254722 0.965927 0.045845
0.723034 0.689564 0.041502
0.723034 0.689564 0.041502
0.723034 0.689564 0.041502
0.723034 0.689564 0.041502
0.723034 0.689564 0.041502
0.723034 0.689564 0.041502
0.990704 -0.132691 0.029962
0.990704 -0.132691 0.029962
0.990704 -0.132691 0.029962
0.990704 -0.132691 0.029962
0.990704 -0.132691 0.029962
0.990704 -0.132691 0.029962
0.705288 -0.708910 -0.004026
0.705288 -0.708910 -0.004026
0.705288 -0.708910 -0.004026
0.705288 -0.708910 -0.004026
0.705288 -0.708910 -0.004026
0.705288 -0.708910 -0.004026
0.086169 -0.992182 0.090274
0.086169 -0.992182 0.090274
0.086169 -0.992182 0.090274
0.086169 -0.992182 0.090274
0.086169 -0.992182 0.090274
0.086169 -0.992182 0.090274
-0.713929 -0.694414 0.089971
-0.713929 -0.694414 0.089971
-0.713929 -0.694414 0.089971
-0.713929 -0.694414 0.089971
-0.713929 -0.694414 0.089971
-0.713929 -0.694414 0.089971
-0.983708 -0.178637 0.020189
-0.983708 -0.178637 0.020189
-0.983708 -0.178637 0.020189
-0.983708 -0.178637 0.020189
-0.983708 -0.178637 0.020189
-0.983708 -0.178637 0.020189
-0.898553 0.436580 0.044726
-0.898553 0.436580 0.044726
-0.898553 0.436580 0.044726
-0.898553 0.436580 0.044726
-0.898553 0.436580 0.044726
-0.898553 0.436580 0.044726
-0.345604 0.937230 0.046452
-0.345604 0.937230 0.046452
-0.345604 0.937230 0.046452
-0.345604 0.937230 0.046452
-0.345604 0.937230 0.046452
-0.345604 0.937230 0.046452
-0.000000 0.000000 -1.000000
-0.000000 0.000000 -1.000000
-0.000000 0.000000 -1.000000
-0.916445 0.394587 -0.066551
-0.916445 0.394587 -0.066551
-0.916445 0.394587 -0.066551
-0.916445 0.394587 -0.066551
-0.916445 0.394587 -0.066551
-0.916445 0.394587 -0.066551
-0.426224 0.861820 0.274953
-0.426224 0.861820 0.274953
-0.426224 0.861820 0.274953
-0.426224 0.861820 0.274953
-0.426224 0.861820 0.274953
-0.426224 0.861820 0.274953
0.398926 0.903391 0.157297
0.398926 0.903391 0.157297
0.398926 0.903391 0.157297
0.398926 0.903391 0.157297
0.398926 0.903391 0.157297
0.398926 0.903391 0.157297
-0.914650 0.318218 0.249304
-0.914650 0.318218 0.249304
-0.914650 0.318218 0.249304
-0.914650 0.318218 0.249304
-0.914650 0.318218 0.249304
-0.914650 0.318218 0.249304
-0.136506 -0.990323 0.025026
-0.136506 -0.990323 0.025026
-0.136506 -0.990323 0.025026
-0.136506 -0.990323 0.025026
-0.136506 -0.990323 0.025026
-0.136506 -0.990323 0.025026
-0.971185 -0.153550 0.182270
-0.971185 -0.153550 0.182270
-0.971185 -0.153550 0.182270
-0.971185 -0.153550 0.182270
-0.971185 -0.153550 0.182270
-0.971185 -0.153550 0.182270
-0.000000 0.000000 -1.000000
-0.000000 0.000000 -1.000000
-0.000000 0.000000 -1.000000
-0.000000 0.000000 -1.000000
-0.000000 0.000000 -1.000000
-0.000000 0.000000 -1.000000
-0.719267 -0.677437 0.154060
-0.719267 -0.677437 0.154060
-0.719267 -0.677437 0.154060
-0.719267 -0.677437 0.154060
-0.719267 -0.677437 0.154060
-0.719267 -0.677437 0.154060
-0.959645 -0.242684 0.142076
-0.959645 -0.242684 0.142076
-0.959645 -0.242684 0.142076
-0.959645 -0.242684 0.142076
-0.959645 -0.242684 0.142076
-0.959645 -0.242684 0.142076
-0.197523 -0.963577 0.180290
-0.197523 -0.963577 0.180290
-0.197523 -0.963577 0.180290
-0.197523 -0.963577 0.180290
-0.197523 -0.963577 0.180290
-0.197523 -0.963577 0.180290
0.848886 -0.034270 0.527464
0.848886 -0.034270 0.527464
0.848886 -0.034270 0.527464
0.848886 -0.034270 0.527464
0.848886 -0.034270 0.527464
0.848886 -0.034270 0.527464
0.697012 -0.706206 0.124287
0.697012 -0.706206 0.124287
0.697012 -0.706206 0.124287
0.697012 -0.706206 0.124287
0.697012 -0.706206 0.124287
0.697012 -0.706206 0.124287
0.889867 0.321493 0.323695
0.889867 0.321493 0.323695
0.889867 0.321493 0.323695
0.889867 0.321493 0.323695
0.889867 0.321493 0.323695
0.889867 0.321493 0.323695
0.965900 -0.236049 0.106385
0.965900 -0.236049 0.106385
0.965900 -0.236049 0.106385
0.965900 -0.236049 0.106385
0.965900 -0.236049 0.106385
0.965900 -0.236049 0.106385
0.756711 -0.530201 0.382460
0.756711 -0.530201 0.382460
0.756711 -0.530201 0.382460
0.756711 -0.530201 0.382460
0.756711 -0.530201 0.382460
0.756711 -0.530201 0.382460
0.716408 0.688685 0.111682
0.716408 0.688685 0.111682
0.716408 0.688685 0.111682
0.716408 0.688685 0.111682
0.716408 0.688685 0.111682
0.716408 0.688685 0.111682
0.314456 0.870827 0.377859
0.314456 0.870827 0.377859
0.314456 0.870827 0.377859
0.314456 0.870827 0.377859
0.314456 0.870827 0.377859
0.314456 0.870827 0.377859
0.282344 0.933243 0.222125
0.282344 0.933243 0.222125
0.282344 0.933243 0.222125
0.282344 0.933243 0.222125
0.282344 0.933243 0.222125
0.282344 0.933243 0.222125
-0.000000 0.000000 -1.000000
-0.000000 0.000000 -1.000000
-0.000000 0.000000 -1.000000
-0.000000 0.000000 -1.000000
-0.000000 0.000000 -1.000000
-0.000000 0.000000 -1.000000
0.458542 -0.714285 0.528712
0.458542 -0.714285 0.528712
0.458542 -0.714285 0.528712
0.458542 -0.714285 0.528712
0.458542 -0.714285 0.528712
0.458542 -0.714285 0.528712
-0.549968 -0.722682 0.418648
-0.549968 -0.722682 0.418648
-0.549968 -0.722682 0.418648
-0.549968 -0.722682 0.418648
-0.549968 -0.722682 0.418648
-0.549968 -0.722682 0.418648
-0.881132 -0.147816 0.449174
-0.881132 -0.147816 0.449174
-0.881132 -0.147816 0.449174
-0.881132 -0.147816 0.449174
-0.881132 -0.147816 0.449174
-0.881132 -0.147816 0.449174
0.000000 0.000000 -1.000000
0.000000 0.000000 -1.000000
0.000000 0.000000 -1.000000
0.000000 0.000000 -1.000000
0.000000 0.000000 -1.000000
0.000000 0.000000 -1.000000
-0.896206 0.388172 0.214795
-0.896206 0.388172 0.214795
-0.896206 0.388172 0.214795
-0.896206 0.388172 0.214795
-0.896206 0.388172 0.214795
-0.896206 0.388172 0.214795
-0.128900 -0.504072 0.853989
-0.128900 -0.504072 0.853989
-0.128900 -0.504072 0.853989
0.739727 0.630668 0.234655
0.739727 0.630668 0.234655
0.739727 0.630668 0.234655
0.739727 0.630668 0.234655
0.739727 0.630668 0.234655
0.739727 0.630668 0.234655
-0.000000 0.000000 -1.000000
-0.000000 0.000000 -1.000000
-0.000000 0.000000 -1.000000
-0.000000 0.000000 -1.000000
-0.000000 0.000000 -1.000000
-0.000000 0.000000 -1.000000
-0.370261 0.833607 0.409885
-0.370261 0.833607 0.409885
-0.370261 0.833607 0.409885
-0.370261 0.833607 0.409885
-0.370261 0.833607 0.409885
-0.370261 0.833607 0.409885
-0.685889 0.632745 0.359431
-0.685889 0.632745 0.359431
-0.685889 0.632745 0.359431
-0.000000 0.000000 -1.000000
-0.000000 0.000000 -1.000000
-0.000000 0.000000 -1.000000
-0.000000 0.000000 -1.000000
-0.000000 0.000000 -1.000000
-0.000000 0.000000 -1.000000
0.303637 -0.940001 0.155572
0.303637 -0.940001 0.155572
0.303637 -0.940001 0.155572
0.303637 -0.940001 0.155572
0.303637 -0.940001 0.155572
0.303637 -0.940001 0.155572
0.000000 0.000000 -1.000000
0.000000 0.000000 -1.000000
0.000000 0.000000 -1.000000
0.000000 0.000000 -1.000000
0.000000 0.000000 -1.000000
0.000000 0.000000 -1.000000
0.000000 0.000000 -1.000000
0.000000 0.000000 -1.000000
0.000000 0.000000 -1.000000
0.000000 0.000000 -1.000000
0.000000 0.000000 -1.000000
0.000000 0.000000 -1.000000
0.135960 -0.978697 0.153840
0.135960 -0.978697 0.153840
0.135960 -0.978697 0.153840
-0.441834 0.175627 0.879737
-0.441834 0.175627 0.879737
-0.441834 0.175627 0.879737
-0.000000 0.000000 -1.000000
-0.000000 0.000000 -1.000000
-0.000000 0.000000 -1.000000
0.000000 0.000000 -1.000000
0.000000 0.000000 -1.000000
0.000000 0.000000 -1.000000
0.460385 0.321446 0.827477
0.460385 0.321446 0.827477
0.460385 0.321446 0.827477
-0.191785 0.505613 0.841174
-0.191785 0.505613 0.841174
-0.191785 0.505613 0.841174
-0.854921 0.424659 -0.297953
-0.854921 0.424659 -0.297953
-0.854921 0.424659 -0.297953
0.000000 0.000000 -1.000000
0.000000 0.000000 -1.000000
0.000000 0.000000 -1.000000
0.776650 0.259278 0.574099
0.776650 0.259278 0.574099
0.776650 0.259278 0.574099
0.000000 0.000000 -1.000000
0.000000 0.000000 -1.000000
0.000000 0.000000 -1.000000
0.109610 -0.943531 0.312627
0.109610 -0.943531 0.312627
0.109610 -0.943531 0.312627
0.425105 0.181014 0.886860
0.425105 0.181014 0.886860
0.425105 0.181014 0.886860
0.000000 0.000000 -1.000000
0.000000 0.000000 -1.000000
0.000000 0.000000 -1.000000
0.623389 0.650061 0.434519
0.623389 0.650061 0.434519
0.623389 0.650061 0.434519
0.333840 -0.169202 0.927320
0.333840 -0.169202 0.927320
0.333840 -0.169202 0.927320
0.000000 0.000000 -1.000000
0.000000 0.000000 -1.000000
0.000000 0.000000 -1.000000
0.000000 0.000000 -1.000000
0.000000 0.000000 -1.000000
0.000000 0.000000 -1.000000
-0.000000 0.000000 -1.000000
-0.000000 0.000000 -1.000000
-0.000000 0.000000 -1.000000
0.000000 0.000000 -1.000000
0.000000 0.000000 -1.000000
0.000000 0.000000 -1.000000
-0.000000 0.000000 -1.000000
-0.000000 0.000000 -1.000000
-0.000000 0.000000 -1.000000
-0.351624 -0.473734 0.807426
-0.351624 -0.473734 0.807426
-0.351624 -0.473734 0.807426
0.000000 0.000000 -1.000000
0.000000 0.000000 -1.000000
0.000000 0.000000 -1.000000
0.000000 0.000000 -1.000000
0.000000 0.000000 -1.000000
0.000000 0.000000 -1.000000
-0.132225 -0.680897 0.720344
-0.132225 -0.680897 0.720344
-0.132225 -0.680897 0.720344
-0.132225 -0.680897 0.720344
-0.132225 -0.680897 0.720344
-0.132225 -0.680897 0.720344
0.942674 -0.333662 -0.005969
0.942674 -0.333662 -0.005969
0.942674 -0.333662 -0.005969
0.942674 -0.333662 -0.005969
0.942674 -0.333662 -0.005969
0.942674 -0.333662 -0.005969
0.000000 0.000000 -1.000000
0.000000 0.000000 -1.000000
0.000000 0.000000 -1.000000
-0.720920 -0.566380 0.399359
-0.720920 -0.566380 0.399359
-0.720920 -0.566380 0.399359
0.973759 0.226673 0.020340
0.973759 0.226673 0.020340
0.973759 0.226673 0.020340
0.807724 -0.202754 0.553600
0.807724 -0.202754 0.553600
0.807724 -0.202754 0.553600
-0.000000 0.000000 -1.000000
-0.000000 0.000000 -1.000000
-0.000000 0.000000 -1.000000
-0.000000 0.000000 -1.000000
-0.000000 0.000000 -1.000000
-0.000000 0.000000 -1.000000
0.650268 0.212323 0.729432
0.650268 0.212323 0.729432
0.650268 0.212323 0.729432
0.650268 0.212323 0.729432
0.650268 0.212323 0.729432
0.650268 0.212323 0.729432
-0.080944 0.992791 0.088401
-0.080944 0.992791 0.088401
-0.080944 0.992791 0.088401
-0.080944 0.992791 0.088401
-0.080944 0.992791 0.088401
-0.080944 0.992791 0.088401
0.000000 0.000000 -1.000000
0.000000 0.000000 -1.000000
0.000000 0.000000 -1.000000
0.000000 0.000000 -1.000000
0.000000 0.000000 -1.000000
0.000000 0.000000 -1.000000
-0.580055 0.804242 0.129347
-0.580055 0.804242 0.129347
-0.580055 0.804242 0.129347
0.333945 0.168598 0.927392
0.333945 0.168598 0.927392
0.333945 0.168598 0.927392
0.000000 0.000000 -1.000000
0.000000 0.000000 -1.000000
0.000000 0.000000 -1.000000
0.000000 0.000000 -1.000000
0.000000 0.000000 -1.000000
0.000000 0.000000 -1.000000
-0.733889 0.371148 0.568908
-0.733889 0.371148 0.568908
-0.733889 0.371148 0.568908
-0.733889 0.371148 0.568908
-0.733889 0.371148 0.568908
-0.733889 0.371148 0.568908
-0.797307 -0.592059 0.117338
-0.797307 -0.592059 0.117338
-0.797307 -0.592059 0.117338
-0.797307 -0.592059 0.117338
-0.797307 -0.592059 0.117338
-0.797307 -0.592059 0.117338
-0.282353 -0.957714 0.055320
-0.282353 -0.957714 0.055320
-0.282353 -0.957714 0.055320
-0.056627 0.964197 0.259072
-0.056627 0.964197 0.259072
-0.056627 0.964197 0.259072
-0.318983 -0.045956 0.946646
-0.318983 -0.045956 0.946646
-0.318983 -0.045956 0.946646
0.889728 -0.456491 0.000105
0.889728 -0.456491 0.000105
0.889728 -0.456491 0.000105
0.889728 -0.456491 0.000105
0.889728 -0.456491 0.000105
0.889728 -0.456491 0.000105
-0.249155 -0.968463 0.000984
-0.249155 -0.968463 0.000984
-0.249155 -0.968463 0.000984
-0.249155 -0.968463 0.000984
-0.249155 -0.968463 0.000984
-0.249155 -0.968463 0.000984
-0.701205 0.710656 0.057257
-0.701205 0.710656 0.057257
-0.701205 0.710656 0.057257
-0.701205 0.710656 0.057257
-0.701205 0.710656 0.057257
-0.701205 0.710656 0.057257
0.984076 0.177748 0.000005
0.984076 0.177748 0.000005
0.984076 0.177748 0.000005
0.984076 0.177748 0.000005
0.984076 0.177748 0.000005
0.984076 0.177748 0.000005
-0.996130 0.080800 0.034592
-0.996130 0.080800 0.034592
-0.996130 0.080800 0.034592
-0.996130 0.080800 0.034592
-0.996130 0.080800 0.034592
-0.996130 0.080800 0.034592
-0.006618 -0.025715 0.999647
-0.006618 -0.025715 0.999647
-0.006618 -0.025715 0.999647
-0.006618 -0.025715 0.999647
-0.006618 -0.025715 0.999647
-0.006618 -0.025715 0.999647
-0.501195 0.565593 0.654911
-0.501195 0.565593 0.654911
-0.501195 0.565593 0.654911
-0.501195 0.565593 0.654911
-0.501195 0.565593 0.654911
-0.501195 0.565593 0.654911
-0.029556 0.002147 0.999561
-0.029556 0.002147 0.999561
-0.029556 0.002147 0.999561
-0.029556 0.002147 0.999561
-0.029556 0.002147 0.999561
-0.029556 0.002147 0.999561
-0.504404 -0.495313 0.707277
-0.504404 -0.495313 0.707277
-0.504404 -0.495313 0.707277
-0.504404 -0.495313 0.707277
-0.504404 -0.495313 0.707277
-0.504404 -0.495313 0.707277
0.272599 0.031902 0.961599
0.272599 0.031902 0.961599
0.272599 0.031902 0.961599
0.272599 0.031902 0.961599
0.272599 0.031902 0.961599
0.272599 0.031902 0.961599
-0.175713 0.195188 0.964897
-0.175713 0.195188 0.964897
-0.175713 0.195188 0.964897
-0.175713 0.195188 0.964897
-0.175713 0.195188 0.964897
-0.175713 0.195188 0.964897
0.143531 -0.529366 0.836164
0.143531 -0.529366 0.836164
0.143531 -0.529366 0.836164
0.143531 -0.529366 0.836164
0.143531 -0.529366 0.836164
0.143531 -0.529366 0.836164
0.028814 -0.014964 0.999473
0.028814 -0.014964 0.999473
0.028814 -0.014964 0.999473
0.028814 -0.014964 0.999473
0.028814 -0.014964 0.999473
0.028814 -0.014964 0.999473
0.519148 0.228606 0.823544
0.519148 0.228606 0.823544
0.519148 0.228606 0.823544
0.519148 0.228606 0.823544
0.519148 0.228606 0.823544
0.519148 0.228606 0.823544
0.120849 0.201398 0.972026
0.120849 0.201398 0.972026
0.120849 0.201398 0.972026
0.120849 0.201398 0.972026
0.120849 0.201398 0.972026
0.120849 0.201398 0.972026
-0.314780 -0.193420 0.929248
-0.314780 -0.193420 0.929248
-0.314780 -0.193420 0.929248
-0.314780 -0.193420 0.929248
-0.314780 -0.193420 0.929248
-0.314780 -0.193420 0.929248
0.117596 -0.269220 0.955872
0.117596 -0.269220 0.955872
0.117596 -0.269220 0.955872
0.117596 -0.269220 0.955872
0.117596 -0.269220 0.955872
0.117596 -0.269220 0.955872
-0.179643 0.212509 0.960504
-0.179643 0.212509 0.960504
-0.179643 0.212509 0.960504
-0.179643 0.212509 0.960504
-0.179643 0.212509 0.960504
-0.179643 0.212509 0.960504
0.251328 -0.021007 0.967674
0.251328 -0.021007 0.967674
0.251328 -0.021007 0.967674
-0.033373 0.999443 -0.000473
-0.033373 0.999443 -0.000473
-0.033373 0.999443 -0.000473
-0.033373 0.999443 -0.000473
-0.033373 0.999443 -0.000473
-0.033373 0.999443 -0.000473
-0.800646 -0.599047 -0.010437
-0.800646 -0.599047 -0.010437
-0.800646 -0.599047 -0.010437
-0.800646 -0.599047 -0.010437
-0.800646 -0.599047 -0.010437
-0.800646 -0.599047 -0.010437
0.275705 -0.961242 0.000292
0.275705 -0.961242 0.000292
0.275705 -0.961242 0.000292
0.275705 -0.961242 0.000292
0.275705 -0.961242 0.000292
0.275705 -0.961242 0.000292
0.642478 0.766304 -0.000301
0.642478 0.766304 -0.000301
0.642478 0.766304 -0.000301
0.642478 0.766304 -0.000301
0.642478 0.766304 -0.000301
0.642478 0.766304 -0.000301
</float_array>
          <technique_common>
            <accessor source="#Stump_big_high1-Normal0-array" count="534" stride="3">
              <param name="X" type="float"/>
              <param name="Y" type="float"/>
              <param name="Z" type="float"/>
            </accessor>
          </technique_common>
        </source>
        <source id="Stump_big_high1-UV0">
          <float_array id="Stump_big_high1-UV0-array" count="200">
0.537054 0.522913
0.556974 0.963513
0.572000 0.619160
0.562569 0.973508
0.534578 0.682318
0.539857 0.522913
0.541993 0.852352
0.536253 0.522913
0.534566 0.522913
0.569727 0.522913
0.555083 0.786657
0.563421 0.823592
0.549288 0.953687
0.540758 0.828832
0.556524 0.963902
0.181574 0.118684
0.556588 0.522913
0.540566 0.757081
0.559918 0.958890
0.531502 0.614378
0.561994 0.957932
0.559098 0.961243
0.577426 0.522913
0.559665 0.831414
0.535930 0.629751
0.546022 0.979859
0.570238 0.662832
0.561994 0.957932
0.585644 0.522913
0.543015 0.967770
0.539310 0.736805
0.566513 0.522913
0.573129 0.522913
0.547666 0.782912
0.530176 0.522913
0.143422 0.209133
0.555364 0.522913
0.555249 0.652600
0.173412 0.409122
0.569820 0.522913
0.571948 0.614687
0.555856 0.671122
0.139980 0.022590
0.183788 0.296257
0.119865 0.134822
0.562779 0.522913
0.549263 0.522913
0.549766 0.954923
0.545180 0.982759
0.149980 0.460117
0.115796 0.283941
0.532287 0.522913
0.566807 0.684585
0.558958 0.612744
0.555880 0.522913
0.568895 0.636297
0.543013 0.970788
0.543136 0.522913
0.544152 0.968274
0.541723 0.967624
0.549766 0.954923
0.550450 0.646230
0.574097 0.522913
0.559098 0.961243
0.552557 0.978493
0.532238 0.522913
0.552839 0.753228
0.534218 0.648157
0.546717 0.710500
0.543015 0.967770
0.560209 0.703599
0.550824 0.522913
0.563260 0.957337
0.564114 0.756594
0.544068 0.838644
0.532564 0.631193
0.556088 0.696932
0.544454 0.522913
0.549654 0.617274
0.567175 0.644129
0.561376 0.972803
0.541722 0.748255
0.552606 0.980188
0.561376 0.972803
0.551568 0.522913
0.521483 0.522913
0.164193 0.014823
0.555915 0.522913
0.569593 0.522913
0.562307 0.852928
0.522123 0.522913
0.558502 0.522913
0.560173 0.522913
0.546022 0.979859
0.556524 0.963902
0.552497 0.842356
0.565975 0.522913
0.126567 0.422049
0.544152 0.968274
0.552557 0.978493
</float_array>
          <technique_common>
            <accessor source="#Stump_big_high1-UV0-array" count="100" stride="2">
              <param name="S" type="float"/>
              <param name="T" type="float"/>
            </accessor>
          </technique_common>
        </source>
        <vertices id="Stump_big_high1-VERTEX">
          <input semantic="POSITION" source="#Stump_big_high1-POSITION"/>
        </vertices>
        <triangles count="178" material="AllColors_Material">
          <input semantic="VERTEX" offset="0" source="#Stump_big_high1-VERTEX"/>
          <input semantic="NORMAL" offset="1" source="#Stump_big_high1-Normal0"/>
          <input semantic="TEXCOORD" offset="2" set="0" source="#Stump_big_high1-UV0"/>
          <p> 73 0 82 11 1 23 10 2 95 11 3 23 73 4 82 72 5 18 13 6 11 72 7 18 74 8 72 72 9 18 13 10 11 11 11 23 74 12 72 15 13 89 13 14 11 15 15 89 74 16 72 75 17 3 15 18 89 75 19 3 76 20 1 15 21 89 76 22 1 17 23 10 76 24 1 19 25 33 17 26 10 19 27 33 76 28 1 77 29 12 19 30 33 78 31 56 21 32 6 78 33 56 19 34 33 77 35 12 78 36 56 23 37 13 21 38 6 23 39 13 78 40 56 79 41 59 80 42 48 23 43 13 79 44 59 23 45 13 80 46 48 25 47 74 73 48 82 25 49 74 80 50 48 25 51 74 73 52 82 10 53 95 1 54 45 3 55 96 6 56 5 8 57 57 26 58 81 41 59 61 8 60 57 41 61 61 40 62 46 9 63 66 25 64 74 10 65 95 25 66 74 9 67 66 26 68 81 26 69 81 8 70 57 61 71 67 8 72 57 57 73 65 61 74 67 25 75 74 24 76 30 23 77 13 24 78 30 25 79 74 26 80 81 5 81 77 20 82 68 32 83 24 5 84 77 32 85 24 33 86 0 23 87 13 22 88 17 21 89 6 22 90 17 23 91 13 24 92 30 6 93 5 30 94 51 7 95 7 30 96 51 6 97 5 35 98 8 22 99 17 19 100 33 21 101 6 19 102 33 22 103 17 20 104 68 20 105 68 5 106 77 51 107 78 5 108 77 50 109 71 51 110 78 17 111 10 20 112 68 18 113 76 20 114 68 17 115 10 19 116 33 47 117 40 16 118 73 42 119 26 16 120 73 47 121 40 14 122 52 17 123 10 16 124 73 15 125 89 17 126 10 18 127 76 16 128 73 2 129 88 14 130 52 47 131 40 2 132 88 47 133 40 46 134 32 13 135 11 16 136 73 14 137 52 16 138 73 13 139 11 15 140 89 2 141 88 56 142 2 14 143 52 56 144 2 2 145 88 55 146 62 13 147 11 14 148 52 12 149 70 13 150 11 12 151 70 11 152 23 38 153 41 12 154 70 39 155 53 12 156 70 38 157 41 9 158 66 11 159 23 12 160 70 9 161 66 11 162 23 9 163 66 10 164 95 0 165 54 37 166 92 1 167 45 37 168 92 0 169 54 36 170 16 16 171 73 18 172 76 44 173 79 16 174 73 44 175 79 42 176 26 22 177 17 34 178 4 20 179 68 32 180 24 20 181 68 34 182 4 24 183 30 29 184 75 22 185 17 22 186 17 29 187 75 34 188 4 5 189 77 33 190 0 6 191 5 6 192 5 33 193 0 35 194 8 7 195 7 29 196 75 24 197 30 29 198 75 7 199 7 30 200 51 32 201 24 34 202 4 31 203 90 1 204 45 39 205 53 12 206 70 39 207 53 1 208 45 37 209 92 8 210 57 40 211 46 0 212 54 0 213 54 40 214 46 36 215 16 9 216 66 38 217 41 26 218 81 26 219 81 38 220 41 41 221 61 29 222 75 30 223 51 31 224 90 3 225 96 2 226 88 46 227 32 3 228 96 46 229 32 45 230 9 44 231 79 18 232 76 43 233 31 18 234 76 4 235 36 43 236 31 43 237 31 4 238 36 3 239 96 3 240 96 45 241 9 43 242 31 8 243 57 0 244 54 1 245 45 30 246 51 35 247 8 31 248 90 33 249 0 32 250 24 31 251 90 34 252 4 29 253 75 31 254 90 35 255 8 33 256 0 31 257 90 36 258 16 40 259 46 28 260 84 38 261 41 39 262 53 28 263 84 41 264 61 38 265 41 28 266 84 40 267 46 41 268 61 28 269 84 37 270 92 36 271 16 28 272 84 39 273 53 37 274 92 28 275 84 45 276 9 46 277 32 27 278 28 44 279 79 43 280 31 27 281 28 47 282 40 42 283 26 27 284 28 43 285 31 45 286 9 27 287 28 46 288 32 47 289 40 27 290 28 42 291 26 44 292 79 27 293 28 1 294 45 2 295 88 3 296 96 3 297 96 4 298 36 6 299 5 4 300 36 5 301 77 6 302 5 6 303 5 7 304 7 1 305 45 7 306 7 8 307 57 1 308 45 48 309 37 51 310 78 52 311 91 50 312 71 4 313 36 49 314 87 4 315 36 50 316 71 5 317 77 18 318 76 20 319 68 51 320 78 18 321 76 51 322 78 48 323 37 48 324 37 4 325 36 18 326 76 4 327 36 48 328 37 49 329 87 50 330 71 49 331 87 52 332 91 51 333 78 50 334 71 52 335 91 49 336 87 48 337 37 52 338 91 56 339 2 55 340 62 60 341 22 2 342 88 1 343 45 54 344 39 2 345 88 54 346 39 55 347 62 14 348 52 53 349 55 12 350 70 53 351 55 14 352 52 56 353 2 1 354 45 12 355 70 53 356 55 1 357 45 53 358 55 54 359 39 57 360 65 7 361 7 58 362 34 7 363 7 57 364 65 8 365 57 54 366 39 53 367 55 60 368 22 53 369 55 56 370 2 60 371 22 55 372 62 54 373 39 60 374 22 57 375 65 58 376 34 62 377 85 26 378 81 59 379 19 24 380 30 59 381 19 26 382 81 61 383 67 7 384 7 24 385 30 59 386 19 7 387 7 59 388 19 58 389 34 58 390 34 59 391 19 62 392 85 61 393 67 57 394 65 62 395 85 59 396 19 61 397 67 62 398 85 70 399 69 90 400 93 71 401 25 90 402 93 70 403 69 85 404 29 83 405 64 63 406 63 64 407 99 63 408 63 83 409 64 87 410 21 67 411 14 66 412 80 84 413 83 67 414 14 84 415 83 88 416 94 85 417 29 69 418 58 89 419 98 69 420 58 85 421 29 70 422 69 65 423 20 84 424 83 66 425 80 84 426 83 65 427 20 86 428 27 72 429 18 73 430 82 64 431 99 72 432 18 64 433 99 63 434 63 74 435 72 63 436 63 65 437 20 63 438 63 74 439 72 72 440 18 75 441 3 74 442 72 65 443 20 75 444 3 65 445 20 66 446 80 76 447 1 75 448 3 66 449 80 76 450 1 66 451 80 67 452 14 68 453 60 76 454 1 67 455 14 76 456 1 68 457 60 77 458 12 78 459 56 77 460 12 68 461 60 78 462 56 68 463 60 69 464 58 79 465 59 78 466 56 69 467 58 79 468 59 69 469 58 70 470 69 71 471 25 79 472 59 70 473 69 79 474 59 71 475 25 80 476 48 73 477 82 80 478 48 71 479 25 73 480 82 71 481 25 64 482 99 83 483 49 81 484 35 87 485 38 87 486 38 81 487 35 86 488 43 81 489 35 89 490 44 82 491 42 89 492 44 81 493 35 85 494 50 81 495 35 88 496 86 84 497 15 88 498 86 81 499 35 82 500 42 90 501 97 81 502 35 83 503 49 81 504 35 90 505 97 85 506 50 86 507 43 81 508 35 84 509 15 67 510 14 82 511 47 68 512 60 82 513 47 67 514 14 88 515 94 86 516 27 63 517 63 87 518 21 63 519 63 86 520 27 65 521 20 64 522 99 71 523 25 90 524 93 64 525 99 90 526 93 83 527 64 69 528 58 68 529 60 82 530 47 69 531 58 82 532 47 89 533 98</p>
        </triangles>
      </mesh>
    </geometry>
  </library_geometries>
  <library_visual_scenes>
    <visual_scene id="树干" name="树干">
      <node name="group2" id="group2" sid="group2">
        <matrix sid="matrix">0.005820 0.000000 0.000000 -60.373173 0.000000 0.005820 0.000000 -0.000000 0.000000 0.000000 0.005820 -11.070501 0.000000 0.000000 0.000000 1.000000</matrix>
        <extra>
          <technique profile="FCOLLADA">
            <visibility>1.000000</visibility>
          </technique>
        </extra>
        <node name="Stump_big_high1" id="Stump_big_high1" sid="Stump_big_high1">
          <matrix sid="matrix">152.426851 0.000000 0.000000 8081.608887 0.000000 -0.000025 152.426851 -0.000000 0.000000 -152.426851 -0.000025 5382.888184 0.000000 0.000000 0.000000 1.000000</matrix>
          <instance_geometry url="#Stump_big_high1-lib">
            <bind_material>
              <technique_common>
                <instance_material symbol="AllColors_Material" target="#AllColors_Material"/>
              </technique_common>
            </bind_material>
          </instance_geometry>
          <extra>
            <technique profile="FCOLLADA">
              <visibility>1.000000</visibility>
            </technique>
          </extra>
        </node>
      </node>
      <extra>
        <technique profile="MAX3D">
          <frame_rate>24.000000</frame_rate>
        </technique>
        <technique profile="FCOLLADA">
          <start_time>0.041667</start_time>
          <end_time>8.333333</end_time>
        </technique>
      </extra>
    </visual_scene>
  </library_visual_scenes>
  <scene>
    <instance_visual_scene url="#树干"/>
  </scene>
</COLLADA>
