<?xml version="1.0" encoding="utf-8"?>
<COLLADA xmlns="http://www.collada.org/2005/11/COLLADASchema" version="1.4.1">
  <asset>
    <contributor>
      <author/>
      <authoring_tool>FBX COLLADA exporter</authoring_tool>
      <comments/>
    </contributor>
    <created>2024-06-23T23:00:43Z</created>
    <keywords/>
    <modified>2024-06-23T23:00:43Z</modified>
    <revision/>
    <subject/>
    <title/>
    <unit meter="0.010000" name="centimeter"/>
    <up_axis>Y_UP</up_axis>
  </asset>
  <library_images>
    <image id="base_color_texture1-image" name="base_color_texture1">
      <init_from>file://D:\Alex\3D WORK\[3D] RETURN\[5] 袪邪斜芯褌邪 褋 CGTrader.com\[3] 袚芯褌芯胁褘械 屑芯写械谢懈\Low-Poly Forest Nature Set (project)\files\texture_gradient.png</init_from>
    </image>
  </library_images>
  <library_materials>
    <material id="AllColors_Material" name="AllColors_Material">
      <instance_effect url="#AllColors_Material-fx"/>
    </material>
  </library_materials>
  <library_effects>
    <effect id="AllColors_Material-fx" name="AllColors_Material">
      <profile_COMMON>
        <technique sid="standard">
          <phong>
            <emission>
              <color sid="emission">0.000000  0.000000 0.000000 1.000000</color>
            </emission>
            <ambient>
              <color sid="ambient">0.000000  0.000000 0.000000 1.000000</color>
            </ambient>
            <diffuse>
              <texture texture="base_color_texture1-image" texcoord="CHANNEL0">
                <extra>
                  <technique profile="MAYA">
                    <wrapU sid="wrapU0">TRUE</wrapU>
                    <wrapV sid="wrapV0">TRUE</wrapV>
                    <blend_mode>NONE</blend_mode>
                  </technique>
                </extra>
              </texture>
            </diffuse>
            <specular>
              <color sid="specular">0.200000  0.200000 0.200000 1.000000</color>
            </specular>
            <shininess>
              <float sid="shininess">36.000000</float>
            </shininess>
            <reflective>
              <color sid="reflective">0.800000  0.800000 0.800000 1.000000</color>
            </reflective>
            <reflectivity>
              <float sid="reflectivity">0.000000</float>
            </reflectivity>
            <transparent opaque="RGB_ZERO">
              <color sid="transparent">0.000000  0.000000 0.000000 1.000000</color>
            </transparent>
            <transparency>
              <float sid="transparency">1.000000</float>
            </transparency>
          </phong>
        </technique>
      </profile_COMMON>
    </effect>
  </library_effects>
  <library_geometries>
    <geometry id="stone2-lib" name="stone2Mesh">
      <mesh>
        <source id="stone2-POSITION">
          <float_array id="stone2-POSITION-array" count="366">
-0.133337 1.662446 0.000000
1.518382 0.965128 0.000000
2.236070 -1.558047 0.000000
-1.081664 1.257518 1.104961
0.586824 1.699708 1.700315
2.618478 1.057336 1.230800
1.186518 -2.303504 1.136297
0.066436 0.195552 3.017688
-1.099758 -0.326500 0.000000
-0.267136 -1.517184 0.000000
0.217809 -1.859951 -0.000258
1.197276 -0.705121 0.000000
-0.736733 0.987845 0.000000
0.882956 0.683785 0.000000
0.530233 1.741699 0.000427
0.053718 -2.678105 0.151820
2.140560 -1.856046 0.209206
-2.335008 -1.197540 0.040557
-1.328112 -2.412927 0.176417
-0.823192 1.671116 0.000000
-1.672885 0.697470 0.145082
1.314487 1.746311 0.005048
0.044841 1.924029 0.205915
2.639146 -0.827979 0.000000
-0.526469 -2.266223 1.201577
-1.864721 -0.120056 0.702566
1.683393 2.082669 1.592881
2.356349 -0.658711 1.398789
-1.209351 -0.915722 1.235242
0.717435 -0.915068 2.739628
-0.724294 0.541049 2.154130
0.413600 1.068879 3.127132
1.610267 1.376177 3.044798
0.010384 -0.071348 0.000000
-1.709734 -0.906710 0.000000
0.109558 0.660706 0.000000
0.463186 0.346162 0.000000
2.295117 -0.516965 0.000000
-0.162016 -2.614023 -0.005440
-2.162395 -0.743968 0.000000
-1.321654 -2.253444 0.711362
0.311821 1.747361 0.902478
2.666083 0.759332 0.513949
-1.302341 -1.712648 1.205409
-1.388222 0.760959 1.011510
0.196860 1.210107 2.432532
1.841262 -1.720262 1.204038
-1.944317 -1.107365 0.976157
0.538478 1.509889 2.679586
2.183051 1.801980 1.907825
-0.224886 -0.649770 0.000000
-1.209826 -2.357802 -0.001970
-1.601071 0.223067 0.000000
0.630590 -2.525906 0.570018
-2.110715 -1.492381 0.390769
-1.073690 1.536557 0.604284
-1.785962 0.277521 0.000000
1.107868 1.893136 1.134236
1.734728 1.463748 0.000000
0.225245 -2.342736 1.155425
-2.103843 -0.986694 0.697088
-0.695878 1.364747 1.523272
-0.392031 0.249629 2.492163
0.775026 0.693092 3.348329
1.359366 0.355202 3.286563
1.622838 -1.016012 2.256244
2.030614 0.572901 2.706738
0.943503 1.243818 3.280572
1.172339 1.822241 2.655519
-0.233205 0.840991 2.601050
-0.017815 0.963798 2.534968
-0.703114 1.175782 1.858423
-1.032754 -0.101184 1.264625
-1.311062 0.322286 1.218891
-1.628464 -0.429852 0.892751
-0.223070 -0.827174 2.344701
-0.821948 -1.642980 1.492586
0.060681 -1.754260 1.929155
2.621024 -1.330889 0.432584
2.577001 -1.376662 0.000000
2.781496 -0.199066 0.863294
2.081669 1.844317 0.741100
1.510460 1.972250 0.804601
-0.532800 1.798769 0.000004
-0.795705 1.545741 0.920276
-1.886729 0.277776 0.407018
-2.137033 -0.336556 0.000000
-2.299647 -0.343234 0.251327
-1.046296 -2.556816 0.625874
-0.756161 -2.787771 0.145523
0.119790 -2.552143 0.793689
2.520784 0.284755 0.000000
2.017752 1.019806 0.000000
0.649012 1.909812 0.013494
0.309294 1.970058 0.009639
-1.359024 1.202883 0.128625
-1.298794 1.236757 0.000000
-1.443246 0.793365 0.000000
-1.940318 -1.940835 0.310808
-1.891104 -1.870013 -0.000158
1.150925 -2.372778 0.129831
1.345103 -2.220400 -0.002857
2.117248 0.236052 0.000000
0.853997 0.043932 0.000000
1.478001 0.439204 0.000000
1.029581 1.424576 0.000000
0.347872 1.032964 0.000000
-0.700710 0.372573 0.000000
-1.312937 0.251051 0.000000
1.789097 -1.514396 0.000000
0.431701 -1.050035 0.000000
-1.528504 -1.414120 0.000000
-0.770728 -0.913781 0.000000
-0.968908 -1.665165 0.000000
-0.109425 -2.126862 -0.000772
-0.734054 -2.638046 -0.003433
0.799562 0.370991 3.447328
0.932817 1.795694 2.435470
-2.094341 -0.990032 0.432782
-0.733278 -2.740136 0.451532
0.637692 -1.410974 0.000000
0.248857 -0.698371 0.000000
</float_array>
          <technique_common>
            <accessor source="#stone2-POSITION-array" count="122" stride="3">
              <param name="X" type="float"/>
              <param name="Y" type="float"/>
              <param name="Z" type="float"/>
            </accessor>
          </technique_common>
        </source>
        <source id="stone2-Normal0">
          <float_array id="stone2-Normal0-array" count="2160">
-0.000000 0.000000 -1.000000
-0.000000 0.000000 -1.000000
-0.000000 0.000000 -1.000000
-0.000000 -0.000000 -1.000000
-0.000000 -0.000000 -1.000000
-0.000000 -0.000000 -1.000000
0.000000 0.000000 -1.000000
0.000000 0.000000 -1.000000
0.000000 0.000000 -1.000000
0.000000 0.000000 -1.000000
0.000000 0.000000 -1.000000
0.000000 0.000000 -1.000000
0.000000 0.000000 -1.000000
0.000000 0.000000 -1.000000
0.000000 0.000000 -1.000000
-0.000000 0.000000 -1.000000
-0.000000 0.000000 -1.000000
-0.000000 0.000000 -1.000000
-0.000000 0.000000 -1.000000
-0.000000 0.000000 -1.000000
-0.000000 0.000000 -1.000000
-0.000093 0.006919 -0.999976
-0.000093 0.006919 -0.999976
-0.000093 0.006919 -0.999976
0.203851 -0.776600 -0.596101
0.203851 -0.776600 -0.596101
0.203851 -0.776600 -0.596101
-0.142545 -0.034204 -0.989197
-0.142545 -0.034204 -0.989197
-0.142545 -0.034204 -0.989197
0.000000 -0.000000 -1.000000
0.000000 -0.000000 -1.000000
0.000000 -0.000000 -1.000000
0.008048 0.008562 -0.999931
0.008048 0.008562 -0.999931
0.008048 0.008562 -0.999931
0.000000 0.000000 -1.000000
0.000000 0.000000 -1.000000
0.000000 0.000000 -1.000000
0.000000 0.000000 -1.000000
0.000000 0.000000 -1.000000
0.000000 0.000000 -1.000000
-0.270403 0.016833 -0.962600
-0.270403 0.016833 -0.962600
-0.270403 0.016833 -0.962600
-0.691178 0.395150 -0.605086
-0.691178 0.395150 -0.605086
-0.691178 0.395150 -0.605086
0.325045 -0.610953 -0.721861
0.325045 -0.610953 -0.721861
0.325045 -0.610953 -0.721861
-0.655925 -0.472840 0.588375
-0.655925 -0.472840 0.588375
-0.655925 -0.472840 0.588375
-0.376122 -0.532408 0.758337
-0.376122 -0.532408 0.758337
-0.376122 -0.532408 0.758337
-0.797107 0.408399 0.444781
-0.797107 0.408399 0.444781
-0.797107 0.408399 0.444781
-0.742637 0.174973 0.646433
-0.742637 0.174973 0.646433
-0.742637 0.174973 0.646433
-0.697150 0.709472 0.103104
-0.697150 0.709472 0.103104
-0.697150 0.709472 0.103104
-0.478046 0.658420 0.581339
-0.478046 0.658420 0.581339
-0.478046 0.658420 0.581339
0.374388 0.790527 0.484666
0.374388 0.790527 0.484666
0.374388 0.790527 0.484666
0.761571 -0.454320 0.462173
0.761571 -0.454320 0.462173
0.761571 -0.454320 0.462173
0.649788 0.020247 0.759845
0.649788 0.020247 0.759845
0.649788 0.020247 0.759845
0.833999 0.224257 0.504137
0.833999 0.224257 0.504137
0.833999 0.224257 0.504137
0.330710 0.014923 0.943615
0.330710 0.014923 0.943615
0.330710 0.014923 0.943615
0.105046 0.710428 0.695886
0.105046 0.710428 0.695886
0.105046 0.710428 0.695886
-0.400671 0.740930 0.538966
-0.400671 0.740930 0.538966
-0.400671 0.740930 0.538966
-0.689374 0.052111 0.722529
-0.689374 0.052111 0.722529
-0.689374 0.052111 0.722529
-0.448008 0.877590 0.170660
-0.448008 0.877590 0.170660
-0.448008 0.877590 0.170660
-0.736206 0.305823 0.603717
-0.736206 0.305823 0.603717
-0.736206 0.305823 0.603717
-0.606587 0.698058 0.380483
-0.606587 0.698058 0.380483
-0.606587 0.698058 0.380483
-0.798931 -0.320835 0.508698
-0.798931 -0.320835 0.508698
-0.798931 -0.320835 0.508698
-0.642731 -0.579489 0.501088
-0.642731 -0.579489 0.501088
-0.642731 -0.579489 0.501088
-0.661749 -0.045244 0.748359
-0.661749 -0.045244 0.748359
-0.661749 -0.045244 0.748359
-0.563519 0.092563 0.820901
-0.563519 0.092563 0.820901
-0.563519 0.092563 0.820901
-0.878144 -0.301028 0.371813
-0.878144 -0.301028 0.371813
-0.878144 -0.301028 0.371813
-0.745660 0.138150 0.651847
-0.745660 0.138150 0.651847
-0.745660 0.138150 0.651847
-0.732122 -0.155305 0.663233
-0.732122 -0.155305 0.663233
-0.732122 -0.155305 0.663233
-0.426726 -0.540781 0.724887
-0.426726 -0.540781 0.724887
-0.426726 -0.540781 0.724887
-0.044638 -0.799702 0.598736
-0.044638 -0.799702 0.598736
-0.044638 -0.799702 0.598736
0.731641 -0.449094 0.512850
0.731641 -0.449094 0.512850
0.731641 -0.449094 0.512850
0.620617 -0.729959 0.286346
0.620617 -0.729959 0.286346
0.620617 -0.729959 0.286346
0.738611 -0.674121 -0.003837
0.738611 -0.674121 -0.003837
0.738611 -0.674121 -0.003837
0.854755 -0.286011 0.433119
0.854755 -0.286011 0.433119
0.854755 -0.286011 0.433119
0.673409 0.480369 -0.561931
0.673409 0.480369 -0.561931
0.673409 0.480369 -0.561931
0.495245 0.868677 -0.011513
0.495245 0.868677 -0.011513
0.495245 0.868677 -0.011513
0.196164 0.964261 -0.178104
0.196164 0.964261 -0.178104
0.196164 0.964261 -0.178104
-0.330150 0.926437 -0.180873
-0.330150 0.926437 -0.180873
-0.330150 0.926437 -0.180873
-0.553757 0.797784 0.238523
-0.553757 0.797784 0.238523
-0.553757 0.797784 0.238523
-0.398714 0.907013 0.135476
-0.398714 0.907013 0.135476
-0.398714 0.907013 0.135476
-0.160273 0.937784 0.308017
-0.160273 0.937784 0.308017
-0.160273 0.937784 0.308017
-0.189099 0.972199 0.138096
-0.189099 0.972199 0.138096
-0.189099 0.972199 0.138096
-0.839335 0.293499 0.457574
-0.839335 0.293499 0.457574
-0.839335 0.293499 0.457574
-0.845205 0.476105 0.242802
-0.845205 0.476105 0.242802
-0.845205 0.476105 0.242802
-0.829973 0.165756 -0.532607
-0.829973 0.165756 -0.532607
-0.829973 0.165756 -0.532607
-0.682976 -0.371632 0.628835
-0.682976 -0.371632 0.628835
-0.682976 -0.371632 0.628835
-0.634082 -0.509083 0.582043
-0.634082 -0.509083 0.582043
-0.634082 -0.509083 0.582043
-0.055770 -0.856964 0.512350
-0.055770 -0.856964 0.512350
-0.055770 -0.856964 0.512350
0.666437 0.444326 -0.598696
0.666437 0.444326 -0.598696
0.666437 0.444326 -0.598696
0.000000 0.000000 -1.000000
0.000000 0.000000 -1.000000
0.000000 0.000000 -1.000000
0.000000 0.000000 -1.000000
0.000000 0.000000 -1.000000
0.000000 0.000000 -1.000000
0.090456 0.973048 0.212123
0.090456 0.973048 0.212123
0.090456 0.973048 0.212123
-0.215634 0.967496 0.132113
-0.215634 0.967496 0.132113
-0.215634 0.967496 0.132113
0.154068 0.895481 0.417585
0.154068 0.895481 0.417585
0.154068 0.895481 0.417585
-0.003739 0.036695 -0.999320
-0.003739 0.036695 -0.999320
-0.003739 0.036695 -0.999320
-0.198763 0.979305 -0.038146
-0.198763 0.979305 -0.038146
-0.198763 0.979305 -0.038146
-0.669087 0.734416 -0.113825
-0.669087 0.734416 -0.113825
-0.669087 0.734416 -0.113825
-0.669457 0.733022 -0.120439
-0.669457 0.733022 -0.120439
-0.669457 0.733022 -0.120439
0.000000 0.000000 -1.000000
0.000000 0.000000 -1.000000
0.000000 0.000000 -1.000000
-0.890060 -0.382428 0.248076
-0.890060 -0.382428 0.248076
-0.890060 -0.382428 0.248076
-0.558275 -0.793205 0.243217
-0.558275 -0.793205 0.243217
-0.558275 -0.793205 0.243217
-0.815299 -0.523158 -0.248178
-0.815299 -0.523158 -0.248178
-0.815299 -0.523158 -0.248178
-0.624594 -0.734227 -0.266069
-0.624594 -0.734227 -0.266069
-0.624594 -0.734227 -0.266069
-0.001537 0.001568 -0.999998
-0.001537 0.001568 -0.999998
-0.001537 0.001568 -0.999998
0.267696 -0.963323 -0.018675
0.267696 -0.963323 -0.018675
0.267696 -0.963323 -0.018675
0.204591 -0.777987 -0.594036
0.204591 -0.777987 -0.594036
0.204591 -0.777987 -0.594036
0.461245 -0.839041 -0.288555
0.461245 -0.839041 -0.288555
0.461245 -0.839041 -0.288555
-0.000842 0.004576 -0.999989
-0.000842 0.004576 -0.999989
-0.000842 0.004576 -0.999989
0.451894 -0.605040 -0.655529
0.451894 -0.605040 -0.655529
0.451894 -0.605040 -0.655529
0.000000 0.000000 -1.000000
0.000000 0.000000 -1.000000
0.000000 0.000000 -1.000000
-0.000000 0.000000 -1.000000
-0.000000 0.000000 -1.000000
-0.000000 0.000000 -1.000000
0.000000 -0.000000 -1.000000
0.000000 -0.000000 -1.000000
0.000000 -0.000000 -1.000000
-0.000000 0.000000 -1.000000
-0.000000 0.000000 -1.000000
-0.000000 0.000000 -1.000000
-0.000000 -0.000000 -1.000000
-0.000000 -0.000000 -1.000000
-0.000000 -0.000000 -1.000000
0.000000 -0.000000 -1.000000
0.000000 -0.000000 -1.000000
0.000000 -0.000000 -1.000000
0.000000 0.000000 -1.000000
0.000000 0.000000 -1.000000
0.000000 0.000000 -1.000000
0.000590 0.000451 -1.000000
0.000590 0.000451 -1.000000
0.000590 0.000451 -1.000000
-0.000000 0.000000 -1.000000
-0.000000 0.000000 -1.000000
-0.000000 0.000000 -1.000000
-0.000000 0.000000 -1.000000
-0.000000 0.000000 -1.000000
-0.000000 0.000000 -1.000000
-0.000000 -0.000000 -1.000000
-0.000000 -0.000000 -1.000000
-0.000000 -0.000000 -1.000000
0.000000 -0.000000 -1.000000
0.000000 -0.000000 -1.000000
0.000000 -0.000000 -1.000000
0.000048 0.000531 -1.000000
0.000048 0.000531 -1.000000
0.000048 0.000531 -1.000000
0.000000 -0.000000 -1.000000
0.000000 -0.000000 -1.000000
0.000000 -0.000000 -1.000000
-0.000000 0.000000 -1.000000
-0.000000 0.000000 -1.000000
-0.000000 0.000000 -1.000000
0.001104 0.002460 -0.999996
0.001104 0.002460 -0.999996
0.001104 0.002460 -0.999996
0.000000 0.000000 -1.000000
0.000000 0.000000 -1.000000
0.000000 0.000000 -1.000000
0.000186 0.004978 -0.999988
0.000186 0.004978 -0.999988
0.000186 0.004978 -0.999988
0.000186 0.004978 -0.999988
0.000186 0.004978 -0.999988
0.000186 0.004978 -0.999988
0.000000 0.000000 -1.000000
0.000000 0.000000 -1.000000
0.000000 0.000000 -1.000000
0.000000 0.000000 -1.000000
0.000000 0.000000 -1.000000
0.000000 0.000000 -1.000000
0.000444 0.001382 -0.999999
0.000444 0.001382 -0.999999
0.000444 0.001382 -0.999999
-0.006848 0.010321 -0.999923
-0.006848 0.010321 -0.999923
-0.006848 0.010321 -0.999923
-0.000000 0.000000 -1.000000
-0.000000 0.000000 -1.000000
-0.000000 0.000000 -1.000000
0.000144 0.000136 -1.000000
0.000144 0.000136 -1.000000
0.000144 0.000136 -1.000000
0.000144 0.000136 -1.000000
0.000144 0.000136 -1.000000
0.000144 0.000136 -1.000000
0.000000 0.000000 -1.000000
0.000000 0.000000 -1.000000
0.000000 0.000000 -1.000000
0.005699 0.032264 -0.999463
0.005699 0.032264 -0.999463
0.005699 0.032264 -0.999463
0.005699 0.032264 -0.999463
0.005699 0.032264 -0.999463
0.005699 0.032264 -0.999463
-0.000000 0.000000 -1.000000
-0.000000 0.000000 -1.000000
-0.000000 0.000000 -1.000000
-0.000000 0.000000 -1.000000
-0.000000 0.000000 -1.000000
-0.000000 0.000000 -1.000000
0.078625 -0.793357 -0.603658
0.078625 -0.793357 -0.603658
0.078625 -0.793357 -0.603658
0.078625 -0.793357 -0.603658
0.078625 -0.793357 -0.603658
0.078625 -0.793357 -0.603658
-0.435732 -0.667041 -0.604313
-0.435732 -0.667041 -0.604313
-0.435732 -0.667041 -0.604313
-0.435732 -0.667041 -0.604313
-0.435732 -0.667041 -0.604313
-0.435732 -0.667041 -0.604313
-0.412427 0.014025 0.910883
-0.412427 0.014025 0.910883
-0.412427 0.014025 0.910883
-0.412427 0.014025 0.910883
-0.412427 0.014025 0.910883
-0.412427 0.014025 0.910883
0.000000 0.000028 -1.000000
0.000000 0.000028 -1.000000
0.000000 0.000028 -1.000000
-0.009299 0.004035 -0.999949
-0.009299 0.004035 -0.999949
-0.009299 0.004035 -0.999949
0.000000 0.000000 -1.000000
0.000000 0.000000 -1.000000
0.000000 0.000000 -1.000000
-0.829741 0.200806 0.520775
-0.829741 0.200806 0.520775
-0.829741 0.200806 0.520775
-0.829741 0.200806 0.520775
-0.829741 0.200806 0.520775
-0.829741 0.200806 0.520775
-0.701582 0.623161 0.345621
-0.701582 0.623161 0.345621
-0.701582 0.623161 0.345621
-0.701582 0.623161 0.345621
-0.701582 0.623161 0.345621
-0.701582 0.623161 0.345621
-0.167777 -0.467032 0.868178
-0.167777 -0.467032 0.868178
-0.167777 -0.467032 0.868178
-0.167777 -0.467032 0.868178
-0.167777 -0.467032 0.868178
-0.167777 -0.467032 0.868178
0.279097 0.892995 0.353079
0.279097 0.892995 0.353079
0.279097 0.892995 0.353079
0.525075 -0.652857 0.545961
0.525075 -0.652857 0.545961
0.525075 -0.652857 0.545961
0.219384 0.205035 0.953851
0.219384 0.205035 0.953851
0.219384 0.205035 0.953851
0.219384 0.205035 0.953851
0.219384 0.205035 0.953851
0.219384 0.205035 0.953851
-0.434728 -0.279707 0.856023
-0.434728 -0.279707 0.856023
-0.434728 -0.279707 0.856023
-0.434728 -0.279707 0.856023
-0.434728 -0.279707 0.856023
-0.434728 -0.279707 0.856023
0.735820 -0.352732 0.578056
0.735820 -0.352732 0.578056
0.735820 -0.352732 0.578056
0.735820 -0.352732 0.578056
0.735820 -0.352732 0.578056
0.735820 -0.352732 0.578056
0.357960 -0.515973 0.778226
0.357960 -0.515973 0.778226
0.357960 -0.515973 0.778226
0.918360 0.071470 0.389240
0.918360 0.071470 0.389240
0.918360 0.071470 0.389240
0.918360 0.071470 0.389240
0.918360 0.071470 0.389240
0.918360 0.071470 0.389240
0.852216 -0.257981 0.455163
0.852216 -0.257981 0.455163
0.852216 -0.257981 0.455163
-0.299988 0.952233 0.057090
-0.299988 0.952233 0.057090
-0.299988 0.952233 0.057090
-0.299988 0.952233 0.057090
-0.299988 0.952233 0.057090
-0.299988 0.952233 0.057090
-0.554953 0.266714 0.787966
-0.554953 0.266714 0.787966
-0.554953 0.266714 0.787966
-0.410108 0.909003 0.074328
-0.410108 0.909003 0.074328
-0.410108 0.909003 0.074328
-0.410108 0.909003 0.074328
-0.410108 0.909003 0.074328
-0.410108 0.909003 0.074328
-0.356636 0.765044 0.536207
-0.356636 0.765044 0.536207
-0.356636 0.765044 0.536207
-0.356636 0.765044 0.536207
-0.356636 0.765044 0.536207
-0.356636 0.765044 0.536207
-0.409727 -0.271951 0.870727
-0.409727 -0.271951 0.870727
-0.409727 -0.271951 0.870727
-0.409727 -0.271951 0.870727
-0.409727 -0.271951 0.870727
-0.409727 -0.271951 0.870727
-0.244514 0.826712 0.506715
-0.244514 0.826712 0.506715
-0.244514 0.826712 0.506715
-0.244514 0.826712 0.506715
-0.244514 0.826712 0.506715
-0.244514 0.826712 0.506715
-0.668764 0.402837 0.624881
-0.668764 0.402837 0.624881
-0.668764 0.402837 0.624881
-0.624901 -0.334507 0.705410
-0.624901 -0.334507 0.705410
-0.624901 -0.334507 0.705410
-0.624901 -0.334507 0.705410
-0.624901 -0.334507 0.705410
-0.624901 -0.334507 0.705410
-0.609628 0.256947 0.749888
-0.609628 0.256947 0.749888
-0.609628 0.256947 0.749888
-0.609628 0.256947 0.749888
-0.609628 0.256947 0.749888
-0.609628 0.256947 0.749888
-0.407662 -0.474473 0.780184
-0.407662 -0.474473 0.780184
-0.407662 -0.474473 0.780184
-0.407662 -0.474473 0.780184
-0.407662 -0.474473 0.780184
-0.407662 -0.474473 0.780184
-0.384190 0.287129 0.877471
-0.384190 0.287129 0.877471
-0.384190 0.287129 0.877471
-0.831621 -0.121214 0.541953
-0.831621 -0.121214 0.541953
-0.831621 -0.121214 0.541953
0.229978 -0.757400 0.611110
0.229978 -0.757400 0.611110
0.229978 -0.757400 0.611110
0.229978 -0.757400 0.611110
0.229978 -0.757400 0.611110
0.229978 -0.757400 0.611110
0.041950 -0.663786 0.746745
0.041950 -0.663786 0.746745
0.041950 -0.663786 0.746745
0.990325 -0.109266 -0.085541
0.990325 -0.109266 -0.085541
0.990325 -0.109266 -0.085541
0.990325 -0.109266 -0.085541
0.990325 -0.109266 -0.085541
0.990325 -0.109266 -0.085541
0.641496 -0.710227 0.289934
0.641496 -0.710227 0.289934
0.641496 -0.710227 0.289934
0.848873 0.520023 -0.094821
0.848873 0.520023 -0.094821
0.848873 0.520023 -0.094821
0.848873 0.520023 -0.094821
0.848873 0.520023 -0.094821
0.848873 0.520023 -0.094821
0.316884 0.839167 -0.442022
0.316884 0.839167 -0.442022
0.316884 0.839167 -0.442022
0.316884 0.839167 -0.442022
0.316884 0.839167 -0.442022
0.316884 0.839167 -0.442022
-0.163644 0.936110 0.311318
-0.163644 0.936110 0.311318
-0.163644 0.936110 0.311318
-0.163644 0.936110 0.311318
-0.163644 0.936110 0.311318
-0.163644 0.936110 0.311318
-0.254286 0.963878 -0.079231
-0.254286 0.963878 -0.079231
-0.254286 0.963878 -0.079231
-0.534966 0.763107 0.362601
-0.534966 0.763107 0.362601
-0.534966 0.763107 0.362601
-0.534966 0.763107 0.362601
-0.534966 0.763107 0.362601
-0.534966 0.763107 0.362601
-0.270134 0.945322 0.182743
-0.270134 0.945322 0.182743
-0.270134 0.945322 0.182743
-0.846074 0.487540 -0.215556
-0.846074 0.487540 -0.215556
-0.846074 0.487540 -0.215556
-0.846074 0.487540 -0.215556
-0.846074 0.487540 -0.215556
-0.846074 0.487540 -0.215556
-0.804654 0.549838 0.224076
-0.804654 0.549838 0.224076
-0.804654 0.549838 0.224076
-0.833182 -0.070427 0.548497
-0.833182 -0.070427 0.548497
-0.833182 -0.070427 0.548497
-0.833182 -0.070427 0.548497
-0.833182 -0.070427 0.548497
-0.833182 -0.070427 0.548497
-0.754014 0.364327 0.546561
-0.754014 0.364327 0.546561
-0.754014 0.364327 0.546561
-0.867490 0.076536 0.491532
-0.867490 0.076536 0.491532
-0.867490 0.076536 0.491532
-0.867490 0.076536 0.491532
-0.867490 0.076536 0.491532
-0.867490 0.076536 0.491532
-0.998705 0.035593 -0.036353
-0.998705 0.035593 -0.036353
-0.998705 0.035593 -0.036353
-0.428253 -0.596132 0.679136
-0.428253 -0.596132 0.679136
-0.428253 -0.596132 0.679136
-0.428253 -0.596132 0.679136
-0.428253 -0.596132 0.679136
-0.428253 -0.596132 0.679136
-0.692628 -0.688898 0.213742
-0.692628 -0.688898 0.213742
-0.692628 -0.688898 0.213742
-0.514344 -0.851861 0.098912
-0.514344 -0.851861 0.098912
-0.514344 -0.851861 0.098912
-0.514344 -0.851861 0.098912
-0.514344 -0.851861 0.098912
-0.514344 -0.851861 0.098912
0.140025 -0.976194 0.165643
0.140025 -0.976194 0.165643
0.140025 -0.976194 0.165643
0.140025 -0.976194 0.165643
0.140025 -0.976194 0.165643
0.140025 -0.976194 0.165643
-0.075440 -0.833454 0.547416
-0.075440 -0.833454 0.547416
-0.075440 -0.833454 0.547416
-0.075440 -0.833454 0.547416
-0.075440 -0.833454 0.547416
-0.075440 -0.833454 0.547416
0.100611 -0.927554 0.359890
0.100611 -0.927554 0.359890
0.100611 -0.927554 0.359890
0.100611 -0.927554 0.359890
0.100611 -0.927554 0.359890
0.100611 -0.927554 0.359890
0.128168 -0.975600 0.178262
0.128168 -0.975600 0.178262
0.128168 -0.975600 0.178262
0.964846 0.065996 -0.254394
0.964846 0.065996 -0.254394
0.964846 0.065996 -0.254394
0.964846 0.065996 -0.254394
0.964846 0.065996 -0.254394
0.964846 0.065996 -0.254394
0.010512 0.999889 0.010574
0.010512 0.999889 0.010574
0.010512 0.999889 0.010574
0.010512 0.999889 0.010574
0.010512 0.999889 0.010574
0.010512 0.999889 0.010574
0.992106 0.124606 0.014084
0.992106 0.124606 0.014084
0.992106 0.124606 0.014084
-0.000000 -0.000000 -1.000000
-0.000000 -0.000000 -1.000000
-0.000000 -0.000000 -1.000000
-0.846509 0.487829 0.213180
-0.846509 0.487829 0.213180
-0.846509 0.487829 0.213180
-0.846509 0.487829 0.213180
-0.846509 0.487829 0.213180
-0.846509 0.487829 0.213180
0.022284 0.061813 -0.997839
0.022284 0.061813 -0.997839
0.022284 0.061813 -0.997839
0.007164 0.021020 -0.999753
0.007164 0.021020 -0.999753
0.007164 0.021020 -0.999753
-0.721698 0.338134 -0.604002
-0.721698 0.338134 -0.604002
-0.721698 0.338134 -0.604002
-0.721698 0.338134 -0.604002
-0.721698 0.338134 -0.604002
-0.721698 0.338134 -0.604002
0.414587 -0.908749 0.047887
0.414587 -0.908749 0.047887
0.414587 -0.908749 0.047887
0.414587 -0.908749 0.047887
0.414587 -0.908749 0.047887
0.414587 -0.908749 0.047887
0.000000 0.000000 -1.000000
0.000000 0.000000 -1.000000
0.000000 0.000000 -1.000000
-0.603085 0.400677 -0.689744
-0.603085 0.400677 -0.689744
-0.603085 0.400677 -0.689744
-0.491775 -0.684847 -0.537719
-0.491775 -0.684847 -0.537719
-0.491775 -0.684847 -0.537719
-0.000000 0.000000 -1.000000
-0.000000 0.000000 -1.000000
-0.000000 0.000000 -1.000000
-0.000000 0.000000 -1.000000
-0.000000 0.000000 -1.000000
-0.000000 0.000000 -1.000000
0.000372 0.003812 -0.999993
0.000372 0.003812 -0.999993
0.000372 0.003812 -0.999993
0.000000 -0.000000 -1.000000
0.000000 -0.000000 -1.000000
0.000000 -0.000000 -1.000000
0.000000 -0.000000 -1.000000
0.000000 -0.000000 -1.000000
0.000000 -0.000000 -1.000000
0.000000 0.000000 -1.000000
0.000000 0.000000 -1.000000
0.000000 0.000000 -1.000000
-0.000000 -0.000000 -1.000000
-0.000000 -0.000000 -1.000000
-0.000000 -0.000000 -1.000000
-0.000000 -0.000000 -1.000000
-0.000000 -0.000000 -1.000000
-0.000000 -0.000000 -1.000000
-0.000406 0.000708 -1.000000
-0.000406 0.000708 -1.000000
-0.000406 0.000708 -1.000000
-0.000039 0.000329 -1.000000
-0.000039 0.000329 -1.000000
-0.000039 0.000329 -1.000000
-0.000039 0.000329 -1.000000
-0.000039 0.000329 -1.000000
-0.000039 0.000329 -1.000000
0.000000 -0.000000 -1.000000
0.000000 -0.000000 -1.000000
0.000000 -0.000000 -1.000000
0.000000 0.000000 -1.000000
0.000000 0.000000 -1.000000
0.000000 0.000000 -1.000000
0.000000 0.000000 -1.000000
0.000000 0.000000 -1.000000
0.000000 0.000000 -1.000000
-0.000000 0.000000 -1.000000
-0.000000 0.000000 -1.000000
-0.000000 0.000000 -1.000000
-0.000000 0.000000 -1.000000
-0.000000 0.000000 -1.000000
-0.000000 0.000000 -1.000000
-0.000000 0.000000 -1.000000
-0.000000 0.000000 -1.000000
-0.000000 0.000000 -1.000000
-0.000000 0.000000 -1.000000
-0.000000 0.000000 -1.000000
-0.000000 0.000000 -1.000000
0.000000 0.000000 -1.000000
0.000000 0.000000 -1.000000
0.000000 0.000000 -1.000000
0.000000 0.000000 -1.000000
0.000000 0.000000 -1.000000
0.000000 0.000000 -1.000000
-0.000000 0.000000 -1.000000
-0.000000 0.000000 -1.000000
-0.000000 0.000000 -1.000000
-0.000000 0.000000 -1.000000
-0.000000 0.000000 -1.000000
-0.000000 0.000000 -1.000000
-0.000000 0.000000 -1.000000
-0.000000 0.000000 -1.000000
-0.000000 0.000000 -1.000000
-0.000000 0.000000 -1.000000
-0.000000 0.000000 -1.000000
-0.000000 0.000000 -1.000000
-0.001021 0.003488 -0.999993
-0.001021 0.003488 -0.999993
-0.001021 0.003488 -0.999993
-0.000647 0.003069 -0.999995
-0.000647 0.003069 -0.999995
-0.000647 0.003069 -0.999995
</float_array>
          <technique_common>
            <accessor source="#stone2-Normal0-array" count="720" stride="3">
              <param name="X" type="float"/>
              <param name="Y" type="float"/>
              <param name="Z" type="float"/>
            </accessor>
          </technique_common>
        </source>
        <source id="stone2-UV0">
          <float_array id="stone2-UV0-array" count="244">
0.943570 0.782292
0.934390 0.611680
0.932182 0.525942
0.958278 0.783516
0.962010 0.973003
0.949681 0.525942
0.943438 0.956170
0.977681 0.767999
0.928662 0.525942
0.971501 0.780049
0.949708 0.534485
0.955601 0.525942
0.952362 0.525942
0.941203 0.711748
0.935837 0.525942
0.959535 0.525942
0.957861 0.525942
0.964347 0.525942
0.928309 0.553036
0.938026 0.525942
0.936857 0.887353
0.969683 0.917657
0.947992 0.525942
0.978326 0.525942
0.960451 0.630081
0.966496 0.906932
0.978999 0.649211
0.930565 0.859712
0.939978 0.525942
0.975308 0.525942
0.959443 0.978092
0.929605 0.723941
0.945394 0.525942
0.948317 0.951039
0.949645 0.668932
0.936074 0.700330
0.930168 0.877057
0.933759 0.930441
0.960696 0.745135
0.975363 0.771264
0.940524 0.664581
0.959626 0.525942
0.940297 0.578884
0.978744 0.559681
0.928329 0.841551
0.949375 0.774675
0.960398 0.835571
0.966548 0.525942
0.964579 0.678087
0.973775 0.525942
0.955576 0.525942
0.926571 0.525942
0.931925 0.556502
0.950074 0.525942
0.946882 0.525942
0.948377 0.732582
0.954430 0.837392
0.961288 0.525942
0.952541 0.608457
0.924874 0.730035
0.967273 0.525942
0.954672 0.525942
0.941489 0.525942
0.944583 0.940152
0.930032 0.758989
0.934948 0.525942
0.968755 0.693511
0.956521 0.525942
0.946132 0.525942
0.979050 0.554444
0.928167 0.883978
0.967025 0.563883
0.970996 0.660156
0.932816 0.525942
0.933612 0.756082
0.968186 0.525942
0.973390 0.525942
0.938287 0.898729
0.970490 0.525942
0.923874 0.647950
0.947177 0.617145
0.928555 0.861763
0.975580 0.525942
0.975333 0.623205
0.975663 0.557788
0.941616 0.525942
0.939582 0.754327
0.950021 0.525942
0.957915 0.591779
0.930092 0.525942
0.977513 0.697324
0.946625 0.673070
0.948168 0.525942
0.963851 0.525942
0.953061 0.981023
0.975412 0.617062
0.942372 0.525942
0.955068 0.922186
0.923443 0.692949
0.943369 0.525942
0.976776 0.525942
0.963557 0.525942
0.926459 0.525942
0.961415 0.525942
0.927907 0.561600
0.977848 0.570141
0.953978 0.525942
0.936195 0.525942
0.962997 0.920120
0.939797 0.525942
0.923040 0.773738
0.974985 0.774720
0.928747 0.659220
0.923952 0.820724
0.970843 0.525942
0.952755 0.525942
0.932479 0.525942
0.969894 0.784526
0.971395 0.525942
0.937410 0.673976
0.952989 0.951722
0.933834 0.859060
</float_array>
          <technique_common>
            <accessor source="#stone2-UV0-array" count="122" stride="2">
              <param name="S" type="float"/>
              <param name="T" type="float"/>
            </accessor>
          </technique_common>
        </source>
        <vertices id="stone2-VERTEX">
          <input semantic="POSITION" source="#stone2-POSITION"/>
        </vertices>
        <triangles count="240" material="AllColors_Material">
          <input semantic="VERTEX" offset="0" source="#stone2-VERTEX"/>
          <input semantic="NORMAL" offset="1" source="#stone2-Normal0"/>
          <input semantic="TEXCOORD" offset="2" set="0" source="#stone2-UV0"/>
          <p> 33 0 12 107 1 99 35 2 32 8 3 22 107 4 99 33 5 12 33 6 12 35 7 32 36 8 53 106 9 96 35 10 32 12 11 14 13 12 92 103 13 61 36 14 53 50 15 67 112 16 50 8 17 22 50 18 67 8 19 22 33 20 12 101 21 23 38 22 100 10 23 78 15 24 43 38 25 100 101 26 23 17 27 10 39 28 68 99 29 16 96 30 8 19 31 102 97 32 116 105 33 62 21 34 28 1 35 5 37 36 47 23 37 114 2 38 82 39 39 68 86 40 85 56 41 107 86 42 85 39 43 68 17 44 10 56 45 107 86 46 85 20 47 52 2 48 82 79 49 29 16 50 105 98 51 88 43 52 3 47 53 55 76 54 46 43 55 3 24 56 117 3 57 59 44 58 31 71 59 113 73 60 74 44 61 31 25 62 119 4 63 64 45 64 44 48 65 36 70 66 81 45 67 44 61 68 110 32 69 120 49 70 56 68 71 77 65 72 21 46 73 39 27 74 9 32 75 120 64 76 30 66 77 108 66 78 108 49 79 56 32 80 120 67 81 6 63 82 33 32 83 120 68 84 77 67 85 6 32 86 120 67 87 6 68 88 77 31 89 37 30 90 27 62 91 20 69 92 70 70 93 81 69 94 70 31 95 37 69 96 70 71 97 113 30 98 27 71 99 113 61 100 110 3 101 59 30 102 27 72 103 86 62 104 20 62 105 20 72 106 86 7 107 63 25 108 119 74 109 13 73 110 74 72 111 86 74 112 13 28 113 45 98 114 88 47 115 55 60 116 91 75 117 97 72 118 86 28 119 45 76 120 46 75 121 97 28 122 45 77 123 25 76 124 46 24 125 117 24 126 117 59 127 111 77 128 25 27 129 9 46 130 39 78 131 95 16 132 105 46 133 39 6 134 7 79 135 29 78 136 95 16 137 105 78 138 95 80 139 66 27 140 9 58 141 54 81 142 34 42 143 24 49 144 56 81 145 34 26 146 0 26 147 0 81 148 34 82 149 40 21 150 28 57 151 35 82 152 40 4 153 64 41 154 112 45 155 44 84 156 98 83 157 51 19 158 102 22 159 104 84 160 98 61 161 110 55 162 79 84 163 98 19 164 102 25 165 119 44 166 31 85 167 1 20 168 52 44 169 31 3 170 59 87 171 42 86 172 85 17 173 10 60 174 91 54 175 58 98 176 88 40 177 48 43 178 3 98 179 88 24 180 117 90 181 90 59 182 111 42 183 24 91 184 103 58 185 54 91 186 103 92 187 115 58 188 54 58 189 54 92 190 115 1 191 5 22 192 104 41 193 112 93 194 73 57 195 35 41 196 112 4 197 64 93 198 73 94 199 89 22 200 104 0 201 2 94 202 89 14 203 65 22 204 104 94 205 89 83 206 51 19 207 102 95 208 18 55 209 79 96 210 8 95 211 18 19 212 102 56 213 107 52 214 19 39 215 68 98 216 88 54 217 58 17 218 10 40 219 48 98 220 88 18 221 71 99 222 16 98 223 88 17 224 10 98 225 88 99 226 16 18 227 71 51 228 60 99 229 16 111 230 11 100 231 69 53 232 26 15 233 43 101 234 23 100 235 69 15 236 43 100 237 69 101 238 23 16 239 105 109 240 76 101 241 23 10 242 78 16 243 105 101 244 23 2 245 82 11 246 101 103 247 61 102 248 15 104 249 106 103 250 61 13 251 92 102 252 15 103 253 61 104 254 106 13 255 92 1 256 5 104 257 106 13 258 92 105 259 62 1 260 5 106 261 96 105 262 62 13 263 92 12 264 14 0 265 2 106 266 96 106 267 96 0 268 2 14 269 65 19 270 102 12 271 14 97 272 116 0 273 2 12 274 14 19 275 102 108 276 109 107 277 99 8 278 22 108 279 109 52 280 19 97 281 116 10 282 78 120 283 75 109 284 76 108 285 109 34 286 87 39 287 68 112 288 50 111 289 11 8 290 22 113 291 57 51 292 60 111 293 11 9 294 17 112 295 50 50 296 67 115 297 49 114 298 118 38 299 100 115 300 49 9 301 17 114 302 118 106 303 96 36 304 53 35 305 32 36 306 53 106 307 96 13 308 92 9 309 17 10 310 78 114 311 118 38 312 100 114 313 118 10 314 78 12 315 14 35 316 32 107 317 99 99 318 16 34 319 87 111 320 11 34 321 87 99 322 16 39 323 68 33 324 12 36 325 53 103 326 61 93 327 73 105 328 62 14 329 65 105 330 62 93 331 73 21 332 28 91 333 103 23 334 114 37 335 47 37 336 47 102 337 15 91 338 103 15 339 43 89 340 84 38 341 100 38 342 100 89 343 84 115 344 49 89 345 84 18 346 71 51 347 60 89 348 84 51 349 60 115 350 49 47 351 55 43 352 3 28 353 45 43 354 3 76 355 46 28 356 45 0 357 2 19 358 102 83 359 51 1 360 5 21 361 28 58 362 54 2 363 82 23 364 114 79 365 29 71 366 113 73 367 74 30 368 27 73 369 74 71 370 113 44 371 31 70 372 81 48 373 36 45 374 44 48 375 36 70 376 81 31 377 37 29 378 4 64 379 30 116 380 94 116 381 94 75 382 97 29 383 4 26 384 0 68 385 77 49 386 56 6 387 7 46 388 39 65 389 21 63 390 33 64 391 30 32 392 120 64 393 30 63 394 33 116 395 94 7 396 63 116 397 94 63 398 33 116 399 94 7 400 63 75 401 97 27 402 9 66 403 108 65 404 21 65 405 21 66 406 108 64 407 30 29 408 4 65 409 21 64 410 30 5 411 38 49 412 56 66 413 108 66 414 108 80 415 66 5 416 38 27 417 9 80 418 66 66 419 108 117 420 121 26 421 0 57 422 35 26 423 0 117 424 121 68 425 77 7 426 63 63 427 33 67 428 6 4 429 64 48 430 36 117 431 121 117 432 121 57 433 35 4 434 64 68 435 77 48 436 36 31 437 37 48 438 36 68 439 77 117 440 121 62 441 20 67 442 6 31 443 37 62 444 20 31 445 37 69 446 70 70 447 81 71 448 113 69 449 70 71 450 113 70 451 81 61 452 110 7 453 63 67 454 6 62 455 20 30 456 27 73 457 74 72 458 86 73 459 74 74 460 13 72 461 86 25 462 119 60 463 91 74 464 13 47 465 55 74 466 13 60 467 91 75 468 97 77 469 25 29 470 4 77 471 25 75 472 97 76 473 46 28 474 45 74 475 13 47 476 55 7 477 63 72 478 86 75 479 97 59 480 111 65 481 21 77 482 25 65 483 21 29 484 4 77 485 25 6 486 7 65 487 21 59 488 111 80 489 66 78 490 95 23 491 114 78 492 95 79 493 29 23 494 114 16 495 105 78 496 95 46 497 39 81 498 34 49 499 56 5 500 38 81 501 34 5 502 38 42 503 24 58 504 54 82 505 40 81 506 34 82 507 40 58 508 54 21 509 28 22 510 104 61 511 110 41 512 112 61 513 110 45 514 44 41 515 112 26 516 0 82 517 40 57 518 35 3 519 59 84 520 98 55 521 79 3 522 59 61 523 110 84 524 98 22 525 104 83 526 51 84 527 98 87 528 42 85 529 1 86 530 85 85 531 1 20 532 52 86 533 85 20 534 52 85 535 1 44 536 31 17 537 10 54 538 58 118 539 80 118 540 80 87 541 42 17 542 10 25 543 119 85 544 1 87 545 42 25 546 119 87 547 42 60 548 91 60 549 91 87 550 42 118 551 80 60 552 91 118 553 80 54 554 58 24 555 117 40 556 48 88 557 72 24 558 117 43 559 3 40 560 48 18 561 71 88 562 72 40 563 48 89 564 84 119 565 83 88 566 72 88 567 72 18 568 71 89 569 84 119 570 83 15 571 43 90 572 90 15 573 43 119 574 83 89 575 84 119 576 83 24 577 117 88 578 72 24 579 117 119 580 83 90 581 90 6 582 7 59 583 111 53 584 26 53 585 26 59 586 111 90 587 90 15 588 43 53 589 26 90 590 90 91 591 103 42 592 24 80 593 66 80 594 66 23 595 114 91 596 103 93 597 73 41 598 112 57 599 35 57 600 35 21 601 28 93 602 73 5 603 38 80 604 66 42 605 24 102 606 15 92 607 115 91 608 103 20 609 52 3 610 59 95 611 18 95 612 18 3 613 59 55 614 79 14 615 65 94 616 89 93 617 73 83 618 51 94 619 89 0 620 2 20 621 52 95 622 18 97 623 116 97 624 116 95 625 18 96 626 8 16 627 105 6 628 7 100 629 69 100 630 69 6 631 7 53 632 26 52 633 19 56 634 107 97 635 116 20 636 52 97 637 116 56 638 107 18 639 71 99 640 16 51 641 60 37 642 47 11 643 101 102 644 15 11 645 101 37 646 47 109 647 76 2 648 82 101 649 23 109 650 76 104 651 106 92 652 115 102 653 15 92 654 115 104 655 106 1 656 5 2 657 82 109 658 76 37 659 47 107 660 99 108 661 109 97 662 116 107 663 99 97 664 116 12 665 14 14 666 65 105 667 62 106 668 96 110 669 93 10 670 78 9 671 17 10 672 78 110 673 93 120 674 75 39 675 68 52 676 19 108 677 109 11 678 101 120 679 75 110 680 93 120 681 75 11 682 101 109 683 76 110 684 93 50 685 67 121 686 41 50 687 67 110 688 93 9 689 17 50 690 67 33 691 12 121 692 41 121 693 41 33 694 12 103 695 61 11 696 101 121 697 41 103 698 61 121 699 41 11 700 101 110 701 93 34 702 87 108 703 109 8 704 22 34 705 87 8 706 22 111 707 11 9 708 17 113 709 57 112 710 50 111 711 11 112 712 50 113 713 57 115 714 49 51 715 60 9 716 17 113 717 57 9 718 17 51 719 60</p>
        </triangles>
      </mesh>
    </geometry>
  </library_geometries>
  <library_visual_scenes>
    <visual_scene id="stone2" name="stone2">
      <node name="stone2" id="stone2" sid="stone2">
        <matrix sid="matrix">0.582021 0.000000 0.000000 -3.776781 0.000000 -0.000000 0.582021 -0.000000 0.000000 -0.582021 -0.000000 20.034781 0.000000 0.000000 0.000000 1.000000</matrix>
        <instance_geometry url="#stone2-lib">
          <bind_material>
            <technique_common>
              <instance_material symbol="AllColors_Material" target="#AllColors_Material"/>
            </technique_common>
          </bind_material>
        </instance_geometry>
        <extra>
          <technique profile="FCOLLADA">
            <visibility>1.000000</visibility>
          </technique>
        </extra>
      </node>
      <extra>
        <technique profile="MAX3D">
          <frame_rate>24.000000</frame_rate>
        </technique>
        <technique profile="FCOLLADA">
          <start_time>0.041667</start_time>
          <end_time>8.333333</end_time>
        </technique>
      </extra>
    </visual_scene>
  </library_visual_scenes>
  <scene>
    <instance_visual_scene url="#stone2"/>
  </scene>
</COLLADA>
