<?xml version="1.0" encoding="utf-8"?>
<COLLADA xmlns="http://www.collada.org/2005/11/COLLADASchema" version="1.4.1">
  <asset>
    <contributor>
      <author/>
      <authoring_tool>FBX COLLADA exporter</authoring_tool>
      <comments/>
    </contributor>
    <created>2024-06-23T23:00:54Z</created>
    <keywords/>
    <modified>2024-06-23T23:00:54Z</modified>
    <revision/>
    <subject/>
    <title/>
    <unit meter="0.010000" name="centimeter"/>
    <up_axis>Y_UP</up_axis>
  </asset>
  <library_images>
    <image id="base_color_texture1-image" name="base_color_texture1">
      <init_from>file://D:\Alex\3D WORK\[3D] RETURN\[5] 袪邪斜芯褌邪 褋 CGTrader.com\[3] 袚芯褌芯胁褘械 屑芯写械谢懈\Low-Poly Forest Nature Set (project)\files\texture_gradient.png</init_from>
    </image>
  </library_images>
  <library_materials>
    <material id="AllColors_Material" name="AllColors_Material">
      <instance_effect url="#AllColors_Material-fx"/>
    </material>
  </library_materials>
  <library_effects>
    <effect id="AllColors_Material-fx" name="AllColors_Material">
      <profile_COMMON>
        <technique sid="standard">
          <phong>
            <emission>
              <color sid="emission">0.000000  0.000000 0.000000 1.000000</color>
            </emission>
            <ambient>
              <color sid="ambient">0.000000  0.000000 0.000000 1.000000</color>
            </ambient>
            <diffuse>
              <texture texture="base_color_texture1-image" texcoord="CHANNEL0">
                <extra>
                  <technique profile="MAYA">
                    <wrapU sid="wrapU0">TRUE</wrapU>
                    <wrapV sid="wrapV0">TRUE</wrapV>
                    <blend_mode>NONE</blend_mode>
                  </technique>
                </extra>
              </texture>
            </diffuse>
            <specular>
              <color sid="specular">0.200000  0.200000 0.200000 1.000000</color>
            </specular>
            <shininess>
              <float sid="shininess">36.000000</float>
            </shininess>
            <reflective>
              <color sid="reflective">0.800000  0.800000 0.800000 1.000000</color>
            </reflective>
            <reflectivity>
              <float sid="reflectivity">0.000000</float>
            </reflectivity>
            <transparent opaque="RGB_ZERO">
              <color sid="transparent">0.000000  0.000000 0.000000 1.000000</color>
            </transparent>
            <transparency>
              <float sid="transparency">1.000000</float>
            </transparency>
          </phong>
        </technique>
      </profile_COMMON>
    </effect>
  </library_effects>
  <library_geometries>
    <geometry id="stone1-lib" name="stone1Mesh">
      <mesh>
        <source id="stone1-POSITION">
          <float_array id="stone1-POSITION-array" count="555">
-0.623040 -2.157973 -0.000000
-1.872249 -0.263922 0.000000
-1.537986 2.421264 0.000000
0.326485 -3.075650 0.983877
-1.959671 0.603272 1.260817
0.231467 2.611311 1.392336
-1.051623 -1.433999 2.330031
1.527875 -0.420084 0.000000
0.867619 1.392522 0.000000
0.553289 2.043115 0.000000
-1.016613 1.230148 0.000000
0.537778 -1.763302 -0.000000
-1.265756 -0.420256 0.000000
-1.355941 -1.854869 0.000000
1.060073 3.058134 0.194074
3.579708 -0.148934 0.332667
2.323563 1.972859 0.531300
0.095697 -2.809791 -0.000000
1.890032 -2.199862 0.152558
-2.056057 -1.320493 0.000000
-1.166733 -2.636464 0.107347
-2.152921 1.836249 0.000000
1.577448 2.092113 1.846987
2.579813 -1.593630 0.977832
-1.061913 1.630481 1.461644
-0.270476 -2.632366 1.724765
-2.231279 -2.471607 2.309064
-2.366854 -0.396075 2.449120
0.005635 0.031653 0.000000
2.643151 -0.136978 -0.000000
-0.381343 -0.723524 0.000000
-0.666868 -0.214929 0.000000
-1.982276 1.419533 0.000000
1.205573 2.848693 0.000000
3.207395 -0.572151 -0.000000
2.356767 1.669166 1.472228
-1.605168 -2.583971 0.672647
-2.218291 0.696597 0.599019
2.402125 0.643242 2.317359
-0.404301 2.140711 1.411115
3.043463 -0.405187 1.751770
-2.410513 -0.148763 1.791490
0.488509 0.483203 0.000000
2.162625 1.969568 -0.000000
2.045993 -1.506228 0.000000
3.386355 0.195912 0.984392
0.282414 -3.148102 0.528095
2.289902 -1.704144 0.000000
-2.334761 -1.927564 0.998571
-2.166497 -0.586008 0.000000
0.982655 2.536668 1.515723
3.218043 -0.530175 1.306051
-0.757731 -2.145967 1.938674
-1.967842 -0.980216 2.445162
-0.880781 0.110640 2.562008
-0.083196 1.239054 2.224184
-1.238623 0.573106 2.257098
-2.596820 -1.571628 2.474708
-1.342054 -2.929111 1.915629
-1.644914 -2.875433 1.820715
-0.515828 -3.237564 1.474002
1.413010 -1.631222 1.271873
2.422498 -1.266054 1.305111
1.060390 -0.473110 2.398845
1.919283 0.711749 2.510478
1.241727 1.157732 2.565114
-1.728815 2.248233 0.524135
-1.924345 2.339296 0.000000
-1.893307 1.438138 0.963875
-2.406632 -0.457658 0.822493
-2.461496 -1.419893 0.797467
-0.370207 -2.790665 -0.000000
3.026870 -1.077675 0.069704
3.219619 -1.217841 0.448807
1.794007 2.850081 0.224476
-2.312601 0.859411 0.000000
-2.202043 0.033319 0.000000
-1.629575 -2.086008 -0.000000
-1.349660 -2.384223 -0.000000
1.135588 -2.615891 0.080803
1.052244 -2.568758 -0.000000
1.527130 -2.137183 -0.000000
3.201420 0.860944 0.929958
3.114123 0.844474 0.393620
-0.044915 2.900712 0.163949
-0.350494 2.815243 0.000000
-2.038792 0.705605 0.000000
-0.994737 0.284346 0.000000
-1.685758 0.184627 0.000000
-1.664931 -1.144014 0.000000
-0.803168 -1.050467 0.000000
0.708184 -0.944412 0.000000
1.615264 -1.320875 0.000000
-1.175287 2.253921 0.000000
-0.037057 1.278616 0.000000
2.511543 0.543532 -0.000000
1.287643 0.423031 0.000000
1.752424 1.175019 -0.000000
0.945206 2.206081 0.000000
1.710266 2.627578 -0.000000
-1.265306 -0.510788 2.596253
3.233099 -0.435969 0.922870
-0.064704 1.749143 0.000000
-0.010017 0.820072 0.000000
-1.200277 2.660929 0.295693
0.199956 2.621170 1.464432
3.576790 -0.136047 0.274793
3.218663 -0.600516 -0.042853
2.372656 1.963317 0.559904
2.379092 1.675258 1.530469
1.904904 -2.264307 0.169279
0.367217 -3.119446 1.026711
-1.171278 -2.672019 0.058936
-1.618927 -2.630277 0.640024
-2.135249 -2.605400 1.235564
-2.231647 -0.598673 0.038602
-2.279121 0.669387 0.645136
1.596345 2.098512 1.907879
2.400866 0.616296 2.397939
3.231553 0.860512 0.969329
2.579186 -1.652383 1.049125
1.286116 -2.576694 1.085173
-0.507923 -3.344859 1.195917
-1.869648 -2.919451 1.728125
-0.446923 2.152058 1.481668
2.133933 -0.658345 1.997455
3.047831 -0.428272 1.829134
-0.487685 -3.280965 1.515933
-2.220266 -2.502856 2.358027
-2.321743 -2.760810 1.996267
-2.375194 -0.377723 2.514587
-2.462332 -0.119247 1.781214
0.564503 3.004397 0.754987
1.041300 3.083189 0.236116
-1.518066 2.449151 -0.023109
3.394880 0.208584 1.062086
0.287607 -3.194289 0.498125
0.101643 -2.855251 -0.035659
-2.367726 -1.942991 0.944681
0.959526 2.541169 1.597355
3.245468 -0.515207 1.357220
-2.857094 -1.273116 1.440048
-0.992473 -1.461611 2.414304
1.405737 -1.648155 1.387686
-0.696754 -2.148954 2.033228
-2.585809 -1.546274 2.550548
-1.907505 -0.969358 2.540064
0.474389 0.198106 2.676095
-0.853408 0.093156 2.653519
-0.096246 1.241371 2.312207
-2.946651 -2.002897 2.156296
-1.615531 -2.929355 1.849307
-0.211574 -2.633562 1.814793
1.433155 -2.139230 1.329689
2.391879 -1.317478 1.405252
1.060476 -0.527180 2.481246
1.903936 0.673913 2.597936
1.198382 1.135525 2.653204
-1.757732 2.253005 0.599271
-1.957062 2.341940 0.071800
-2.204229 1.807320 0.079873
-1.955018 1.415249 1.012838
-2.456850 -0.427683 0.800159
-2.504090 -1.416167 0.752440
-0.376227 -2.838041 -0.031033
-0.264860 -3.262710 0.730484
2.448886 -1.977473 0.523748
3.035211 -1.127730 0.037441
3.223778 -1.274323 0.420654
2.069120 2.423881 1.088876
1.816093 2.860346 0.263286
1.030649 2.946959 1.063284
-2.370836 0.828345 0.062550
-1.669698 -2.126293 -0.010293
-1.389413 -2.415750 -0.024412
1.130141 -2.657358 0.033216
1.048995 -2.609213 -0.048217
3.137648 0.858305 0.374558
-0.071410 2.925681 0.216915
-0.369564 2.843744 0.021421
-1.236899 -0.514133 2.686351
-2.695905 -2.386281 1.885122
1.787363 2.852547 0.685875
-2.135924 0.015903 -0.096282
-1.332536 -2.985099 1.921386
</float_array>
          <technique_common>
            <accessor source="#stone1-POSITION-array" count="185" stride="3">
              <param name="X" type="float"/>
              <param name="Y" type="float"/>
              <param name="Z" type="float"/>
            </accessor>
          </technique_common>
        </source>
        <source id="stone1-Normal0">
          <float_array id="stone1-Normal0-array" count="3258">
0.000000 0.000000 -1.000000
0.000000 0.000000 -1.000000
0.000000 0.000000 -1.000000
0.000000 0.000000 -1.000000
0.000000 0.000000 -1.000000
0.000000 0.000000 -1.000000
0.000000 0.000000 -1.000000
0.000000 0.000000 -1.000000
0.000000 0.000000 -1.000000
-0.000000 0.000000 -1.000000
-0.000000 0.000000 -1.000000
-0.000000 0.000000 -1.000000
0.000000 0.000000 -1.000000
0.000000 0.000000 -1.000000
0.000000 0.000000 -1.000000
0.000000 0.000000 -1.000000
0.000000 0.000000 -1.000000
0.000000 0.000000 -1.000000
0.000000 0.000000 -1.000000
0.000000 0.000000 -1.000000
0.000000 0.000000 -1.000000
0.000000 0.000000 -1.000000
0.000000 0.000000 -1.000000
0.000000 0.000000 -1.000000
-0.014493 0.674178 -0.738427
-0.014493 0.674178 -0.738427
-0.014493 0.674178 -0.738427
0.000000 0.000000 -1.000000
0.000000 0.000000 -1.000000
0.000000 0.000000 -1.000000
0.000000 0.000000 -1.000000
0.000000 0.000000 -1.000000
0.000000 0.000000 -1.000000
0.000000 0.000000 -1.000000
0.000000 0.000000 -1.000000
0.000000 0.000000 -1.000000
0.283183 -0.229523 -0.931196
0.283183 -0.229523 -0.931196
0.283183 -0.229523 -0.931196
0.583098 -0.628700 -0.514522
0.583098 -0.628700 -0.514522
0.583098 -0.628700 -0.514522
-0.366990 0.547473 0.752058
-0.366990 0.547473 0.752058
-0.366990 0.547473 0.752058
-0.210152 0.419596 0.883049
-0.210152 0.419596 0.883049
-0.210152 0.419596 0.883049
-0.585723 0.745062 0.319078
-0.585723 0.745062 0.319078
-0.585723 0.745062 0.319078
0.224155 -0.195343 0.954775
0.224155 -0.195343 0.954775
0.224155 -0.195343 0.954775
-0.278130 -0.877180 0.391406
-0.278130 -0.877180 0.391406
-0.278130 -0.877180 0.391406
0.277896 -0.461701 0.842381
0.277896 -0.461701 0.842381
0.277896 -0.461701 0.842381
0.313896 -0.100748 0.944097
0.313896 -0.100748 0.944097
0.313896 -0.100748 0.944097
-0.853459 0.233091 -0.466130
-0.853459 0.233091 -0.466130
-0.853459 0.233091 -0.466130
-0.853459 0.233091 -0.466130
-0.853459 0.233091 -0.466130
-0.853459 0.233091 -0.466130
0.377035 0.475432 0.794864
0.377035 0.475432 0.794864
0.377035 0.475432 0.794864
0.010956 0.606861 0.794732
0.010956 0.606861 0.794732
0.010956 0.606861 0.794732
-0.411619 0.598574 0.687226
-0.411619 0.598574 0.687226
-0.411619 0.598574 0.687226
0.708767 0.681761 0.181250
0.708767 0.681761 0.181250
0.708767 0.681761 0.181250
0.708767 0.681761 0.181250
0.708767 0.681761 0.181250
0.708767 0.681761 0.181250
-0.467601 0.862557 0.193249
-0.467601 0.862557 0.193249
-0.467601 0.862557 0.193249
-0.467601 0.862557 0.193249
-0.467601 0.862557 0.193249
-0.467601 0.862557 0.193249
-0.529054 0.485299 0.696123
-0.529054 0.485299 0.696123
-0.529054 0.485299 0.696123
-0.951023 0.098448 -0.293024
-0.951023 0.098448 -0.293024
-0.951023 0.098448 -0.293024
-0.598736 -0.799771 0.043385
-0.598736 -0.799771 0.043385
-0.598736 -0.799771 0.043385
-0.598736 -0.799771 0.043385
-0.598736 -0.799771 0.043385
-0.598736 -0.799771 0.043385
-0.804390 0.583171 0.113443
-0.804390 0.583171 0.113443
-0.804390 0.583171 0.113443
-0.804390 0.583171 0.113443
-0.804390 0.583171 0.113443
-0.804390 0.583171 0.113443
-0.803940 -0.381439 -0.456274
-0.803940 -0.381439 -0.456274
-0.803940 -0.381439 -0.456274
-0.817046 0.090267 0.569462
-0.817046 0.090267 0.569462
-0.817046 0.090267 0.569462
-0.817046 0.090267 0.569462
-0.817046 0.090267 0.569462
-0.817046 0.090267 0.569462
0.018478 0.583333 -0.812023
0.018478 0.583333 -0.812023
0.018478 0.583333 -0.812023
0.018478 0.583333 -0.812023
0.018478 0.583333 -0.812023
0.018478 0.583333 -0.812023
0.546120 0.799394 -0.250443
0.546120 0.799394 -0.250443
0.546120 0.799394 -0.250443
0.546120 0.799394 -0.250443
0.546120 0.799394 -0.250443
0.546120 0.799394 -0.250443
-0.022143 -0.949680 -0.312439
-0.022143 -0.949680 -0.312439
-0.022143 -0.949680 -0.312439
-0.022143 -0.949680 -0.312439
-0.022143 -0.949680 -0.312439
-0.022143 -0.949680 -0.312439
0.790579 0.135652 0.597147
0.790579 0.135652 0.597147
0.790579 0.135652 0.597147
0.790579 0.135652 0.597147
0.790579 0.135652 0.597147
0.790579 0.135652 0.597147
0.577477 -0.778654 -0.245393
0.577477 -0.778654 -0.245393
0.577477 -0.778654 -0.245393
0.577477 -0.778654 -0.245393
0.577477 -0.778654 -0.245393
0.577477 -0.778654 -0.245393
0.707801 0.628815 0.321884
0.707801 0.628815 0.321884
0.707801 0.628815 0.321884
0.707801 0.628815 0.321884
0.707801 0.628815 0.321884
0.707801 0.628815 0.321884
-0.179724 0.684299 -0.706706
-0.179724 0.684299 -0.706706
-0.179724 0.684299 -0.706706
-0.179724 0.684299 -0.706706
-0.179724 0.684299 -0.706706
-0.179724 0.684299 -0.706706
0.744662 0.443679 0.498626
0.744662 0.443679 0.498626
0.744662 0.443679 0.498626
0.092128 0.834428 -0.543362
0.092128 0.834428 -0.543362
0.092128 0.834428 -0.543362
0.092128 0.834428 -0.543362
0.092128 0.834428 -0.543362
0.092128 0.834428 -0.543362
0.519597 0.740137 0.426868
0.519597 0.740137 0.426868
0.519597 0.740137 0.426868
0.519597 0.740137 0.426868
0.519597 0.740137 0.426868
0.519597 0.740137 0.426868
0.550077 -0.735672 0.395223
0.550077 -0.735672 0.395223
0.550077 -0.735672 0.395223
0.550077 -0.735672 0.395223
0.550077 -0.735672 0.395223
0.550077 -0.735672 0.395223
0.000000 0.000000 -1.000000
0.000000 0.000000 -1.000000
0.000000 0.000000 -1.000000
-0.642973 -0.626536 -0.440497
-0.642973 -0.626536 -0.440497
-0.642973 -0.626536 -0.440497
-0.369660 0.775689 0.511525
-0.369660 0.775689 0.511525
-0.369660 0.775689 0.511525
-0.369660 0.775689 0.511525
-0.369660 0.775689 0.511525
-0.369660 0.775689 0.511525
-0.250812 0.967734 0.024200
-0.250812 0.967734 0.024200
-0.250812 0.967734 0.024200
-0.250812 0.967734 0.024200
-0.250812 0.967734 0.024200
-0.250812 0.967734 0.024200
-0.000000 0.000000 -1.000000
-0.000000 0.000000 -1.000000
-0.000000 0.000000 -1.000000
0.911270 0.386346 -0.142564
0.911270 0.386346 -0.142564
0.911270 0.386346 -0.142564
0.911270 0.386346 -0.142564
0.911270 0.386346 -0.142564
0.911270 0.386346 -0.142564
-0.509838 -0.318348 0.799200
-0.509838 -0.318348 0.799200
-0.509838 -0.318348 0.799200
-0.509838 -0.318348 0.799200
-0.509838 -0.318348 0.799200
-0.509838 -0.318348 0.799200
0.886821 0.427533 -0.175397
0.886821 0.427533 -0.175397
0.886821 0.427533 -0.175397
0.886821 0.427533 -0.175397
0.886821 0.427533 -0.175397
0.886821 0.427533 -0.175397
-0.000000 -0.000000 -1.000000
-0.000000 -0.000000 -1.000000
-0.000000 -0.000000 -1.000000
0.795947 -0.027513 -0.604741
0.795947 -0.027513 -0.604741
0.795947 -0.027513 -0.604741
0.795947 -0.027513 -0.604741
0.795947 -0.027513 -0.604741
0.795947 -0.027513 -0.604741
0.738534 0.648808 0.183346
0.738534 0.648808 0.183346
0.738534 0.648808 0.183346
0.587251 -0.000554 -0.809405
0.587251 -0.000554 -0.809405
0.587251 -0.000554 -0.809405
0.587251 -0.000554 -0.809405
0.587251 -0.000554 -0.809405
0.587251 -0.000554 -0.809405
0.801358 0.579528 -0.148230
0.801358 0.579528 -0.148230
0.801358 0.579528 -0.148230
0.499304 0.122168 -0.857771
0.499304 0.122168 -0.857771
0.499304 0.122168 -0.857771
-0.835481 0.379957 -0.396994
-0.835481 0.379957 -0.396994
-0.835481 0.379957 -0.396994
-0.835481 0.379957 -0.396994
-0.835481 0.379957 -0.396994
-0.835481 0.379957 -0.396994
-0.129368 0.957443 -0.258007
-0.129368 0.957443 -0.258007
-0.129368 0.957443 -0.258007
0.528248 0.521621 0.669974
0.528248 0.521621 0.669974
0.528248 0.521621 0.669974
0.528248 0.521621 0.669974
0.528248 0.521621 0.669974
0.528248 0.521621 0.669974
0.000000 0.000000 -1.000000
0.000000 0.000000 -1.000000
0.000000 0.000000 -1.000000
0.076465 0.975909 0.204341
0.076465 0.975909 0.204341
0.076465 0.975909 0.204341
0.076465 0.975909 0.204341
0.076465 0.975909 0.204341
0.076465 0.975909 0.204341
0.000000 0.000000 -1.000000
0.000000 0.000000 -1.000000
0.000000 0.000000 -1.000000
0.000000 0.000000 -1.000000
0.000000 0.000000 -1.000000
0.000000 0.000000 -1.000000
0.000000 0.000000 -1.000000
0.000000 0.000000 -1.000000
0.000000 0.000000 -1.000000
0.000000 0.000000 -1.000000
0.000000 0.000000 -1.000000
0.000000 0.000000 -1.000000
0.000000 0.000000 -1.000000
0.000000 0.000000 -1.000000
0.000000 0.000000 -1.000000
0.000000 0.000000 -1.000000
0.000000 0.000000 -1.000000
0.000000 0.000000 -1.000000
-0.000000 0.000000 -1.000000
-0.000000 0.000000 -1.000000
-0.000000 0.000000 -1.000000
-0.000000 0.000000 -1.000000
-0.000000 0.000000 -1.000000
-0.000000 0.000000 -1.000000
0.000000 0.000000 -1.000000
0.000000 0.000000 -1.000000
0.000000 0.000000 -1.000000
-0.000000 0.000000 -1.000000
-0.000000 0.000000 -1.000000
-0.000000 0.000000 -1.000000
0.000000 0.000000 -1.000000
0.000000 0.000000 -1.000000
0.000000 0.000000 -1.000000
0.000000 0.000000 -1.000000
0.000000 0.000000 -1.000000
0.000000 0.000000 -1.000000
0.000000 0.000000 -1.000000
0.000000 0.000000 -1.000000
0.000000 0.000000 -1.000000
-0.000000 -0.000000 -1.000000
-0.000000 -0.000000 -1.000000
-0.000000 -0.000000 -1.000000
-0.000000 -0.000000 -1.000000
-0.000000 -0.000000 -1.000000
-0.000000 -0.000000 -1.000000
0.000000 0.000000 -1.000000
0.000000 0.000000 -1.000000
0.000000 0.000000 -1.000000
0.000000 0.000000 -1.000000
0.000000 0.000000 -1.000000
0.000000 0.000000 -1.000000
-0.000000 0.000000 -1.000000
-0.000000 0.000000 -1.000000
-0.000000 0.000000 -1.000000
-0.000000 0.000000 -1.000000
-0.000000 0.000000 -1.000000
-0.000000 0.000000 -1.000000
0.000000 0.000000 -1.000000
0.000000 0.000000 -1.000000
0.000000 0.000000 -1.000000
0.000000 0.000000 -1.000000
0.000000 0.000000 -1.000000
0.000000 0.000000 -1.000000
0.000000 0.000000 -1.000000
0.000000 0.000000 -1.000000
0.000000 0.000000 -1.000000
0.000000 0.000000 -1.000000
0.000000 0.000000 -1.000000
0.000000 0.000000 -1.000000
0.000000 0.000000 -1.000000
0.000000 0.000000 -1.000000
0.000000 0.000000 -1.000000
0.334066 0.208357 -0.919232
0.334066 0.208357 -0.919232
0.334066 0.208357 -0.919232
0.334066 0.208357 -0.919232
0.334066 0.208357 -0.919232
0.334066 0.208357 -0.919232
0.000000 0.000000 -1.000000
0.000000 0.000000 -1.000000
0.000000 0.000000 -1.000000
0.000000 0.000000 -1.000000
0.000000 0.000000 -1.000000
0.000000 0.000000 -1.000000
0.000000 0.000000 -1.000000
0.000000 0.000000 -1.000000
0.000000 0.000000 -1.000000
0.000000 0.000000 -1.000000
0.000000 0.000000 -1.000000
0.000000 0.000000 -1.000000
0.000000 0.000000 -1.000000
0.000000 0.000000 -1.000000
0.000000 0.000000 -1.000000
0.256113 0.691312 -0.675644
0.256113 0.691312 -0.675644
0.256113 0.691312 -0.675644
0.256113 0.691312 -0.675644
0.256113 0.691312 -0.675644
0.256113 0.691312 -0.675644
0.808368 0.438534 -0.392721
0.808368 0.438534 -0.392721
0.808368 0.438534 -0.392721
0.808368 0.438534 -0.392721
0.808368 0.438534 -0.392721
0.808368 0.438534 -0.392721
-0.859072 0.090050 -0.503871
-0.859072 0.090050 -0.503871
-0.859072 0.090050 -0.503871
-0.859072 0.090050 -0.503871
-0.859072 0.090050 -0.503871
-0.859072 0.090050 -0.503871
0.000000 0.000000 -1.000000
0.000000 0.000000 -1.000000
0.000000 0.000000 -1.000000
0.000000 0.000000 -1.000000
0.000000 0.000000 -1.000000
0.000000 0.000000 -1.000000
0.000000 0.000000 -1.000000
0.000000 0.000000 -1.000000
0.000000 0.000000 -1.000000
0.747673 -0.501518 0.435276
0.747673 -0.501518 0.435276
0.747673 -0.501518 0.435276
-0.230351 0.215064 0.949045
-0.230351 0.215064 0.949045
-0.230351 0.215064 0.949045
-0.230351 0.215064 0.949045
-0.230351 0.215064 0.949045
-0.230351 0.215064 0.949045
0.741926 0.474833 -0.473371
0.741926 0.474833 -0.473371
0.741926 0.474833 -0.473371
0.741926 0.474833 -0.473371
0.741926 0.474833 -0.473371
0.741926 0.474833 -0.473371
-0.114431 -0.991986 0.053558
-0.114431 -0.991986 0.053558
-0.114431 -0.991986 0.053558
-0.114431 -0.991986 0.053558
-0.114431 -0.991986 0.053558
-0.114431 -0.991986 0.053558
-0.378823 0.541722 0.750354
-0.378823 0.541722 0.750354
-0.378823 0.541722 0.750354
-0.812521 0.140563 -0.565730
-0.812521 0.140563 -0.565730
-0.812521 0.140563 -0.565730
-0.812521 0.140563 -0.565730
-0.812521 0.140563 -0.565730
-0.812521 0.140563 -0.565730
0.058930 -0.263977 0.962727
0.058930 -0.263977 0.962727
0.058930 -0.263977 0.962727
0.058930 -0.263977 0.962727
0.058930 -0.263977 0.962727
0.058930 -0.263977 0.962727
-0.288011 0.538830 0.791651
-0.288011 0.538830 0.791651
-0.288011 0.538830 0.791651
-0.288011 0.538830 0.791651
-0.288011 0.538830 0.791651
-0.288011 0.538830 0.791651
0.826400 0.426087 0.368122
0.826400 0.426087 0.368122
0.826400 0.426087 0.368122
0.826400 0.426087 0.368122
0.826400 0.426087 0.368122
0.826400 0.426087 0.368122
-0.695666 0.497163 0.518534
-0.695666 0.497163 0.518534
-0.695666 0.497163 0.518534
-0.695666 0.497163 0.518534
-0.695666 0.497163 0.518534
-0.695666 0.497163 0.518534
-0.515422 0.568509 0.641201
-0.515422 0.568509 0.641201
-0.515422 0.568509 0.641201
0.596406 -0.323910 0.734426
0.596406 -0.323910 0.734426
0.596406 -0.323910 0.734426
0.596406 -0.323910 0.734426
0.596406 -0.323910 0.734426
0.596406 -0.323910 0.734426
0.211499 0.224465 -0.951254
0.211499 0.224465 -0.951254
0.211499 0.224465 -0.951254
0.211499 0.224465 -0.951254
0.211499 0.224465 -0.951254
0.211499 0.224465 -0.951254
-0.311393 0.949725 0.032503
-0.311393 0.949725 0.032503
-0.311393 0.949725 0.032503
-0.311393 0.949725 0.032503
-0.311393 0.949725 0.032503
-0.311393 0.949725 0.032503
0.331282 0.674242 -0.660038
0.331282 0.674242 -0.660038
0.331282 0.674242 -0.660038
0.331282 0.674242 -0.660038
0.331282 0.674242 -0.660038
0.331282 0.674242 -0.660038
0.270695 -0.141928 0.952145
0.270695 -0.141928 0.952145
0.270695 -0.141928 0.952145
0.270695 -0.141928 0.952145
0.270695 -0.141928 0.952145
0.270695 -0.141928 0.952145
0.827981 -0.550163 -0.108482
0.827981 -0.550163 -0.108482
0.827981 -0.550163 -0.108482
0.827981 -0.550163 -0.108482
0.827981 -0.550163 -0.108482
0.827981 -0.550163 -0.108482
0.029293 -0.030355 -0.999110
0.029293 -0.030355 -0.999110
0.029293 -0.030355 -0.999110
0.029293 -0.030355 -0.999110
0.029293 -0.030355 -0.999110
0.029293 -0.030355 -0.999110
0.266193 0.879265 -0.395011
0.266193 0.879265 -0.395011
0.266193 0.879265 -0.395011
0.266193 0.879265 -0.395011
0.266193 0.879265 -0.395011
0.266193 0.879265 -0.395011
0.550329 -0.595697 0.585050
0.550329 -0.595697 0.585050
0.550329 -0.595697 0.585050
0.550329 -0.595697 0.585050
0.550329 -0.595697 0.585050
0.550329 -0.595697 0.585050
0.973908 0.212946 -0.078469
0.973908 0.212946 -0.078469
0.973908 0.212946 -0.078469
-0.410264 -0.910907 0.043954
-0.410264 -0.910907 0.043954
-0.410264 -0.910907 0.043954
-0.410264 -0.910907 0.043954
-0.410264 -0.910907 0.043954
-0.410264 -0.910907 0.043954
-0.970908 -0.237905 -0.027178
-0.970908 -0.237905 -0.027178
-0.970908 -0.237905 -0.027178
-0.970908 -0.237905 -0.027178
-0.970908 -0.237905 -0.027178
-0.970908 -0.237905 -0.027178
-0.961337 0.047881 -0.271179
-0.961337 0.047881 -0.271179
-0.961337 0.047881 -0.271179
-0.961337 0.047881 -0.271179
-0.961337 0.047881 -0.271179
-0.961337 0.047881 -0.271179
0.676651 0.170606 -0.716267
0.676651 0.170606 -0.716267
0.676651 0.170606 -0.716267
0.676651 0.170606 -0.716267
0.676651 0.170606 -0.716267
0.676651 0.170606 -0.716267
-0.587174 0.631978 -0.505796
-0.587174 0.631978 -0.505796
-0.587174 0.631978 -0.505796
-0.587174 0.631978 -0.505796
-0.587174 0.631978 -0.505796
-0.587174 0.631978 -0.505796
0.428171 0.880556 -0.203200
0.428171 0.880556 -0.203200
0.428171 0.880556 -0.203200
0.428171 0.880556 -0.203200
0.428171 0.880556 -0.203200
0.428171 0.880556 -0.203200
-0.931005 0.351328 0.098987
-0.931005 0.351328 0.098987
-0.931005 0.351328 0.098987
-0.931005 0.351328 0.098987
-0.931005 0.351328 0.098987
-0.931005 0.351328 0.098987
-0.928816 -0.024970 -0.369698
-0.928816 -0.024970 -0.369698
-0.928816 -0.024970 -0.369698
-0.928816 -0.024970 -0.369698
-0.928816 -0.024970 -0.369698
-0.928816 -0.024970 -0.369698
0.188019 -0.972129 -0.140048
0.188019 -0.972129 -0.140048
0.188019 -0.972129 -0.140048
0.188019 -0.972129 -0.140048
0.188019 -0.972129 -0.140048
0.188019 -0.972129 -0.140048
0.634490 -0.513224 0.577948
0.634490 -0.513224 0.577948
0.634490 -0.513224 0.577948
0.634490 -0.513224 0.577948
0.634490 -0.513224 0.577948
0.634490 -0.513224 0.577948
-0.153244 -0.535634 -0.830429
-0.153244 -0.535634 -0.830429
-0.153244 -0.535634 -0.830429
-0.153244 -0.535634 -0.830429
-0.153244 -0.535634 -0.830429
-0.153244 -0.535634 -0.830429
0.980954 -0.103456 -0.164399
0.980954 -0.103456 -0.164399
0.980954 -0.103456 -0.164399
0.980954 -0.103456 -0.164399
0.980954 -0.103456 -0.164399
0.980954 -0.103456 -0.164399
-0.235424 -0.945817 0.223620
-0.235424 -0.945817 0.223620
-0.235424 -0.945817 0.223620
-0.235424 -0.945817 0.223620
-0.235424 -0.945817 0.223620
-0.235424 -0.945817 0.223620
0.198401 0.483854 -0.852363
0.198401 0.483854 -0.852363
0.198401 0.483854 -0.852363
0.198401 0.483854 -0.852363
0.198401 0.483854 -0.852363
0.198401 0.483854 -0.852363
0.882896 -0.253797 0.395072
0.882896 -0.253797 0.395072
0.882896 -0.253797 0.395072
0.882896 -0.253797 0.395072
0.882896 -0.253797 0.395072
0.882896 -0.253797 0.395072
0.944856 -0.286419 0.158778
0.944856 -0.286419 0.158778
0.944856 -0.286419 0.158778
0.944856 -0.286419 0.158778
0.944856 -0.286419 0.158778
0.944856 -0.286419 0.158778
0.820021 -0.445705 0.359044
0.820021 -0.445705 0.359044
0.820021 -0.445705 0.359044
0.820021 -0.445705 0.359044
0.820021 -0.445705 0.359044
0.820021 -0.445705 0.359044
0.972072 -0.233886 -0.019308
0.972072 -0.233886 -0.019308
0.972072 -0.233886 -0.019308
0.936166 -0.289809 -0.199005
0.936166 -0.289809 -0.199005
0.936166 -0.289809 -0.199005
0.936166 -0.289809 -0.199005
0.936166 -0.289809 -0.199005
0.936166 -0.289809 -0.199005
0.938070 0.187378 0.291402
0.938070 0.187378 0.291402
0.938070 0.187378 0.291402
0.938070 0.187378 0.291402
0.938070 0.187378 0.291402
0.938070 0.187378 0.291402
0.528556 0.311794 0.789565
0.528556 0.311794 0.789565
0.528556 0.311794 0.789565
0.528556 0.311794 0.789565
0.528556 0.311794 0.789565
0.528556 0.311794 0.789565
0.305575 -0.907770 -0.287362
0.305575 -0.907770 -0.287362
0.305575 -0.907770 -0.287362
0.305575 -0.907770 -0.287362
0.305575 -0.907770 -0.287362
0.305575 -0.907770 -0.287362
0.998221 -0.044327 0.039871
0.998221 -0.044327 0.039871
0.998221 -0.044327 0.039871
-0.245724 0.790865 -0.560492
-0.245724 0.790865 -0.560492
-0.245724 0.790865 -0.560492
-0.110463 0.856764 -0.503740
-0.110463 0.856764 -0.503740
-0.110463 0.856764 -0.503740
-0.110463 0.856764 -0.503740
-0.110463 0.856764 -0.503740
-0.110463 0.856764 -0.503740
0.641495 -0.545556 0.539307
0.641495 -0.545556 0.539307
0.641495 -0.545556 0.539307
0.641495 -0.545556 0.539307
0.641495 -0.545556 0.539307
0.641495 -0.545556 0.539307
-0.742187 -0.501529 -0.444552
-0.742187 -0.501529 -0.444552
-0.742187 -0.501529 -0.444552
-0.742187 -0.501529 -0.444552
-0.742187 -0.501529 -0.444552
-0.742187 -0.501529 -0.444552
-0.900929 0.207232 0.381291
-0.900929 0.207232 0.381291
-0.900929 0.207232 0.381291
0.000000 0.000000 -1.000000
0.000000 0.000000 -1.000000
0.000000 0.000000 -1.000000
0.511576 -0.858981 0.021032
0.511576 -0.858981 0.021032
0.511576 -0.858981 0.021032
0.511576 -0.858981 0.021032
0.511576 -0.858981 0.021032
0.511576 -0.858981 0.021032
0.000000 0.000000 -1.000000
0.000000 0.000000 -1.000000
0.000000 0.000000 -1.000000
0.000000 0.000000 -1.000000
0.000000 0.000000 -1.000000
0.000000 0.000000 -1.000000
0.337828 -0.418607 -0.842995
0.337828 -0.418607 -0.842995
0.337828 -0.418607 -0.842995
0.337828 -0.418607 -0.842995
0.337828 -0.418607 -0.842995
0.337828 -0.418607 -0.842995
-0.187039 0.094798 -0.977768
-0.187039 0.094798 -0.977768
-0.187039 0.094798 -0.977768
-0.187039 0.094798 -0.977768
-0.187039 0.094798 -0.977768
-0.187039 0.094798 -0.977768
0.000000 0.000000 -1.000000
0.000000 0.000000 -1.000000
0.000000 0.000000 -1.000000
0.269896 -0.475406 -0.837344
0.269896 -0.475406 -0.837344
0.269896 -0.475406 -0.837344
0.781016 0.576491 -0.240151
0.781016 0.576491 -0.240151
0.781016 0.576491 -0.240151
0.000000 0.000000 -1.000000
0.000000 0.000000 -1.000000
0.000000 0.000000 -1.000000
0.000000 0.000000 -1.000000
0.000000 0.000000 -1.000000
0.000000 0.000000 -1.000000
0.000000 0.000000 -1.000000
0.000000 0.000000 -1.000000
0.000000 0.000000 -1.000000
0.000000 0.000000 -1.000000
0.000000 0.000000 -1.000000
0.000000 0.000000 -1.000000
0.000000 0.000000 -1.000000
0.000000 0.000000 -1.000000
0.000000 0.000000 -1.000000
0.000000 0.000000 -1.000000
0.000000 0.000000 -1.000000
0.000000 0.000000 -1.000000
0.000000 0.000000 -1.000000
0.000000 0.000000 -1.000000
0.000000 0.000000 -1.000000
0.000000 0.000000 -1.000000
0.000000 0.000000 -1.000000
0.000000 0.000000 -1.000000
0.000000 -0.000000 -1.000000
0.000000 -0.000000 -1.000000
0.000000 -0.000000 -1.000000
0.000000 0.000000 -1.000000
0.000000 0.000000 -1.000000
0.000000 0.000000 -1.000000
0.000000 0.000000 -1.000000
0.000000 0.000000 -1.000000
0.000000 0.000000 -1.000000
-0.000000 -0.000000 -1.000000
-0.000000 -0.000000 -1.000000
-0.000000 -0.000000 -1.000000
0.000000 0.000000 -1.000000
0.000000 0.000000 -1.000000
0.000000 0.000000 -1.000000
0.000000 0.000000 -1.000000
0.000000 0.000000 -1.000000
0.000000 0.000000 -1.000000
0.000000 0.000000 -1.000000
0.000000 0.000000 -1.000000
0.000000 0.000000 -1.000000
0.000000 0.000000 -1.000000
0.000000 0.000000 -1.000000
0.000000 0.000000 -1.000000
0.000000 0.000000 -1.000000
0.000000 0.000000 -1.000000
0.000000 0.000000 -1.000000
0.000000 0.000000 -1.000000
0.000000 0.000000 -1.000000
0.000000 0.000000 -1.000000
0.000000 0.000000 -1.000000
0.000000 0.000000 -1.000000
0.000000 0.000000 -1.000000
0.000000 0.000000 -1.000000
0.000000 0.000000 -1.000000
0.000000 0.000000 -1.000000
-0.000000 -0.000000 -1.000000
-0.000000 -0.000000 -1.000000
-0.000000 -0.000000 -1.000000
-0.000000 -0.000000 -1.000000
-0.000000 -0.000000 -1.000000
-0.000000 -0.000000 -1.000000
-0.000000 -0.000000 -1.000000
-0.000000 -0.000000 -1.000000
-0.000000 -0.000000 -1.000000
-0.000000 -0.000000 -1.000000
-0.000000 -0.000000 -1.000000
-0.000000 -0.000000 -1.000000
-0.000000 -0.000000 -1.000000
-0.000000 -0.000000 -1.000000
-0.000000 -0.000000 -1.000000
-0.000000 0.000000 -1.000000
-0.000000 0.000000 -1.000000
-0.000000 0.000000 -1.000000
0.417352 0.271335 -0.867292
0.417352 0.271335 -0.867292
0.417352 0.271335 -0.867292
0.834306 -0.354599 -0.422129
0.834306 -0.354599 -0.422129
0.834306 -0.354599 -0.422129
-0.288675 0.904732 -0.313251
-0.288675 0.904732 -0.313251
-0.288675 0.904732 -0.313251
0.824197 0.228263 0.518262
0.824197 0.228263 0.518262
0.824197 0.228263 0.518262
0.376069 0.468445 0.799457
0.376069 0.468445 0.799457
0.376069 0.468445 0.799457
0.421920 -0.766485 0.484236
0.421920 -0.766485 0.484236
0.421920 -0.766485 0.484236
0.410740 -0.546133 0.730091
0.410740 -0.546133 0.730091
0.410740 -0.546133 0.730091
-0.463469 -0.839018 -0.285034
-0.463469 -0.839018 -0.285034
-0.463469 -0.839018 -0.285034
-0.177625 -0.938600 0.295769
-0.177625 -0.938600 0.295769
-0.177625 -0.938600 0.295769
-0.935797 0.282582 0.210786
-0.935797 0.282582 0.210786
-0.935797 0.282582 0.210786
-0.012651 0.033035 0.999374
-0.012651 0.033035 0.999374
-0.012651 0.033035 0.999374
-0.814900 0.163982 0.555921
-0.814900 0.163982 0.555921
-0.814900 0.163982 0.555921
-0.462239 -0.341351 0.818422
-0.462239 -0.341351 0.818422
-0.462239 -0.341351 0.818422
0.276674 -0.945573 0.171297
0.276674 -0.945573 0.171297
0.276674 -0.945573 0.171297
0.348596 -0.335278 0.875254
0.348596 -0.335278 0.875254
0.348596 -0.335278 0.875254
0.410792 -0.546378 0.729878
0.410792 -0.546378 0.729878
0.410792 -0.546378 0.729878
0.191992 -0.613259 0.766194
0.191992 -0.613259 0.766194
0.191992 -0.613259 0.766194
0.923733 0.112573 0.366121
0.923733 0.112573 0.366121
0.923733 0.112573 0.366121
0.251575 -0.635028 0.730376
0.251575 -0.635028 0.730376
0.251575 -0.635028 0.730376
0.353303 -0.333039 0.874221
0.353303 -0.333039 0.874221
0.353303 -0.333039 0.874221
-0.467078 0.665466 0.582231
-0.467078 0.665466 0.582231
-0.467078 0.665466 0.582231
-0.445694 0.839788 0.310021
-0.445694 0.839788 0.310021
-0.445694 0.839788 0.310021
-0.928795 0.352017 -0.115862
-0.928795 0.352017 -0.115862
-0.928795 0.352017 -0.115862
-0.882222 0.064676 -0.466370
-0.882222 0.064676 -0.466370
-0.882222 0.064676 -0.466370
-0.411915 -0.852619 -0.321506
-0.411915 -0.852619 -0.321506
-0.411915 -0.852619 -0.321506
-0.036187 -0.875045 -0.482688
-0.036187 -0.875045 -0.482688
-0.036187 -0.875045 -0.482688
-0.331987 -0.883907 -0.329384
-0.331987 -0.883907 -0.329384
-0.331987 -0.883907 -0.329384
-0.106947 -0.855723 -0.506262
-0.106947 -0.855723 -0.506262
-0.106947 -0.855723 -0.506262
0.554230 -0.762307 0.334241
0.554230 -0.762307 0.334241
0.554230 -0.762307 0.334241
0.505723 -0.861366 0.047882
0.505723 -0.861366 0.047882
0.505723 -0.861366 0.047882
0.799005 -0.313545 -0.513108
0.799005 -0.313545 -0.513108
0.799005 -0.313545 -0.513108
0.487477 0.241511 0.839070
0.487477 0.241511 0.839070
0.487477 0.241511 0.839070
0.231511 0.759506 0.607908
0.231511 0.759506 0.607908
0.231511 0.759506 0.607908
-0.986815 -0.098409 0.128501
-0.986815 -0.098409 0.128501
-0.986815 -0.098409 0.128501
-0.681083 -0.054177 -0.730199
-0.681083 -0.054177 -0.730199
-0.681083 -0.054177 -0.730199
-0.671648 -0.482575 -0.562148
-0.671648 -0.482575 -0.562148
-0.671648 -0.482575 -0.562148
-0.705989 -0.672834 -0.221072
-0.705989 -0.672834 -0.221072
-0.705989 -0.672834 -0.221072
-0.192308 -0.447704 -0.873257
-0.192308 -0.447704 -0.873257
-0.192308 -0.447704 -0.873257
0.191693 -0.796875 -0.572926
0.191693 -0.796875 -0.572926
0.191693 -0.796875 -0.572926
0.187084 -0.752580 -0.631366
0.187084 -0.752580 -0.631366
0.187084 -0.752580 -0.631366
0.960369 0.256216 0.109746
0.960369 0.256216 0.109746
0.960369 0.256216 0.109746
0.899876 0.411827 -0.143605
0.899876 0.411827 -0.143605
0.899876 0.411827 -0.143605
-0.140484 0.989856 0.021221
-0.140484 0.989856 0.021221
-0.140484 0.989856 0.021221
-0.231567 0.971322 -0.053941
-0.231567 0.971322 -0.053941
-0.231567 0.971322 -0.053941
-0.299139 0.904857 -0.302903
-0.299139 0.904857 -0.302903
-0.299139 0.904857 -0.302903
0.276248 -0.340260 0.898838
0.276248 -0.340260 0.898838
0.276248 -0.340260 0.898838
0.276248 -0.340260 0.898838
0.276248 -0.340260 0.898838
0.276248 -0.340260 0.898838
0.387751 -0.529241 0.754688
0.387751 -0.529241 0.754688
0.387751 -0.529241 0.754688
0.387751 -0.529241 0.754688
0.387751 -0.529241 0.754688
0.387751 -0.529241 0.754688
-0.097612 -0.854241 0.510632
-0.097612 -0.854241 0.510632
-0.097612 -0.854241 0.510632
-0.097612 -0.854241 0.510632
-0.097612 -0.854241 0.510632
-0.097612 -0.854241 0.510632
0.052814 -0.112609 0.992235
0.052814 -0.112609 0.992235
0.052814 -0.112609 0.992235
0.052814 -0.112609 0.992235
0.052814 -0.112609 0.992235
0.052814 -0.112609 0.992235
-0.947290 0.275969 0.162738
-0.947290 0.275969 0.162738
-0.947290 0.275969 0.162738
-0.144654 0.037929 0.988755
-0.144654 0.037929 0.988755
-0.144654 0.037929 0.988755
-0.144654 0.037929 0.988755
-0.144654 0.037929 0.988755
-0.144654 0.037929 0.988755
-0.040594 0.309199 0.950131
-0.040594 0.309199 0.950131
-0.040594 0.309199 0.950131
-0.856811 -0.293558 -0.423909
-0.856811 -0.293558 -0.423909
-0.856811 -0.293558 -0.423909
-0.856811 -0.293558 -0.423909
-0.856811 -0.293558 -0.423909
-0.856811 -0.293558 -0.423909
0.089470 -0.087165 0.992168
0.089470 -0.087165 0.992168
0.089470 -0.087165 0.992168
-0.705675 -0.573928 -0.415487
-0.705675 -0.573928 -0.415487
-0.705675 -0.573928 -0.415487
-0.705675 -0.573928 -0.415487
-0.705675 -0.573928 -0.415487
-0.705675 -0.573928 -0.415487
-0.625823 -0.616797 0.477396
-0.625823 -0.616797 0.477396
-0.625823 -0.616797 0.477396
-0.625823 -0.616797 0.477396
-0.625823 -0.616797 0.477396
-0.625823 -0.616797 0.477396
-0.236387 -0.950309 0.202566
-0.236387 -0.950309 0.202566
-0.236387 -0.950309 0.202566
-0.236387 -0.950309 0.202566
-0.236387 -0.950309 0.202566
-0.236387 -0.950309 0.202566
0.099787 -0.449281 0.887800
0.099787 -0.449281 0.887800
0.099787 -0.449281 0.887800
0.205395 -0.103468 0.973194
0.205395 -0.103468 0.973194
0.205395 -0.103468 0.973194
0.205395 -0.103468 0.973194
0.205395 -0.103468 0.973194
0.205395 -0.103468 0.973194
0.090691 -0.109888 0.989798
0.090691 -0.109888 0.989798
0.090691 -0.109888 0.989798
0.090691 -0.109888 0.989798
0.090691 -0.109888 0.989798
0.090691 -0.109888 0.989798
0.286051 -0.576040 0.765737
0.286051 -0.576040 0.765737
0.286051 -0.576040 0.765737
0.263351 -0.630868 0.729830
0.263351 -0.630868 0.729830
0.263351 -0.630868 0.729830
-0.194278 0.443141 0.875147
-0.194278 0.443141 0.875147
-0.194278 0.443141 0.875147
-0.194278 0.443141 0.875147
-0.194278 0.443141 0.875147
-0.194278 0.443141 0.875147
-0.090562 0.535390 0.839735
-0.090562 0.535390 0.839735
-0.090562 0.535390 0.839735
-0.836695 0.389314 0.385196
-0.836695 0.389314 0.385196
-0.836695 0.389314 0.385196
-0.836695 0.389314 0.385196
-0.836695 0.389314 0.385196
-0.836695 0.389314 0.385196
-0.294599 0.796047 0.528698
-0.294599 0.796047 0.528698
-0.294599 0.796047 0.528698
-0.406393 -0.863715 -0.298063
-0.406393 -0.863715 -0.298063
-0.406393 -0.863715 -0.298063
-0.406393 -0.863715 -0.298063
-0.406393 -0.863715 -0.298063
-0.406393 -0.863715 -0.298063
-0.859267 -0.356333 -0.366998
-0.859267 -0.356333 -0.366998
-0.859267 -0.356333 -0.366998
0.208845 -0.977572 0.027156
0.208845 -0.977572 0.027156
0.208845 -0.977572 0.027156
0.208845 -0.977572 0.027156
0.208845 -0.977572 0.027156
0.208845 -0.977572 0.027156
-0.231045 -0.863726 -0.447879
-0.231045 -0.863726 -0.447879
-0.231045 -0.863726 -0.447879
0.588024 -0.667319 -0.457070
0.588024 -0.667319 -0.457070
0.588024 -0.667319 -0.457070
0.588024 -0.667319 -0.457070
0.588024 -0.667319 -0.457070
0.588024 -0.667319 -0.457070
0.461628 -0.887025 0.009340
0.461628 -0.887025 0.009340
0.461628 -0.887025 0.009340
0.667027 -0.696179 0.265347
0.667027 -0.696179 0.265347
0.667027 -0.696179 0.265347
0.584419 0.543576 0.602478
0.584419 0.543576 0.602478
0.584419 0.543576 0.602478
0.584419 0.543576 0.602478
0.584419 0.543576 0.602478
0.584419 0.543576 0.602478
0.888386 0.441695 0.125202
0.888386 0.441695 0.125202
0.888386 0.441695 0.125202
0.836959 0.546311 0.032307
0.836959 0.546311 0.032307
0.836959 0.546311 0.032307
0.836959 0.546311 0.032307
0.836959 0.546311 0.032307
0.836959 0.546311 0.032307
0.227341 0.966572 0.118558
0.227341 0.966572 0.118558
0.227341 0.966572 0.118558
0.227341 0.966572 0.118558
0.227341 0.966572 0.118558
0.227341 0.966572 0.118558
0.371345 0.763113 0.528924
0.371345 0.763113 0.528924
0.371345 0.763113 0.528924
0.371345 0.763113 0.528924
0.371345 0.763113 0.528924
0.371345 0.763113 0.528924
-0.088256 0.854776 0.511439
-0.088256 0.854776 0.511439
-0.088256 0.854776 0.511439
-0.088256 0.854776 0.511439
-0.088256 0.854776 0.511439
-0.088256 0.854776 0.511439
0.013983 0.986582 0.162666
0.013983 0.986582 0.162666
0.013983 0.986582 0.162666
-0.936909 0.203024 0.284575
-0.936909 0.203024 0.284575
-0.936909 0.203024 0.284575
-0.936909 0.203024 0.284575
-0.936909 0.203024 0.284575
-0.936909 0.203024 0.284575
-0.253300 0.925663 0.281048
-0.253300 0.925663 0.281048
-0.253300 0.925663 0.281048
-0.253300 0.925663 0.281048
-0.253300 0.925663 0.281048
-0.253300 0.925663 0.281048
</float_array>
          <technique_common>
            <accessor source="#stone1-Normal0-array" count="1086" stride="3">
              <param name="X" type="float"/>
              <param name="Y" type="float"/>
              <param name="Z" type="float"/>
            </accessor>
          </technique_common>
        </source>
        <source id="stone1-UV0">
          <float_array id="stone1-UV0-array" count="496">
0.952585 0.600523
0.238959 0.927551
0.231418 0.948002
0.272827 0.540587
0.236157 0.847395
0.229406 0.635179
0.228841 0.918400
0.256246 0.553347
0.932515 0.872564
0.233378 0.533274
0.246345 0.910949
0.953767 0.519050
0.968108 0.519050
0.948168 0.609102
0.273707 0.603353
0.941914 0.744551
0.240110 0.945159
0.272925 0.611459
0.229820 0.540587
0.957009 0.584056
0.947925 0.519050
0.957308 0.773371
0.249771 0.695952
0.942690 0.655938
0.964510 0.556512
0.964117 0.519050
0.247976 0.529148
0.959786 0.519050
0.971623 0.550494
0.261516 0.576034
0.228356 0.639857
0.969751 0.519050
0.244994 0.812948
0.958267 0.965489
0.246493 0.891812
0.272080 0.602745
0.959098 0.621874
0.953012 0.968384
0.938098 0.519050
0.225828 0.949707
0.226846 0.824601
0.275117 0.707659
0.250165 0.701907
0.232007 0.692794
0.962496 0.669274
0.954339 0.519050
0.224921 0.841498
0.237032 0.950565
0.243030 0.773350
0.255645 0.919393
0.243455 0.775890
0.246799 0.566477
0.940126 0.665215
0.264725 0.859765
0.251048 0.970123
0.242953 0.729423
0.257096 0.945649
0.266925 0.924891
0.274259 0.696035
0.261869 0.646482
0.266745 0.783826
0.244956 0.653736
0.234312 0.646806
0.255632 0.707854
0.231010 0.546623
0.233796 0.639025
0.958343 0.519050
0.955083 0.519050
0.266692 0.625996
0.266382 0.906526
0.942240 0.519050
0.237486 0.544532
0.255720 0.573343
0.226891 0.665066
0.234117 0.540587
0.236418 0.843087
0.233824 0.835674
0.974411 0.547193
0.273885 0.755653
0.255784 0.527107
0.233323 0.623354
0.971554 0.519050
0.950251 0.527486
0.229536 0.519290
0.231410 0.926707
0.273771 0.692576
0.265754 0.624485
0.255022 0.779937
0.227898 0.670468
0.272256 0.832394
0.937120 0.918440
0.950553 0.519050
0.934100 0.519050
0.255878 0.938437
0.235688 0.530977
0.947713 0.664320
0.935822 0.519050
0.936343 0.519050
0.954140 0.826567
0.266545 0.746679
0.229541 0.735870
0.965466 0.519050
0.955104 0.519050
0.948839 0.519050
0.243923 0.763419
0.229536 0.540587
0.966699 0.905818
0.974160 0.552364
0.964715 0.519050
0.939670 0.875896
0.931201 0.519050
0.273664 0.527978
0.234850 0.540587
0.964074 0.895228
0.246550 0.570221
0.229929 0.540587
0.952760 0.519050
0.236357 0.540587
0.939125 0.519050
0.262518 0.937021
0.961897 0.519050
0.231730 0.815968
0.943589 0.519050
0.970068 0.519050
0.958418 0.519050
0.942091 0.519050
0.234628 0.531189
0.931109 0.519050
0.258467 0.741431
0.971064 0.764686
0.947308 0.519050
0.249419 0.623979
0.959054 0.824768
0.929045 0.810109
0.237821 0.557538
0.228651 0.540587
0.938830 0.519050
0.227600 0.545119
0.954665 0.910290
0.966873 0.774368
0.260294 0.845199
0.271382 0.551594
0.932835 0.850630
0.249011 0.760454
0.272997 0.595856
0.928981 0.639518
0.944211 0.519050
0.227625 0.688567
0.259783 0.832248
0.934490 0.848605
0.945032 0.519050
0.968196 0.769947
0.249509 0.615951
0.241396 0.865583
0.247924 0.540587
0.236945 0.971791
0.227459 0.666517
0.231758 0.540587
0.932923 0.519050
0.965935 0.684503
0.257015 0.966401
0.226502 0.657306
0.244196 0.540587
0.255642 0.571234
0.950229 0.519050
0.226376 0.931373
0.244093 0.538430
0.935610 0.549225
0.268394 0.705552
0.949106 0.938778
0.959299 0.735474
0.973815 0.519050
0.262105 0.577761
0.229302 0.905215
0.971416 0.609020
0.231027 0.699651
0.223592 0.769122
0.932633 0.545802
0.262837 0.562475
0.275806 0.593119
0.257738 0.711414
0.946700 0.519050
0.972539 0.519050
0.952437 0.519050
0.244353 0.540587
0.950509 0.519050
0.949156 0.723081
0.241094 0.846726
0.245395 0.830062
0.251791 0.657721
0.228973 0.547936
0.962305 0.519050
0.271515 0.817212
0.264191 0.712016
0.266019 0.773069
0.955862 0.519050
0.255046 0.794703
0.248786 0.773087
0.272912 0.746828
0.973284 0.758050
0.228474 0.698273
0.929804 0.720565
0.237247 0.583032
0.272779 0.687438
0.262284 0.564678
0.942503 0.571324
0.228747 0.541225
0.272152 0.541036
0.262829 0.957413
0.932301 0.554259
0.961194 0.908250
0.946032 0.928028
0.255579 0.540587
0.939026 0.691236
0.950200 0.660234
0.961654 0.519050
0.945089 0.943844
0.227564 0.943859
0.244038 0.529900
0.971376 0.761274
0.940633 0.519050
0.971330 0.519050
0.228004 0.859572
0.967363 0.519050
0.967654 0.519050
0.240105 0.966452
0.258724 0.760607
0.233994 0.828099
0.266851 0.763463
0.232653 0.632398
0.267804 0.694998
0.952953 0.939452
0.256452 0.540349
0.943485 0.519050
0.936066 0.519050
0.948983 0.519050
0.243119 0.781462
0.943249 0.702510
0.222854 0.885595
0.959891 0.519050
0.276616 0.579633
0.228217 0.927332
0.227867 0.823485
0.238742 0.908526
0.258950 0.751176
0.932993 0.650645
0.956965 0.519050
0.267320 0.620117
</float_array>
          <technique_common>
            <accessor source="#stone1-UV0-array" count="248" stride="2">
              <param name="S" type="float"/>
              <param name="T" type="float"/>
            </accessor>
          </technique_common>
        </source>
        <vertices id="stone1-VERTEX">
          <input semantic="POSITION" source="#stone1-POSITION"/>
        </vertices>
        <triangles count="362" material="AllColors_Material">
          <input semantic="VERTEX" offset="0" source="#stone1-VERTEX"/>
          <input semantic="NORMAL" offset="1" source="#stone1-Normal0"/>
          <input semantic="TEXCOORD" offset="2" set="0" source="#stone1-UV0"/>
          <p> 28 0 183 91 1 150 30 2 181 7 3 103 91 4 150 28 5 183 28 6 183 30 7 181 31 8 91 90 9 146 30 10 181 11 11 136 12 12 235 87 13 45 31 14 91 7 15 103 28 16 183 42 17 195 7 18 103 42 19 195 96 20 67 85 21 171 33 22 182 9 23 223 14 24 107 33 25 182 85 26 171 80 27 158 17 28 127 81 29 234 89 30 233 19 31 70 1 32 164 32 33 25 21 34 224 2 35 81 34 36 130 72 37 122 47 38 118 47 39 118 72 40 122 18 41 167 55 42 106 39 43 219 24 44 151 27 45 231 54 46 33 56 47 210 56 48 210 41 49 98 27 50 231 25 51 149 52 52 109 58 53 8 59 54 142 58 55 8 26 56 90 58 57 8 60 58 133 25 59 149 25 60 149 61 61 15 52 62 109 107 63 111 72 64 141 34 65 3 107 66 111 167 67 207 72 68 141 65 69 113 64 70 132 22 71 139 22 72 139 50 73 129 65 74 113 24 75 151 39 76 219 66 77 174 131 78 40 130 79 217 27 80 241 131 81 40 27 82 241 41 83 242 143 84 226 25 85 32 152 86 188 25 87 32 143 88 226 61 89 128 66 90 174 68 91 159 24 92 151 49 93 20 69 94 214 37 95 36 139 96 196 22 97 148 117 98 140 22 99 148 139 100 196 50 101 87 149 102 10 54 103 16 148 104 225 54 105 16 149 106 10 55 107 34 19 108 70 48 109 213 70 110 23 127 111 236 152 112 188 25 113 32 127 114 236 25 115 32 60 116 48 164 117 218 17 118 154 137 119 26 17 120 154 164 121 218 71 122 162 131 123 40 69 124 88 162 125 73 69 126 88 131 127 40 41 128 242 180 129 155 63 130 49 155 131 93 63 132 49 180 133 155 100 134 47 158 135 229 161 136 175 68 137 43 158 138 229 68 139 43 66 140 80 146 141 2 100 142 47 180 143 155 100 144 47 146 145 2 53 146 84 151 147 76 26 148 173 128 149 6 26 150 173 151 151 76 59 152 227 176 153 79 137 154 26 17 155 154 176 156 79 17 157 154 80 158 212 35 159 44 38 160 21 82 161 19 85 162 184 178 163 114 84 164 51 178 165 114 85 166 184 179 167 166 156 168 208 65 169 56 157 170 160 65 171 56 156 172 208 64 173 119 105 174 197 124 175 50 39 176 104 39 177 104 5 178 143 105 179 197 49 180 20 76 181 116 1 182 164 20 183 209 36 184 245 77 185 97 142 186 1 155 187 93 63 188 49 63 189 49 6 190 243 142 191 1 177 192 144 82 193 203 119 194 85 82 195 203 177 196 144 83 197 35 0 198 96 78 199 92 13 200 38 128 201 6 57 202 165 145 203 39 57 204 165 128 205 6 26 206 173 173 207 9 112 208 71 20 209 134 20 210 134 77 211 74 173 212 9 111 213 42 46 214 131 3 215 22 111 216 42 136 217 152 46 218 131 47 219 118 44 220 220 34 221 130 138 222 147 163 223 161 70 224 156 70 225 156 48 226 200 138 227 147 35 228 44 82 229 19 16 230 24 163 231 161 162 232 73 69 233 88 163 234 161 69 235 88 70 236 156 82 237 19 83 238 246 16 239 24 43 240 108 83 241 246 95 242 102 159 243 64 21 244 115 160 245 190 21 246 115 159 247 64 67 248 157 85 249 171 84 250 77 14 251 107 184 252 4 127 253 236 60 254 48 60 255 48 58 256 75 184 257 4 93 258 31 85 259 171 9 260 223 119 261 85 38 262 69 118 263 57 38 264 69 119 265 85 82 266 203 10 267 215 87 268 45 86 269 66 88 270 11 87 271 45 12 272 235 86 273 66 87 274 45 88 275 11 12 276 235 1 277 164 88 278 11 12 279 235 89 280 233 1 281 164 90 282 146 89 283 233 12 284 235 11 285 136 0 286 96 90 287 146 90 288 146 0 289 96 13 290 38 17 291 127 11 292 136 81 293 234 0 294 96 11 295 136 17 296 127 92 297 125 91 298 150 7 299 103 92 300 125 44 301 220 81 302 234 9 303 223 102 304 101 93 305 31 92 306 125 29 307 185 34 308 130 96 309 67 95 310 102 7 311 103 97 312 27 43 313 108 95 314 102 8 315 191 96 316 67 42 317 195 99 318 123 8 319 191 98 320 12 98 321 12 33 322 182 99 323 123 90 324 146 31 325 91 30 326 181 31 327 91 90 328 146 12 329 235 8 330 191 9 331 223 98 332 12 33 333 182 98 334 12 9 335 223 11 336 136 30 337 181 91 338 150 83 339 246 34 340 130 29 341 185 83 342 246 29 343 185 95 344 102 28 345 183 31 346 91 87 347 45 13 348 38 19 349 70 89 350 233 19 351 70 13 352 38 77 353 97 75 354 239 21 355 224 32 356 25 75 357 239 32 358 25 86 359 66 14 360 107 74 361 28 33 362 182 33 363 182 74 364 28 99 365 123 16 366 24 99 367 123 74 368 28 99 369 123 16 370 24 43 371 108 177 372 144 107 373 111 34 374 3 34 375 3 83 376 35 177 377 144 0 378 96 17 379 127 71 380 110 1 381 164 19 382 70 49 383 20 2 384 81 21 385 224 67 386 221 106 387 240 135 388 41 15 389 179 58 390 75 59 391 227 151 392 76 58 393 75 151 394 76 184 395 4 175 396 232 176 397 79 80 398 212 80 399 212 79 400 7 175 401 232 158 402 229 39 403 104 124 404 50 39 405 104 158 406 229 66 407 80 5 408 199 39 409 219 55 410 106 160 411 190 75 412 135 172 413 137 75 414 135 160 415 190 21 416 115 6 417 211 100 418 37 53 419 169 100 420 37 6 421 211 63 422 138 54 423 33 55 424 106 56 425 210 55 426 106 24 427 151 56 428 210 139 429 196 65 430 56 50 431 87 139 432 196 157 433 160 65 434 56 4 435 170 41 436 98 56 437 210 56 438 210 68 439 159 4 440 170 24 441 151 68 442 159 56 443 210 49 444 18 116 445 30 115 446 206 116 447 30 49 448 18 37 449 5 174 450 94 173 451 9 77 452 74 77 453 74 78 454 117 174 455 94 130 456 217 148 457 225 54 458 16 130 459 217 54 460 16 27 461 241 113 462 65 48 463 200 36 464 62 48 465 200 113 466 65 138 467 147 58 468 8 52 469 109 26 470 90 52 471 109 57 472 216 26 473 90 154 474 228 40 475 192 126 476 89 40 477 192 154 478 228 62 479 99 134 480 126 179 481 166 85 482 184 85 483 184 2 484 112 134 485 126 133 486 72 170 487 172 74 488 29 133 489 72 74 490 29 14 491 163 23 492 52 51 493 95 62 494 237 62 495 237 51 496 95 40 497 186 183 498 83 172 499 137 76 500 105 140 501 78 126 502 89 40 503 192 40 504 192 51 505 198 140 506 78 117 507 140 64 508 119 156 509 208 64 510 119 117 511 140 22 512 148 105 513 197 55 514 34 149 515 10 55 516 34 105 517 197 5 518 143 170 519 172 108 520 68 16 521 86 170 522 172 16 523 86 74 524 29 113 525 65 20 526 134 112 527 71 20 528 134 113 529 65 36 530 62 146 531 2 142 532 1 6 533 243 6 534 243 53 535 84 146 536 2 69 537 214 4 538 170 37 539 36 4 540 170 69 541 214 41 542 98 70 543 23 49 544 20 19 545 70 49 546 20 70 547 23 69 548 214 52 549 187 143 550 226 144 551 153 143 552 226 52 553 187 61 554 128 175 555 232 46 556 131 136 557 152 46 558 131 175 559 232 79 560 7 3 561 22 110 562 178 111 563 42 110 564 178 3 565 22 18 566 204 109 567 60 38 568 69 35 569 194 109 570 60 118 571 57 38 572 69 145 573 39 52 574 187 144 575 153 52 576 187 145 577 39 57 578 165 164 579 218 174 580 94 78 581 117 164 582 218 78 583 117 71 584 162 15 585 82 45 586 0 101 587 13 101 588 13 73 589 205 15 590 82 106 591 240 73 592 17 168 593 14 73 594 17 106 595 240 15 596 179 73 597 205 51 598 95 23 599 52 51 600 95 73 601 205 101 602 13 51 603 95 101 604 13 45 605 0 51 606 198 135 607 41 140 608 78 135 609 41 51 610 198 45 611 58 120 612 168 62 613 99 154 614 228 62 615 99 120 616 168 23 617 230 23 618 230 168 619 14 73 620 17 168 621 14 23 622 230 120 623 168 108 624 68 109 625 60 35 626 194 35 627 194 16 628 86 108 629 68 115 630 206 183 631 83 76 632 105 159 633 64 134 634 126 67 635 157 133 636 72 84 637 51 178 638 114 84 639 51 133 640 72 14 641 163 161 642 175 116 643 30 37 644 5 37 645 5 68 646 43 161 647 175 77 648 97 36 649 245 48 650 213 48 651 213 19 652 70 77 653 97 4 654 170 68 655 159 37 656 36 86 657 66 76 658 116 75 659 239 18 660 167 3 661 201 79 662 177 79 663 177 3 664 201 46 665 145 13 666 38 78 667 92 77 668 97 71 669 110 78 670 92 0 671 96 18 672 167 79 673 177 81 674 234 80 675 158 81 676 234 79 677 177 167 678 207 18 679 204 72 680 141 18 681 204 167 682 207 110 683 178 44 684 220 47 685 118 81 686 234 18 687 167 81 688 234 47 689 118 16 690 24 83 691 246 43 692 108 10 693 215 32 694 25 93 695 31 32 696 25 10 697 215 86 698 66 2 699 81 85 700 171 93 701 31 86 702 66 88 703 11 76 704 116 76 705 116 88 706 11 1 707 164 2 708 81 93 709 31 32 710 25 11 711 136 92 712 125 81 713 234 92 714 125 11 715 136 91 716 150 13 717 38 89 718 233 90 719 146 8 720 191 102 721 101 9 722 223 102 723 101 8 724 191 94 725 120 34 726 130 44 727 220 92 728 125 10 729 215 102 730 101 94 731 120 102 732 101 10 733 215 93 734 31 103 735 124 94 736 120 8 737 191 103 738 124 8 739 191 42 740 195 87 741 45 103 742 124 28 743 183 103 744 124 42 745 195 28 746 183 103 747 124 10 748 215 94 749 120 10 750 215 103 751 124 87 752 45 7 753 103 95 754 102 29 755 185 29 756 185 92 757 125 7 758 103 95 759 102 96 760 67 97 761 27 96 762 67 8 763 191 97 764 27 99 765 123 43 766 108 8 767 191 97 768 27 8 769 191 43 770 108 106 771 240 107 772 111 177 773 144 167 774 207 107 775 111 106 776 240 134 777 126 159 778 64 104 779 202 119 780 85 118 781 57 126 782 89 156 783 208 118 784 57 117 785 140 111 786 42 121 787 180 127 788 236 153 789 244 121 790 180 120 791 168 114 792 100 123 793 121 129 794 222 151 795 76 123 796 121 122 797 55 130 798 217 131 799 40 150 800 238 145 801 39 146 802 2 130 803 217 150 804 238 145 805 39 130 806 217 145 807 39 150 808 238 128 809 6 127 810 236 122 811 55 111 812 42 144 813 153 143 814 226 142 815 1 120 816 168 154 817 228 153 818 244 143 819 226 154 820 228 125 821 53 119 822 85 126 823 89 140 824 78 155 825 93 143 826 226 125 827 53 156 828 208 155 829 93 125 830 53 104 831 202 124 832 50 105 833 197 159 834 64 158 835 229 104 836 202 131 837 40 162 838 73 141 839 176 141 840 176 162 841 73 163 842 161 114 843 100 113 844 65 123 845 121 165 846 61 164 847 218 137 848 26 112 849 71 165 850 61 122 851 55 136 852 152 165 853 61 137 854 26 120 855 168 121 856 180 166 857 247 110 858 178 121 859 180 111 860 42 168 861 14 167 862 207 106 863 240 140 864 78 135 865 41 119 866 85 117 867 140 171 868 63 139 869 196 116 870 30 172 871 137 115 872 206 172 873 137 183 874 83 115 875 206 138 876 147 113 877 65 114 878 100 173 879 9 174 880 94 112 881 71 112 882 71 174 883 94 164 884 218 137 885 26 175 886 232 136 887 152 176 888 79 175 889 232 137 890 26 119 891 85 135 892 41 106 893 240 177 894 144 119 895 85 106 896 240 178 897 114 132 898 189 133 899 72 178 900 114 179 901 166 104 902 202 104 903 202 179 904 166 134 905 126 156 906 208 125 907 53 118 908 57 118 909 57 125 910 53 126 911 89 152 912 188 121 913 180 153 914 244 127 915 236 121 916 180 152 917 188 151 918 76 128 919 6 123 920 121 123 921 121 128 922 6 129 923 222 180 924 155 155 925 93 147 926 54 180 927 155 147 928 54 148 929 225 141 930 176 150 931 238 131 932 40 148 933 225 130 934 217 180 935 155 130 936 217 146 937 2 180 938 155 147 939 54 149 940 10 148 941 225 181 942 46 141 943 176 138 944 147 141 945 176 181 946 46 150 947 238 142 948 1 146 949 2 145 950 39 114 951 100 129 952 222 181 953 46 181 954 46 138 955 147 114 956 100 150 957 238 181 958 46 128 959 6 181 960 46 129 961 222 128 962 6 122 963 55 184 964 4 151 965 76 127 966 236 184 967 4 122 968 55 142 969 1 145 970 39 144 971 153 153 972 244 154 973 228 143 974 226 143 975 226 152 976 188 153 977 244 155 978 93 156 979 208 147 980 54 156 981 208 157 982 160 147 983 54 125 984 53 154 985 228 126 986 89 142 987 1 143 988 226 155 989 93 147 990 54 157 991 160 149 992 10 149 993 10 157 994 160 139 995 196 105 996 197 149 997 10 139 998 196 161 999 175 158 1000 229 160 1001 190 158 1002 229 159 1003 64 160 1004 190 104 1005 202 158 1006 229 124 1007 50 122 1008 55 113 1009 65 112 1010 71 122 1011 55 123 1012 121 113 1013 65 141 1014 176 163 1015 161 138 1016 147 111 1017 42 122 1018 55 165 1019 61 111 1020 42 165 1021 61 136 1022 152 112 1023 71 164 1024 218 165 1025 61 168 1026 14 166 1027 247 167 1028 207 166 1029 247 110 1030 178 167 1031 207 110 1032 178 166 1033 247 121 1034 180 120 1035 168 166 1036 247 168 1037 14 117 1038 140 118 1039 57 109 1040 60 117 1041 140 109 1042 60 169 1043 193 108 1044 68 169 1045 193 109 1046 60 108 1047 68 182 1048 59 169 1049 193 182 1050 59 108 1051 68 170 1052 172 182 1053 59 133 1054 72 171 1055 63 133 1056 72 182 1057 59 170 1058 172 169 1059 193 182 1060 59 171 1061 63 171 1062 63 117 1063 140 169 1064 193 105 1065 197 171 1066 63 132 1067 189 171 1068 63 105 1069 197 139 1070 196 133 1071 72 132 1072 189 171 1073 63 116 1074 30 161 1075 175 172 1076 137 161 1077 175 160 1078 190 172 1079 137 104 1080 202 105 1081 197 178 1082 114 178 1083 114 105 1084 197 132 1085 189</p>
        </triangles>
      </mesh>
    </geometry>
  </library_geometries>
  <library_visual_scenes>
    <visual_scene id="stone1" name="stone1">
      <node name="stone1" id="stone1" sid="stone1">
        <matrix sid="matrix">0.582021 0.000000 0.000000 1.295543 0.000000 -0.000000 0.582021 -0.000000 0.000000 -0.582021 -0.000000 19.550211 0.000000 0.000000 0.000000 1.000000</matrix>
        <instance_geometry url="#stone1-lib">
          <bind_material>
            <technique_common>
              <instance_material symbol="AllColors_Material" target="#AllColors_Material"/>
            </technique_common>
          </bind_material>
        </instance_geometry>
        <extra>
          <technique profile="FCOLLADA">
            <visibility>1.000000</visibility>
          </technique>
        </extra>
      </node>
      <extra>
        <technique profile="MAX3D">
          <frame_rate>24.000000</frame_rate>
        </technique>
        <technique profile="FCOLLADA">
          <start_time>0.041667</start_time>
          <end_time>8.333333</end_time>
        </technique>
      </extra>
    </visual_scene>
  </library_visual_scenes>
  <scene>
    <instance_visual_scene url="#stone1"/>
  </scene>
</COLLADA>
